<?xml version="1.0" encoding="UTF-8"?>
<svg width="30px" height="40px" viewBox="0 0 32 32" version="1.1" xmlns="http://www.w3.org/2000/svg" xmlns:xlink="http://www.w3.org/1999/xlink">
    <title>9C7BF0D3-2B5C-4F7C-8723-2907ABD8E5ED@3x</title>
    <defs>
        <path d="M16.1741071,26 C16.2708332,26 16.3530507,25.9661457 16.4207589,25.8984375 C16.4884671,25.8307293 16.5223214,25.7485118 16.5223214,25.6517857 L16.5223214,25.6517857 L16.5223214,20.0223214 L22.1517857,20.0223214 C22.2485118,20.0223214 22.3307293,19.9884671 22.3984375,19.9207589 C22.4661457,19.8530507 22.5,19.7708332 22.5,19.6741071 L22.5,19.6741071 L22.5,19.3258929 C22.5,19.2291668 22.4661457,19.1469493 22.3984375,19.0792411 C22.3307293,19.0115329 22.2485118,18.9776786 22.1517857,18.9776786 L22.1517857,18.9776786 L16.5223214,18.9776786 L16.5223214,13.3482143 C16.5223214,13.2514882 16.4884671,13.1692707 16.4207589,13.1015625 C16.3530507,13.0338543 16.2708332,13 16.1741071,13 L16.1741071,13 L15.8258929,13 C15.7291668,13 15.6469493,13.0338543 15.5792411,13.1015625 C15.5115329,13.1692707 15.4776786,13.2514882 15.4776786,13.3482143 L15.4776786,13.3482143 L15.4776786,18.9776786 L9.84821429,18.9776786 C9.75148824,18.9776786 9.66927069,19.0115329 9.6015625,19.0792411 C9.53385431,19.1469493 9.5,19.2291668 9.5,19.3258929 L9.5,19.3258929 L9.5,19.6741071 C9.5,19.7708332 9.53385431,19.8530507 9.6015625,19.9207589 C9.66927069,19.9884671 9.75148824,20.0223214 9.84821429,20.0223214 L9.84821429,20.0223214 L15.4776786,20.0223214 L15.4776786,25.6517857 C15.4776786,25.7485118 15.5115329,25.8307293 15.5792411,25.8984375 C15.6469493,25.9661457 15.7291668,26 15.8258929,26 L15.8258929,26 L16.1741071,26 Z M16.1741071,26 C16.2708332,26 16.3530507,25.9661457 16.4207589,25.8984375 C16.4884671,25.8307293 16.5223214,25.7485118 16.5223214,25.6517857 L16.5223214,25.6517857 L16.5223214,20.0223214 L22.1517857,20.0223214 C22.2485118,20.0223214 22.3307293,19.9884671 22.3984375,19.9207589 C22.4661457,19.8530507 22.5,19.7708332 22.5,19.6741071 L22.5,19.6741071 L22.5,19.3258929 C22.5,19.2291668 22.4661457,19.1469493 22.3984375,19.0792411 C22.3307293,19.0115329 22.2485118,18.9776786 22.1517857,18.9776786 L22.1517857,18.9776786 L16.5223214,18.9776786 L16.5223214,13.3482143 C16.5223214,13.2514882 16.4884671,13.1692707 16.4207589,13.1015625 C16.3530507,13.0338543 16.2708332,13 16.1741071,13 L16.1741071,13 L15.8258929,13 C15.7291668,13 15.6469493,13.0338543 15.5792411,13.1015625 C15.5115329,13.1692707 15.4776786,13.2514882 15.4776786,13.3482143 L15.4776786,13.3482143 L15.4776786,18.9776786 L9.84821429,18.9776786 C9.75148824,18.9776786 9.66927069,19.0115329 9.6015625,19.0792411 C9.53385431,19.1469493 9.5,19.2291668 9.5,19.3258929 L9.5,19.3258929 L9.5,19.6741071 C9.5,19.7708332 9.53385431,19.8530507 9.6015625,19.9207589 C9.66927069,19.9884671 9.75148824,20.0223214 9.84821429,20.0223214 L9.84821429,20.0223214 L15.4776786,20.0223214 L15.4776786,25.6517857 C15.4776786,25.7485118 15.5115329,25.8307293 15.5792411,25.8984375 C15.6469493,25.9661457 15.7291668,26 15.8258929,26 L15.8258929,26 L16.1741071,26 Z M25,32 C25.833333,32 26.541667,31.708333 27.125,31.125 C27.708333,30.541667 28,29.833333 28,29 L28,29 L28,8.25 C28,7.41666698 27.708333,6.70833302 27.125,6.125 L27.125,6.125 L21.875,0.875 C21.291667,0.291666985 20.583333,0 19.75,0 L19.75,0 L7,0 C6.16666698,0 5.45833302,0.291666985 4.875,0.875 C4.29166698,1.45833302 4,2.16666698 4,3 L4,3 L4,29 C4,29.833333 4.29166698,30.541667 4.875,31.125 C5.45833302,31.708333 6.16666698,32 7,32 L7,32 L25,32 Z M26,8 L20,8 L20,2 C20.166667,2.08333302 20.3125,2.1875 20.4375,2.3125 L20.4375,2.3125 L25.6875,7.5625 C25.8125,7.6875 25.916667,7.83333302 26,8 L26,8 Z M25,30 L7,30 C6.70833302,30 6.46875,29.90625 6.28125,29.71875 C6.09375,29.53125 6,29.291667 6,29 L6,29 L6,3 C6,2.70833302 6.09375,2.46875 6.28125,2.28125 C6.46875,2.09375 6.70833302,2 7,2 L7,2 L18,2 L18,8.5 C18,8.91666698 18.145833,9.27083302 18.4375,9.5625 C18.729167,9.85416698 19.083333,10 19.5,10 L19.5,10 L26,10 L26,29 C26,29.291667 25.90625,29.53125 25.71875,29.71875 C25.53125,29.90625 25.291667,30 25,30 L25,30 Z M25,32 C25.833333,32 26.541667,31.708333 27.125,31.125 C27.708333,30.541667 28,29.833333 28,29 L28,29 L28,8.25 C28,7.41666698 27.708333,6.70833302 27.125,6.125 L27.125,6.125 L21.875,0.875 C21.291667,0.291666985 20.583333,0 19.75,0 L19.75,0 L7,0 C6.16666698,0 5.45833302,0.291666985 4.875,0.875 C4.29166698,1.45833302 4,2.16666698 4,3 L4,3 L4,29 C4,29.833333 4.29166698,30.541667 4.875,31.125 C5.45833302,31.708333 6.16666698,32 7,32 L7,32 L25,32 Z M26,8 L20,8 L20,2 C20.166667,2.08333302 20.3125,2.1875 20.4375,2.3125 L20.4375,2.3125 L25.6875,7.5625 C25.8125,7.6875 25.916667,7.83333302 26,8 L26,8 Z M25,30 L7,30 C6.70833302,30 6.46875,29.90625 6.28125,29.71875 C6.09375,29.53125 6,29.291667 6,29 L6,29 L6,3 C6,2.70833302 6.09375,2.46875 6.28125,2.28125 C6.46875,2.09375 6.70833302,2 7,2 L7,2 L18,2 L18,8.5 C18,8.91666698 18.145833,9.27083302 18.4375,9.5625 C18.729167,9.85416698 19.083333,10 19.5,10 L19.5,10 L26,10 L26,29 C26,29.291667 25.90625,29.53125 25.71875,29.71875 C25.53125,29.90625 25.291667,30 25,30 L25,30 Z" id="path-1"></path>
    </defs>
    <g id="Symbols" stroke="none" stroke-width="1" fill="none" fill-rule="evenodd">
        <g id="Atom/Icon/Add-Document">
            <rect id="Frame" x="0" y="0" width="30" height="40"></rect>
            <mask id="mask-2" fill="white">
                <use xlink:href="#path-1"></use>
            </mask>
            <use id="Icon" fill="#70ada3" fill-rule="nonzero" xlink:href="#path-1"></use>
            <g id="Group" mask="url(#mask-2)">
                <g transform="translate(-34.000000, -33.840376)">
                    <rect id="Colour/General/White" fill="#70ada3" x="0" y="0" width="100" height="100"></rect>
                </g>
            </g>
        </g>
    </g>
</svg>