<?xml version="1.0" encoding="UTF-8"?>
<svg width="42px" height="48px" viewBox="0 0 32 32" version="1.1" xmlns="http://www.w3.org/2000/svg" xmlns:xlink="http://www.w3.org/1999/xlink">
    <title>46DBCFD9-1AEF-490B-B1A3-3C1724126A53@3x</title>
    <defs>
        <path d="M15.9999666,31.9999905 C17.0832971,31.9999905 18.0207948,31.6041584 18.8124599,30.8124933 C19.604125,30.0208282 19.9999571,29.0833304 19.9999571,28 L19.9999571,28 L26.9999404,28 C27.8749383,28 28.5936866,27.7083337 29.1561853,27.1250021 C29.7186839,26.5416705 29.9999332,25.8437551 29.9999332,25.0312571 C29.9999332,24.218759 29.708267,23.5000107 29.1249353,22.8750122 C28.4582699,22.2500137 27.979105,21.6875151 27.6874388,21.1875162 C27.1874399,20.3958511 26.7916079,19.4166874 26.4999416,18.2500232 C26.1666094,16.8333596 25.9999428,15.0833638 25.9999428,13.0000358 C25.9999428,11.3750396 25.6353606,9.85421025 24.9061954,8.43754664 C24.1770301,7.02088303 23.1770325,5.84380282 21.9062025,4.90630506 C20.6353726,3.96880729 19.208292,3.37505871 17.6249627,3.12505931 C17.8749622,2.79172709 17.9999619,2.41672798 17.9999619,2.00006676 C17.9999619,1.4583963 17.8020453,0.989647413 17.4062133,0.593815342 C17.0103812,0.19798327 16.5416323,6.67572021e-05 15.9999666,6.67572021e-05 C15.4583009,6.67572021e-05 14.989552,0.19798327 14.59372,0.593815342 C14.1978879,0.989647413 13.9999714,1.4583963 13.9999714,2.00006676 C13.9999714,2.41672798 14.1249711,2.79172709 14.3749705,3.12505931 C12.7916413,3.37505871 11.3645607,3.96880729 10.0937307,4.90630506 C8.82290072,5.84380282 7.8229031,7.02088303 7.09373786,8.43754664 C6.36457261,9.85421025 6,11.3750396 6,13.0000358 C6,15.0833638 5.83332388,16.8333596 5.5,18.2500232 C5.20832537,19.4166874 4.81249329,20.3958511 4.31249449,21.1875162 C4.0208282,21.6875151 3.56249627,22.2500137 2.93749776,22.8750122 C2.31249925,23.5000107 2,24.218759 2,25.0312571 C2,25.8437551 2.28124933,26.5416705 2.84374799,27.1250021 C3.40624665,27.7083337 4.12499493,28 5,28 L5,28 L11.9999762,28 C11.9999762,29.0833304 12.3958082,30.0208282 13.1874733,30.8124933 C13.9791384,31.6041584 14.9166362,31.9999905 15.9999666,31.9999905 Z M26.9999404,26.0000048 L4.99999285,26.0000048 C4.54166092,26.0000048 4.22916167,25.7916722 4.06249508,25.3750063 C3.8958285,24.9583403 3.97916188,24.6041751 4.31249449,24.3125088 C5.56249151,23.0625118 6.43748942,21.7291819 6.93748823,20.3125183 C7.64581955,18.5208556 7.99998569,16.0833614 7.99998569,13.0000358 C7.99998569,11.5417062 8.35415184,10.1979594 9.06248316,8.96879537 C9.77081449,7.73963132 10.7395622,6.77088363 11.9687262,6.0625523 C13.1978903,5.35422098 14.5416371,5.00005484 15.9999666,5.00005484 C17.4582962,5.00005484 18.802043,5.35422098 20.031207,6.0625523 C21.2603711,6.77088363 22.2291188,7.73963132 22.9374501,8.96879537 C23.6457814,10.1979594 23.9999475,11.5417062 23.9999475,13.0000358 C23.9999475,16.0833614 24.3332798,18.5208556 24.9999452,20.3125183 C25.5416109,21.7291819 26.4374417,23.0625118 27.6874388,24.3125088 C28.0207714,24.6041751 28.1041047,24.9583403 27.9374382,25.3750063 C27.7707716,25.7916722 27.4582723,26.0000048 26.9999404,26.0000048 L26.9999404,26.0000048 Z M15.9999714,30 C15.4583009,30 14.989552,29.8020787 14.59372,29.4062466 C14.1978879,29.0104146 13.9999714,28.5416657 13.9999714,28 L13.9999714,28 L17.9999714,28 C17.9999714,28.5416657 17.8020453,29.0104146 17.4062133,29.4062466 C17.0103812,29.8020787 16.5416323,30 15.9999714,30 Z M15.9999666,31.9999905 C17.0832971,31.9999905 18.0207948,31.6041584 18.8124599,30.8124933 C19.604125,30.0208282 19.9999571,29.0833304 19.9999571,28 L19.9999571,28 L26.9999404,28 C27.8749383,28 28.5936866,27.7083337 29.1561853,27.1250021 C29.7186839,26.5416705 29.9999332,25.8437551 29.9999332,25.0312571 C29.9999332,24.218759 29.708267,23.5000107 29.1249353,22.8750122 C28.4582699,22.2500137 27.979105,21.6875151 27.6874388,21.1875162 C27.1874399,20.3958511 26.7916079,19.4166874 26.4999416,18.2500232 C26.1666094,16.8333596 25.9999428,15.0833638 25.9999428,13.0000358 C25.9999428,11.3750396 25.6353606,9.85421025 24.9061954,8.43754664 C24.1770301,7.02088303 23.1770325,5.84380282 21.9062025,4.90630506 C20.6353726,3.96880729 19.208292,3.37505871 17.6249627,3.12505931 C17.8749622,2.79172709 17.9999619,2.41672798 17.9999619,2.00006676 C17.9999619,1.4583963 17.8020453,0.989647413 17.4062133,0.593815342 C17.0103812,0.19798327 16.5416323,6.67572021e-05 15.9999666,6.67572021e-05 C15.4583009,6.67572021e-05 14.989552,0.19798327 14.59372,0.593815342 C14.1978879,0.989647413 13.9999714,1.4583963 13.9999714,2.00006676 C13.9999714,2.41672798 14.1249711,2.79172709 14.3749705,3.12505931 C12.7916413,3.37505871 11.3645607,3.96880729 10.0937307,4.90630506 C8.82290072,5.84380282 7.8229031,7.02088303 7.09373786,8.43754664 C6.36457261,9.85421025 6,11.3750396 6,13.0000358 C6,15.0833638 5.83332388,16.8333596 5.5,18.2500232 C5.20832537,19.4166874 4.81249329,20.3958511 4.31249449,21.1875162 C4.0208282,21.6875151 3.56249627,22.2500137 2.93749776,22.8750122 C2.31249925,23.5000107 2,24.218759 2,25.0312571 C2,25.8437551 2.28124933,26.5416705 2.84374799,27.1250021 C3.40624665,27.7083337 4.12499493,28 5,28 L5,28 L11.9999762,28 C11.9999762,29.0833304 12.3958082,30.0208282 13.1874733,30.8124933 C13.9791384,31.6041584 14.9166362,31.9999905 15.9999666,31.9999905 Z M26.9999404,26.0000048 L4.99999285,26.0000048 C4.54166092,26.0000048 4.22916167,25.7916722 4.06249508,25.3750063 C3.8958285,24.9583403 3.97916188,24.6041751 4.31249449,24.3125088 C5.56249151,23.0625118 6.43748942,21.7291819 6.93748823,20.3125183 C7.64581955,18.5208556 7.99998569,16.0833614 7.99998569,13.0000358 C7.99998569,11.5417062 8.35415184,10.1979594 9.06248316,8.96879537 C9.77081449,7.73963132 10.7395622,6.77088363 11.9687262,6.0625523 C13.1978903,5.35422098 14.5416371,5.00005484 15.9999666,5.00005484 C17.4582962,5.00005484 18.802043,5.35422098 20.031207,6.0625523 C21.2603711,6.77088363 22.2291188,7.73963132 22.9374501,8.96879537 C23.6457814,10.1979594 23.9999475,11.5417062 23.9999475,13.0000358 C23.9999475,16.0833614 24.3332798,18.5208556 24.9999452,20.3125183 C25.5416109,21.7291819 26.4374417,23.0625118 27.6874388,24.3125088 C28.0207714,24.6041751 28.1041047,24.9583403 27.9374382,25.3750063 C27.7707716,25.7916722 27.4582723,26.0000048 26.9999404,26.0000048 L26.9999404,26.0000048 Z M15.9999714,30 C15.4583009,30 14.989552,29.8020787 14.59372,29.4062466 C14.1978879,29.0104146 13.9999714,28.5416657 13.9999714,28 L13.9999714,28 L17.9999714,28 C17.9999714,28.5416657 17.8020453,29.0104146 17.4062133,29.4062466 C17.0103812,29.8020787 16.5416323,30 15.9999714,30 Z" id="path-1"></path>
    </defs>
    <g id="Symbols" stroke="none" stroke-width="1" fill="none" fill-rule="evenodd">
        <g id="Atom/Icon/Bell">
            <rect id="Frame" x="0" y="0" width="32" height="32"></rect>
            <mask id="mask-2" fill="white">
                <use xlink:href="#path-1"></use>
            </mask>
            <use id="Icon" fill="#70ada3" fill-rule="nonzero" xlink:href="#path-1"></use>
            <g id="Group" mask="url(#mask-2)">
                <g transform="translate(-34.000000, -33.840376)">
                    <rect id="Colour/Primary/Teal" fill="#70ada3" x="0" y="0" width="100" height="100"></rect>
                </g>
            </g>
        </g>
    </g>
</svg>