<?xml version="1.0" encoding="UTF-8"?>
<svg width="55px" height="56px" viewBox="0 0 32 32" version="1.1" xmlns="http://www.w3.org/2000/svg" xmlns:xlink="http://www.w3.org/1999/xlink">
    <title>237BF9C8-6E19-4500-8F68-C24656AF9F28@3x</title>
    <defs>
        <path d="M29.25,32 C29.458333,32 29.635417,31.927083 29.78125,31.78125 C29.927083,31.635417 30,31.458333 30,31.25 L30,30.75 C30,30.541667 29.927083,30.364583 29.78125,30.21875 C29.635417,30.072917 29.458333,30 29.25,30 L29.0625,30 C28.9375,29.375 28.875,28.666667 28.875,27.875 C28.875,27.083333 28.9375,26.416667 29.0625,25.875 C29.354167,25.75 29.583333,25.5625 29.75,25.3125 C29.916667,25.0625 30,24.791667 30,24.5 L30,1.5 C30,1.08333302 29.854167,0.729166985 29.5625,0.4375 C29.270833,0.145833015 28.916667,0 28.5,0 L7,0 C5.625,0 4.44791698,0.489583015 3.46875,1.46875 C2.48958302,2.44791698 2,3.625 2,5 L2,27 C2,28.375 2.48958302,29.552083 3.46875,30.53125 C4.44791698,31.510417 5.625,32 7,32 L29.25,32 Z M28,24 L10,24 L10,2 L28,2 L28,24 Z M4,25 L4,5 C4,4.16666698 4.29166698,3.45833302 4.875,2.875 C5.45833302,2.29166698 6.16666698,2 7,2 L8,2 L8,24 L7,24 C5.875,24 4.875,24.333333 4,25 Z M24.25,10 C24.458333,10 24.635417,9.92708302 24.78125,9.78125 C24.927083,9.63541698 25,9.45833302 25,9.25 L25,8.75 C25,8.54166698 24.927083,8.36458302 24.78125,8.21875 C24.635417,8.07291698 24.458333,8 24.25,8 L13.75,8 C13.541667,8 13.364583,8.07291698 13.21875,8.21875 C13.072917,8.36458302 13,8.54166698 13,8.75 L13,9.25 C13,9.45833302 13.072917,9.63541698 13.21875,9.78125 C13.364583,9.92708302 13.541667,10 13.75,10 L24.25,10 Z M24.25,14 C24.458333,14 24.635417,13.927083 24.78125,13.78125 C24.927083,13.635417 25,13.458333 25,13.25 L25,12.75 C25,12.541667 24.927083,12.364583 24.78125,12.21875 C24.635417,12.072917 24.458333,12 24.25,12 L13.75,12 C13.541667,12 13.364583,12.072917 13.21875,12.21875 C13.072917,12.364583 13,12.541667 13,12.75 L13,13.25 C13,13.458333 13.072917,13.635417 13.21875,13.78125 C13.364583,13.927083 13.541667,14 13.75,14 L24.25,14 Z M27.25,30 L7,30 C6.04166698,30 5.30208302,29.802083 4.78125,29.40625 C4.26041698,29.010417 4,28.541667 4,28 C4,27.458333 4.26041698,26.989583 4.78125,26.59375 C5.30208302,26.197917 6.04166698,26 7,26 L27.25,26 C27.041667,27.333333 27.041667,28.666667 27.25,30 Z M29.25,32 C29.458333,32 29.635417,31.927083 29.78125,31.78125 C29.927083,31.635417 30,31.458333 30,31.25 L30,30.75 C30,30.541667 29.927083,30.364583 29.78125,30.21875 C29.635417,30.072917 29.458333,30 29.25,30 L29.0625,30 C28.9375,29.375 28.875,28.666667 28.875,27.875 C28.875,27.083333 28.9375,26.416667 29.0625,25.875 C29.354167,25.75 29.583333,25.5625 29.75,25.3125 C29.916667,25.0625 30,24.791667 30,24.5 L30,1.5 C30,1.08333302 29.854167,0.729166985 29.5625,0.4375 C29.270833,0.145833015 28.916667,0 28.5,0 L7,0 C5.625,0 4.44791698,0.489583015 3.46875,1.46875 C2.48958302,2.44791698 2,3.625 2,5 L2,27 C2,28.375 2.48958302,29.552083 3.46875,30.53125 C4.44791698,31.510417 5.625,32 7,32 L29.25,32 Z M28,24 L10,24 L10,2 L28,2 L28,24 Z M4,25 L4,5 C4,4.16666698 4.29166698,3.45833302 4.875,2.875 C5.45833302,2.29166698 6.16666698,2 7,2 L8,2 L8,24 L7,24 C5.875,24 4.875,24.333333 4,25 Z M24.25,10 C24.458333,10 24.635417,9.92708302 24.78125,9.78125 C24.927083,9.63541698 25,9.45833302 25,9.25 L25,8.75 C25,8.54166698 24.927083,8.36458302 24.78125,8.21875 C24.635417,8.07291698 24.458333,8 24.25,8 L13.75,8 C13.541667,8 13.364583,8.07291698 13.21875,8.21875 C13.072917,8.36458302 13,8.54166698 13,8.75 L13,9.25 C13,9.45833302 13.072917,9.63541698 13.21875,9.78125 C13.364583,9.92708302 13.541667,10 13.75,10 L24.25,10 Z M24.25,14 C24.458333,14 24.635417,13.927083 24.78125,13.78125 C24.927083,13.635417 25,13.458333 25,13.25 L25,12.75 C25,12.541667 24.927083,12.364583 24.78125,12.21875 C24.635417,12.072917 24.458333,12 24.25,12 L13.75,12 C13.541667,12 13.364583,12.072917 13.21875,12.21875 C13.072917,12.364583 13,12.541667 13,12.75 L13,13.25 C13,13.458333 13.072917,13.635417 13.21875,13.78125 C13.364583,13.927083 13.541667,14 13.75,14 L24.25,14 Z M27.25,30 L7,30 C6.04166698,30 5.30208302,29.802083 4.78125,29.40625 C4.26041698,29.010417 4,28.541667 4,28 C4,27.458333 4.26041698,26.989583 4.78125,26.59375 C5.30208302,26.197917 6.04166698,26 7,26 L27.25,26 C27.041667,27.333333 27.041667,28.666667 27.25,30 Z" id="path-1"></path>
    </defs>
    <g id="Symbols" stroke="none" stroke-width="1" fill="none" fill-rule="evenodd">
        <g id="Atom/Icon/Book-Open">
            <rect id="Frame" x="0" y="0" width="55" height="56"></rect>
            <mask id="mask-2" fill="white">
                <use xlink:href="#path-1"></use>
            </mask>
            <use id="Icon" fill="#FFFFFF" fill-rule="nonzero" xlink:href="#path-1"></use>
            <g id="Group" mask="url(#mask-2)">
                <g transform="translate(-34.000000, -33.840376)">
                    <rect id="Colour/General/White" fill="#FFFFFF" x="0" y="0" width="100" height="100"></rect>
                </g>
            </g>
        </g>
    </g>
</svg>