<?xml version="1.0" encoding="UTF-8"?>
<svg width="48px" height="48px" viewBox="0 0 32 32" version="1.1" xmlns="http://www.w3.org/2000/svg" xmlns:xlink="http://www.w3.org/1999/xlink">
    <title>36F8BACC-D168-42CD-B179-3D166B8EE95A@3x</title>
    <defs>
        <path d="M27,32 C27.833333,32 28.541667,31.708333 29.125,31.125 C29.708333,30.541667 30,29.833333 30,29 L30,29 L30,7 C30,6.16666698 29.708333,5.45833302 29.125,4.875 C28.541667,4.29166698 27.833333,4 27,4 L27,4 L24,4 L24,0.75 C24,0.541666985 23.927083,0.364583015 23.78125,0.21875 C23.635417,0.0729169846 23.458333,0 23.25,0 L23.25,0 L22.75,0 C22.541667,0 22.364583,0.0729169846 22.21875,0.21875 C22.072917,0.364583015 22,0.541666985 22,0.75 L22,0.75 L22,4 L10,4 L10,0.75 C10,0.541666985 9.92708302,0.364583015 9.78125,0.21875 C9.63541698,0.0729169846 9.45833302,0 9.25,0 L9.25,0 L8.75,0 C8.54166698,0 8.36458302,0.0729169846 8.21875,0.21875 C8.07291698,0.364583015 8,0.541666985 8,0.75 L8,0.75 L8,4 L5,4 C4.16666698,4 3.45833302,4.29166698 2.875,4.875 C2.29166698,5.45833302 2,6.16666698 2,7 L2,7 L2,29 C2,29.833333 2.29166698,30.541667 2.875,31.125 C3.45833302,31.708333 4.16666698,32 5,32 L5,32 L27,32 Z M28,10 L4,10 L4,7 C4,6.70833302 4.09375,6.46875 4.28125,6.28125 C4.46875,6.09375 4.70833302,6 5,6 L5,6 L27,6 C27.291667,6 27.53125,6.09375 27.71875,6.28125 C27.90625,6.46875 28,6.70833302 28,7 L28,7 L28,10 Z M27,30 L5,30 C4.70833302,30 4.46875,29.90625 4.28125,29.71875 C4.09375,29.53125 4,29.291667 4,29 L4,29 L4,12 L28,12 L28,29 C28,29.291667 27.90625,29.53125 27.71875,29.71875 C27.53125,29.90625 27.291667,30 27,30 L27,30 Z M11.25,20 C11.458333,20 11.635417,19.927083 11.78125,19.78125 C11.927083,19.635417 12,19.458333 12,19.25 L12,19.25 L12,16.75 C12,16.541667 11.927083,16.364583 11.78125,16.21875 C11.635417,16.072917 11.458333,16 11.25,16 L11.25,16 L8.75,16 C8.54166698,16 8.36458302,16.072917 8.21875,16.21875 C8.07291698,16.364583 8,16.541667 8,16.75 L8,16.75 L8,19.25 C8,19.458333 8.07291698,19.635417 8.21875,19.78125 C8.36458302,19.927083 8.54166698,20 8.75,20 L8.75,20 L11.25,20 Z M17.25,20 C17.458333,20 17.635417,19.927083 17.78125,19.78125 C17.927083,19.635417 18,19.458333 18,19.25 L18,19.25 L18,16.75 C18,16.541667 17.927083,16.364583 17.78125,16.21875 C17.635417,16.072917 17.458333,16 17.25,16 L17.25,16 L14.75,16 C14.541667,16 14.364583,16.072917 14.21875,16.21875 C14.072917,16.364583 14,16.541667 14,16.75 L14,16.75 L14,19.25 C14,19.458333 14.072917,19.635417 14.21875,19.78125 C14.364583,19.927083 14.541667,20 14.75,20 L14.75,20 L17.25,20 Z M23.25,20 C23.458333,20 23.635417,19.927083 23.78125,19.78125 C23.927083,19.635417 24,19.458333 24,19.25 L24,19.25 L24,16.75 C24,16.541667 23.927083,16.364583 23.78125,16.21875 C23.635417,16.072917 23.458333,16 23.25,16 L23.25,16 L20.75,16 C20.541667,16 20.364583,16.072917 20.21875,16.21875 C20.072917,16.364583 20,16.541667 20,16.75 L20,16.75 L20,19.25 C20,19.458333 20.072917,19.635417 20.21875,19.78125 C20.364583,19.927083 20.541667,20 20.75,20 L20.75,20 L23.25,20 Z M17.25,26 C17.458333,26 17.635417,25.927083 17.78125,25.78125 C17.927083,25.635417 18,25.458333 18,25.25 L18,25.25 L18,22.75 C18,22.541667 17.927083,22.364583 17.78125,22.21875 C17.635417,22.072917 17.458333,22 17.25,22 L17.25,22 L14.75,22 C14.541667,22 14.364583,22.072917 14.21875,22.21875 C14.072917,22.364583 14,22.541667 14,22.75 L14,22.75 L14,25.25 C14,25.458333 14.072917,25.635417 14.21875,25.78125 C14.364583,25.927083 14.541667,26 14.75,26 L14.75,26 L17.25,26 Z M11.25,26 C11.458333,26 11.635417,25.927083 11.78125,25.78125 C11.927083,25.635417 12,25.458333 12,25.25 L12,25.25 L12,22.75 C12,22.541667 11.927083,22.364583 11.78125,22.21875 C11.635417,22.072917 11.458333,22 11.25,22 L11.25,22 L8.75,22 C8.54166698,22 8.36458302,22.072917 8.21875,22.21875 C8.07291698,22.364583 8,22.541667 8,22.75 L8,22.75 L8,25.25 C8,25.458333 8.07291698,25.635417 8.21875,25.78125 C8.36458302,25.927083 8.54166698,26 8.75,26 L8.75,26 L11.25,26 Z M23.25,26 C23.458333,26 23.635417,25.927083 23.78125,25.78125 C23.927083,25.635417 24,25.458333 24,25.25 L24,25.25 L24,22.75 C24,22.541667 23.927083,22.364583 23.78125,22.21875 C23.635417,22.072917 23.458333,22 23.25,22 L23.25,22 L20.75,22 C20.541667,22 20.364583,22.072917 20.21875,22.21875 C20.072917,22.364583 20,22.541667 20,22.75 L20,22.75 L20,25.25 C20,25.458333 20.072917,25.635417 20.21875,25.78125 C20.364583,25.927083 20.541667,26 20.75,26 L20.75,26 L23.25,26 Z M27,32 C27.833333,32 28.541667,31.708333 29.125,31.125 C29.708333,30.541667 30,29.833333 30,29 L30,29 L30,7 C30,6.16666698 29.708333,5.45833302 29.125,4.875 C28.541667,4.29166698 27.833333,4 27,4 L27,4 L24,4 L24,0.75 C24,0.541666985 23.927083,0.364583015 23.78125,0.21875 C23.635417,0.0729169846 23.458333,0 23.25,0 L23.25,0 L22.75,0 C22.541667,0 22.364583,0.0729169846 22.21875,0.21875 C22.072917,0.364583015 22,0.541666985 22,0.75 L22,0.75 L22,4 L10,4 L10,0.75 C10,0.541666985 9.92708302,0.364583015 9.78125,0.21875 C9.63541698,0.0729169846 9.45833302,0 9.25,0 L9.25,0 L8.75,0 C8.54166698,0 8.36458302,0.0729169846 8.21875,0.21875 C8.07291698,0.364583015 8,0.541666985 8,0.75 L8,0.75 L8,4 L5,4 C4.16666698,4 3.45833302,4.29166698 2.875,4.875 C2.29166698,5.45833302 2,6.16666698 2,7 L2,7 L2,29 C2,29.833333 2.29166698,30.541667 2.875,31.125 C3.45833302,31.708333 4.16666698,32 5,32 L5,32 L27,32 Z M28,10 L4,10 L4,7 C4,6.70833302 4.09375,6.46875 4.28125,6.28125 C4.46875,6.09375 4.70833302,6 5,6 L5,6 L27,6 C27.291667,6 27.53125,6.09375 27.71875,6.28125 C27.90625,6.46875 28,6.70833302 28,7 L28,7 L28,10 Z M27,30 L5,30 C4.70833302,30 4.46875,29.90625 4.28125,29.71875 C4.09375,29.53125 4,29.291667 4,29 L4,29 L4,12 L28,12 L28,29 C28,29.291667 27.90625,29.53125 27.71875,29.71875 C27.53125,29.90625 27.291667,30 27,30 L27,30 Z M11.25,20 C11.458333,20 11.635417,19.927083 11.78125,19.78125 C11.927083,19.635417 12,19.458333 12,19.25 L12,19.25 L12,16.75 C12,16.541667 11.927083,16.364583 11.78125,16.21875 C11.635417,16.072917 11.458333,16 11.25,16 L11.25,16 L8.75,16 C8.54166698,16 8.36458302,16.072917 8.21875,16.21875 C8.07291698,16.364583 8,16.541667 8,16.75 L8,16.75 L8,19.25 C8,19.458333 8.07291698,19.635417 8.21875,19.78125 C8.36458302,19.927083 8.54166698,20 8.75,20 L8.75,20 L11.25,20 Z M17.25,20 C17.458333,20 17.635417,19.927083 17.78125,19.78125 C17.927083,19.635417 18,19.458333 18,19.25 L18,19.25 L18,16.75 C18,16.541667 17.927083,16.364583 17.78125,16.21875 C17.635417,16.072917 17.458333,16 17.25,16 L17.25,16 L14.75,16 C14.541667,16 14.364583,16.072917 14.21875,16.21875 C14.072917,16.364583 14,16.541667 14,16.75 L14,16.75 L14,19.25 C14,19.458333 14.072917,19.635417 14.21875,19.78125 C14.364583,19.927083 14.541667,20 14.75,20 L14.75,20 L17.25,20 Z M23.25,20 C23.458333,20 23.635417,19.927083 23.78125,19.78125 C23.927083,19.635417 24,19.458333 24,19.25 L24,19.25 L24,16.75 C24,16.541667 23.927083,16.364583 23.78125,16.21875 C23.635417,16.072917 23.458333,16 23.25,16 L23.25,16 L20.75,16 C20.541667,16 20.364583,16.072917 20.21875,16.21875 C20.072917,16.364583 20,16.541667 20,16.75 L20,16.75 L20,19.25 C20,19.458333 20.072917,19.635417 20.21875,19.78125 C20.364583,19.927083 20.541667,20 20.75,20 L20.75,20 L23.25,20 Z M17.25,26 C17.458333,26 17.635417,25.927083 17.78125,25.78125 C17.927083,25.635417 18,25.458333 18,25.25 L18,25.25 L18,22.75 C18,22.541667 17.927083,22.364583 17.78125,22.21875 C17.635417,22.072917 17.458333,22 17.25,22 L17.25,22 L14.75,22 C14.541667,22 14.364583,22.072917 14.21875,22.21875 C14.072917,22.364583 14,22.541667 14,22.75 L14,22.75 L14,25.25 C14,25.458333 14.072917,25.635417 14.21875,25.78125 C14.364583,25.927083 14.541667,26 14.75,26 L14.75,26 L17.25,26 Z M11.25,26 C11.458333,26 11.635417,25.927083 11.78125,25.78125 C11.927083,25.635417 12,25.458333 12,25.25 L12,25.25 L12,22.75 C12,22.541667 11.927083,22.364583 11.78125,22.21875 C11.635417,22.072917 11.458333,22 11.25,22 L11.25,22 L8.75,22 C8.54166698,22 8.36458302,22.072917 8.21875,22.21875 C8.07291698,22.364583 8,22.541667 8,22.75 L8,22.75 L8,25.25 C8,25.458333 8.07291698,25.635417 8.21875,25.78125 C8.36458302,25.927083 8.54166698,26 8.75,26 L8.75,26 L11.25,26 Z M23.25,26 C23.458333,26 23.635417,25.927083 23.78125,25.78125 C23.927083,25.635417 24,25.458333 24,25.25 L24,25.25 L24,22.75 C24,22.541667 23.927083,22.364583 23.78125,22.21875 C23.635417,22.072917 23.458333,22 23.25,22 L23.25,22 L20.75,22 C20.541667,22 20.364583,22.072917 20.21875,22.21875 C20.072917,22.364583 20,22.541667 20,22.75 L20,22.75 L20,25.25 C20,25.458333 20.072917,25.635417 20.21875,25.78125 C20.364583,25.927083 20.541667,26 20.75,26 L20.75,26 L23.25,26 Z" id="path-1"></path>
    </defs>
    <g id="Symbols" stroke="none" stroke-width="1" fill="none" fill-rule="evenodd">
        <g id="Atom/Icon/Calendar">
            <rect id="Frame" x="0" y="0" width="48" height="48"></rect>
            <mask id="mask-2" fill="white">
                <use xlink:href="#path-1"></use>
            </mask>
            <use id="Icon" fill="#70ada3" fill-rule="nonzero" xlink:href="#path-1"></use>
            <g id="Group" mask="url(#mask-2)">
                <g transform="translate(-34.000000, -33.840376)">
                    <rect id="Colour/General/White" fill="#70ada3" x="0" y="0" width="100" height="100"></rect>
                </g>
            </g>
        </g>
    </g>
</svg>