<?xml version="1.0" encoding="UTF-8"?>
<svg width="32px" height="32px" viewBox="0 0 32 32" version="1.1" xmlns="http://www.w3.org/2000/svg" xmlns:xlink="http://www.w3.org/1999/xlink">
    <title>ED8B0DD9-CC50-4DBD-B89A-6989EAB98C79@3x</title>
    <defs>
        <path d="M9.4479638,28 C9.66515837,28 9.87028621,27.9047623 10.0633484,27.7142857 L10.0633484,27.7142857 L31.7828054,6.28571429 C31.9276018,6.14285714 32,5.95238059 32,5.71428571 C32,5.47619084 31.9276018,5.26190513 31.7828054,5.07142857 L31.7828054,5.07142857 L30.9140271,4.28571429 C30.7692308,4.09523773 30.5761686,4 30.3348416,4 C30.0935147,4 29.9004525,4.09523773 29.7556561,4.28571429 L29.7556561,4.28571429 L9.41176471,24.2857143 L2.24434389,17.2142857 C2.09954751,17.0238092 1.9064853,16.9285714 1.66515837,16.9285714 C1.42383144,16.9285714 1.23076923,17.0238092 1.08597285,17.2142857 L1.08597285,17.2142857 L0.21719457,18 C0.07239819,18.1904766 0,18.4047623 0,18.6428571 C0,18.880952 0.07239819,19.0714286 0.21719457,19.2142857 L0.21719457,19.2142857 L8.83257919,27.7142857 C9.02564139,27.9047623 9.23076923,28 9.4479638,28 Z M9.4479638,28 C9.66515837,28 9.87028621,27.9047623 10.0633484,27.7142857 L10.0633484,27.7142857 L31.7828054,6.28571429 C31.9276018,6.14285714 32,5.95238059 32,5.71428571 C32,5.47619084 31.9276018,5.26190513 31.7828054,5.07142857 L31.7828054,5.07142857 L30.9140271,4.28571429 C30.7692308,4.09523773 30.5761686,4 30.3348416,4 C30.0935147,4 29.9004525,4.09523773 29.7556561,4.28571429 L29.7556561,4.28571429 L9.41176471,24.2857143 L2.24434389,17.2142857 C2.09954751,17.0238092 1.9064853,16.9285714 1.66515837,16.9285714 C1.42383144,16.9285714 1.23076923,17.0238092 1.08597285,17.2142857 L1.08597285,17.2142857 L0.21719457,18 C0.07239819,18.1904766 0,18.4047623 0,18.6428571 C0,18.880952 0.07239819,19.0714286 0.21719457,19.2142857 L0.21719457,19.2142857 L8.83257919,27.7142857 C9.02564139,27.9047623 9.23076923,28 9.4479638,28 Z" id="path-1"></path>
    </defs>
    <g id="Symbols" stroke="none" stroke-width="1" fill="none" fill-rule="evenodd">
        <g id="Atom/Icon/Check">
            <rect id="Frame" x="0" y="0" width="32" height="32"></rect>
            <mask id="mask-2" fill="white">
                <use xlink:href="#path-1"></use>
            </mask>
            <use id="Icon" fill="#9b9b9b" fill-rule="nonzero" xlink:href="#path-1"></use>
            <g id="Group" mask="url(#mask-2)">
                <g transform="translate(-34.000000, -33.840376)">
                    <rect id="Colour/General/Black" fill="#9b9b9b" x="0" y="0" width="100" height="100"></rect>
                </g>
            </g>
        </g>
    </g>
</svg>