<?xml version="1.0" encoding="UTF-8"?>
<svg width="128px" height="128px" viewBox="0 0 32 32" version="1.1" xmlns="http://www.w3.org/2000/svg" xmlns:xlink="http://www.w3.org/1999/xlink">
    <title>F726AFC0-AFE9-48E4-A600-BD64A66A2F71@3x</title>
    <defs>
        <path d="M16,32 C18.8817208,32 21.5483871,31.2795696 24,29.8387097 C26.4516129,28.3978498 28.3978498,26.4516129 29.8387097,24 C31.2795696,21.5483871 32,18.8817208 32,16 C32,13.1182792 31.2795696,10.4516129 29.8387097,8 C28.3978498,5.5483871 26.4516129,3.60215021 24,2.16129032 C21.5483871,0.720430436 18.8817208,0 16,0 C13.1182792,0 10.4516129,0.720430436 8,2.16129032 C5.5483871,3.60215021 3.60215021,5.5483871 2.16129032,8 C0.720430436,10.4516129 0,13.1182792 0,16 C0,18.8817208 0.720430436,21.5483871 2.16129032,24 C3.60215021,26.4516129 5.5483871,28.3978498 8,29.8387097 C10.4516129,31.2795696 13.1182792,32 16,32 Z M16,29.9354839 C13.505376,29.9354839 11.1827954,29.3118276 9.03225806,28.0645161 C6.88172076,26.8172046 5.18279537,25.1290323 3.93548387,23 C2.68817237,20.8709677 2.06451613,18.5483871 2.06451613,16.0322581 C2.06451613,13.516129 2.68817237,11.1827954 3.93548387,9.03225806 C5.18279537,6.88172076 6.87096774,5.18279537 9,3.93548387 C11.1290323,2.68817237 13.4516129,2.06451613 15.9677419,2.06451613 C18.483871,2.06451613 20.8172046,2.68817237 22.9677419,3.93548387 C25.1182792,5.18279537 26.8172046,6.87096774 28.0645161,9 C29.3118276,11.1290323 29.9354839,13.4516129 29.9354839,15.9677419 C29.9354839,18.483871 29.3118276,20.8172046 28.0645161,22.9677419 C26.8172046,25.1182792 25.1290323,26.8172046 23,28.0645161 C20.8709677,29.3118276 18.5376341,29.9354839 16,29.9354839 Z M12.9677419,24 C13.1827954,24 13.3548387,23.9139788 13.483871,23.7419355 L13.483871,23.7419355 L25.1612903,12.1935484 C25.2903226,12.0645161 25.3548387,11.8924728 25.3548387,11.6774194 C25.3548387,11.4623659 25.2903226,11.2688175 25.1612903,11.0967742 L25.1612903,11.0967742 L24.5806452,10.5806452 C24.4516129,10.4086018 24.2795696,10.3225806 24.0645161,10.3225806 C23.8494627,10.3225806 23.6559143,10.3870968 23.483871,10.516129 L23.483871,10.516129 L12.9677419,21.0322581 L8.51612903,16.516129 C8.34408569,16.3870968 8.15053731,16.3225806 7.93548387,16.3225806 C7.72043044,16.3225806 7.5483871,16.3870968 7.41935484,16.516129 L7.41935484,16.516129 L6.83870968,17.0322581 C6.70967742,17.2043014 6.64516129,17.3978498 6.64516129,17.6129032 C6.64516129,17.8279567 6.70967742,18 6.83870968,18.1290323 L6.83870968,18.1290323 L12.3870968,23.7419355 C12.5591401,23.9139788 12.7526885,24 12.9677419,24 Z M16,32 C18.8817208,32 21.5483871,31.2795696 24,29.8387097 C26.4516129,28.3978498 28.3978498,26.4516129 29.8387097,24 C31.2795696,21.5483871 32,18.8817208 32,16 C32,13.1182792 31.2795696,10.4516129 29.8387097,8 C28.3978498,5.5483871 26.4516129,3.60215021 24,2.16129032 C21.5483871,0.720430436 18.8817208,0 16,0 C13.1182792,0 10.4516129,0.720430436 8,2.16129032 C5.5483871,3.60215021 3.60215021,5.5483871 2.16129032,8 C0.720430436,10.4516129 0,13.1182792 0,16 C0,18.8817208 0.720430436,21.5483871 2.16129032,24 C3.60215021,26.4516129 5.5483871,28.3978498 8,29.8387097 C10.4516129,31.2795696 13.1182792,32 16,32 Z M16,29.9354839 C13.505376,29.9354839 11.1827954,29.3118276 9.03225806,28.0645161 C6.88172076,26.8172046 5.18279537,25.1290323 3.93548387,23 C2.68817237,20.8709677 2.06451613,18.5483871 2.06451613,16.0322581 C2.06451613,13.516129 2.68817237,11.1827954 3.93548387,9.03225806 C5.18279537,6.88172076 6.87096774,5.18279537 9,3.93548387 C11.1290323,2.68817237 13.4516129,2.06451613 15.9677419,2.06451613 C18.483871,2.06451613 20.8172046,2.68817237 22.9677419,3.93548387 C25.1182792,5.18279537 26.8172046,6.87096774 28.0645161,9 C29.3118276,11.1290323 29.9354839,13.4516129 29.9354839,15.9677419 C29.9354839,18.483871 29.3118276,20.8172046 28.0645161,22.9677419 C26.8172046,25.1182792 25.1290323,26.8172046 23,28.0645161 C20.8709677,29.3118276 18.5376341,29.9354839 16,29.9354839 Z M12.9677419,24 C13.1827954,24 13.3548387,23.9139788 13.483871,23.7419355 L13.483871,23.7419355 L25.1612903,12.1935484 C25.2903226,12.0645161 25.3548387,11.8924728 25.3548387,11.6774194 C25.3548387,11.4623659 25.2903226,11.2688175 25.1612903,11.0967742 L25.1612903,11.0967742 L24.5806452,10.5806452 C24.4516129,10.4086018 24.2795696,10.3225806 24.0645161,10.3225806 C23.8494627,10.3225806 23.6559143,10.3870968 23.483871,10.516129 L23.483871,10.516129 L12.9677419,21.0322581 L8.51612903,16.516129 C8.34408569,16.3870968 8.15053731,16.3225806 7.93548387,16.3225806 C7.72043044,16.3225806 7.5483871,16.3870968 7.41935484,16.516129 L7.41935484,16.516129 L6.83870968,17.0322581 C6.70967742,17.2043014 6.64516129,17.3978498 6.64516129,17.6129032 C6.64516129,17.8279567 6.70967742,18 6.83870968,18.1290323 L6.83870968,18.1290323 L12.3870968,23.7419355 C12.5591401,23.9139788 12.7526885,24 12.9677419,24 Z" id="path-1"></path>
    </defs>
    <g id="Symbols" stroke="none" stroke-width="1" fill="none" fill-rule="evenodd">
        <g id="Atom/Icon/Check-Circle">
            <rect id="Frame" x="0" y="0" width="128" height="128"></rect>
            <mask id="mask-2" fill="white">
                <use xlink:href="#path-1"></use>
            </mask>
            <use id="Icon" fill="#000000" fill-rule="nonzero" xlink:href="#path-1"></use>
            <g id="Group" mask="url(#mask-2)">
                <g transform="translate(-34.000000, -33.840376)">
                    <rect id="Colour/General/Black" fill="#000000" x="0" y="0" width="100" height="100"></rect>
                </g>
            </g>
        </g>
    </g>
</svg>