<?xml version="1.0" encoding="UTF-8"?>
<svg width="16px" height="16px" viewBox="0 0 32 32" version="1.1" xmlns="http://www.w3.org/2000/svg" xmlns:xlink="http://www.w3.org/1999/xlink">
    <title>59DB9310-1B1C-4EF0-97EE-287A029E9453@3x</title>
    <defs>
        <path transform="rotate(90 15 15)" d="M16,24.5 C16.2391626,24.5 16.4304933,24.4297521 16.573991,24.2892562 L16.573991,24.2892562 L31.7130045,9.46694215 C31.9043352,9.27961397 32,9.06887017 32,8.83471074 C32,8.60055132 31.9043352,8.41322314 31.7130045,8.27272727 L31.7130045,8.27272727 L31.7847534,8.27272727 L31.2107623,7.7107438 C31.0672646,7.57024793 30.8759339,7.5 30.6367713,7.5 C30.3976087,7.5 30.1823621,7.57024793 29.9910314,7.7107438 L29.9910314,7.7107438 L16,21.4793388 L2.00896861,7.7107438 C1.8176379,7.57024793 1.60239126,7.5 1.3632287,7.5 C1.12406613,7.5 0.932735426,7.57024793 0.789237668,7.7107438 L0.789237668,7.7107438 L0.215246637,8.27272727 C0.0717488789,8.41322314 0,8.60055132 0,8.83471074 C0,9.06887017 0.0717488789,9.27961397 0.215246637,9.46694215 L0.215246637,9.46694215 L15.3542601,24.2892562 C15.5455908,24.4297521 15.7608374,24.5 16,24.5 Z M16,24.5 C16.2391626,24.5 16.4304933,24.4297521 16.573991,24.2892562 L16.573991,24.2892562 L31.7130045,9.46694215 C31.9043352,9.27961397 32,9.06887017 32,8.83471074 C32,8.60055132 31.9043352,8.41322314 31.7130045,8.27272727 L31.7130045,8.27272727 L31.7847534,8.27272727 L31.2107623,7.7107438 C31.0672646,7.57024793 30.8759339,7.5 30.6367713,7.5 C30.3976087,7.5 30.1823621,7.57024793 29.9910314,7.7107438 L29.9910314,7.7107438 L16,21.4793388 L2.00896861,7.7107438 C1.8176379,7.57024793 1.60239126,7.5 1.3632287,7.5 C1.12406613,7.5 0.932735426,7.57024793 0.789237668,7.7107438 L0.789237668,7.7107438 L0.215246637,8.27272727 C0.0717488789,8.41322314 0,8.60055132 0,8.83471074 C0,9.06887017 0.0717488789,9.27961397 0.215246637,9.46694215 L0.215246637,9.46694215 L15.3542601,24.2892562 C15.5455908,24.4297521 15.7608374,24.5 16,24.5 Z" id="path-1"></path>
    </defs>
    <g id="Symbols" stroke="none" stroke-width="1" fill="none" fill-rule="evenodd">
        <g id="Atom/Icon/Chevron">
            <rect id="Frame" x="0" y="0" width="16" height="16"></rect>
            <mask id="mask-2" fill="white">
                <use xlink:href="#path-1"></use>
            </mask>
            <use id="Icon" fill="#bac2c7" fill-rule="nonzero" xlink:href="#path-1"></use>
            <g id="Group" mask="url(#mask-2)">
                <g transform="translate(-34.000000, -33.840376)">
                    <rect id="Colour/General/Black" fill="#bac2c7" x="0" y="0" width="100" height="100"></rect>
                </g>
            </g>
        </g>
    </g>
</svg>