<?xml version="1.0" encoding="UTF-8"?>
<svg width="30px" height="40px" viewBox="0 0 32 32" version="1.1" xmlns="http://www.w3.org/2000/svg" xmlns:xlink="http://www.w3.org/1999/xlink">
    <title>A0A0EF60-029E-448B-8433-DB33C7E28C64@3x</title>
    <defs>
        <path d="M9,32 C10.375,32 11.552083,31.510417 12.53125,30.53125 C13.510417,29.552083 14,28.375 14,27 C14,25.875 13.65625,24.864583 12.96875,23.96875 C12.28125,23.072917 11.395833,22.479167 10.3125,22.1875 C10.5625,21.6875 10.947917,21.3125 11.46875,21.0625 C11.989583,20.8125 12.645833,20.625 13.4375,20.5 C13.9375,20.416667 14.729167,20.3125 15.8125,20.1875 C17.604167,20.020833 18.916667,19.8125 19.75,19.5625 C21.083333,19.1875 22.125,18.53125 22.875,17.59375 C23.625,16.65625 24.020833,15.416667 24.0625,13.875 C25.229167,13.625 26.177083,13.041667 26.90625,12.125 C27.635417,11.208333 28,10.166667 28,9 C28,7.625 27.510417,6.44791698 26.53125,5.46875 C25.552083,4.48958302 24.375,4 23,4 C21.625,4 20.447917,4.48958302 19.46875,5.46875 C18.489583,6.44791698 18,7.625 18,9 C18,10.208333 18.385417,11.270833 19.15625,12.1875 C19.927083,13.104167 20.895833,13.6875 22.0625,13.9375 C22.020833,14.979167 21.760417,15.802083 21.28125,16.40625 C20.802083,17.010417 20.020833,17.458333 18.9375,17.75 C18.270833,17.916667 17.166667,18.0625 15.625,18.1875 C14.458333,18.3125 13.583333,18.4375 13,18.5625 C12.041667,18.729167 11.25,18.958333 10.625,19.25 C10.375,19.375 10.166667,19.5 10,19.625 L10,19.625 L10,9.875 C11.166667,9.66666698 12.125,9.10416698 12.875,8.1875 C13.625,7.27083302 14,6.20833302 14,5 C14,3.625 13.510417,2.44791698 12.53125,1.46875 C11.552083,0.489583015 10.375,0 9,0 C7.625,0 6.44791698,0.489583015 5.46875,1.46875 C4.48958302,2.44791698 4,3.625 4,5 C4,6.20833302 4.375,7.27083302 5.125,8.1875 C5.875,9.10416698 6.83333302,9.66666698 8,9.875 L8,9.875 L8,22.125 C6.83333302,22.333333 5.875,22.895833 5.125,23.8125 C4.375,24.729167 4,25.791667 4,27 C4,28.375 4.48958302,29.552083 5.46875,30.53125 C6.44791698,31.510417 7.625,32 9,32 Z M9,8 C8.16666698,8 7.45833302,7.70833302 6.875,7.125 C6.29166698,6.54166698 6,5.83333302 6,5 C6,4.16666698 6.29166698,3.45833302 6.875,2.875 C7.45833302,2.29166698 8.16666698,2 9,2 C9.83333302,2 10.541667,2.29166698 11.125,2.875 C11.708333,3.45833302 12,4.16666698 12,5 C12,5.83333302 11.708333,6.54166698 11.125,7.125 C10.541667,7.70833302 9.83333302,8 9,8 Z M23,12 C22.166667,12 21.458333,11.708333 20.875,11.125 C20.291667,10.541667 20,9.83333302 20,9 C20,8.16666698 20.291667,7.45833302 20.875,6.875 C21.458333,6.29166698 22.166667,6 23,6 C23.833333,6 24.541667,6.29166698 25.125,6.875 C25.708333,7.45833302 26,8.16666698 26,9 C26,9.70833302 25.791667,10.322917 25.375,10.84375 C24.958333,11.364583 24.416667,11.729167 23.75,11.9375 L23.75,11.9375 L23.75,11.875 L23,12 Z M9,30 C8.16666698,30 7.45833302,29.708333 6.875,29.125 C6.29166698,28.541667 6,27.833333 6,27 C6,26.166667 6.29166698,25.458333 6.875,24.875 C7.45833302,24.291667 8.16666698,24 9,24 C9.83333302,24 10.541667,24.291667 11.125,24.875 C11.708333,25.458333 12,26.166667 12,27 C12,27.833333 11.708333,28.541667 11.125,29.125 C10.541667,29.708333 9.83333302,30 9,30 Z M9,32 C10.375,32 11.552083,31.510417 12.53125,30.53125 C13.510417,29.552083 14,28.375 14,27 C14,25.875 13.65625,24.864583 12.96875,23.96875 C12.28125,23.072917 11.395833,22.479167 10.3125,22.1875 C10.5625,21.6875 10.947917,21.3125 11.46875,21.0625 C11.989583,20.8125 12.645833,20.625 13.4375,20.5 C13.9375,20.416667 14.729167,20.3125 15.8125,20.1875 C17.604167,20.020833 18.916667,19.8125 19.75,19.5625 C21.083333,19.1875 22.125,18.53125 22.875,17.59375 C23.625,16.65625 24.020833,15.416667 24.0625,13.875 C25.229167,13.625 26.177083,13.041667 26.90625,12.125 C27.635417,11.208333 28,10.166667 28,9 C28,7.625 27.510417,6.44791698 26.53125,5.46875 C25.552083,4.48958302 24.375,4 23,4 C21.625,4 20.447917,4.48958302 19.46875,5.46875 C18.489583,6.44791698 18,7.625 18,9 C18,10.208333 18.385417,11.270833 19.15625,12.1875 C19.927083,13.104167 20.895833,13.6875 22.0625,13.9375 C22.020833,14.979167 21.760417,15.802083 21.28125,16.40625 C20.802083,17.010417 20.020833,17.458333 18.9375,17.75 C18.270833,17.916667 17.166667,18.0625 15.625,18.1875 C14.458333,18.3125 13.583333,18.4375 13,18.5625 C12.041667,18.729167 11.25,18.958333 10.625,19.25 C10.375,19.375 10.166667,19.5 10,19.625 L10,19.625 L10,9.875 C11.166667,9.66666698 12.125,9.10416698 12.875,8.1875 C13.625,7.27083302 14,6.20833302 14,5 C14,3.625 13.510417,2.44791698 12.53125,1.46875 C11.552083,0.489583015 10.375,0 9,0 C7.625,0 6.44791698,0.489583015 5.46875,1.46875 C4.48958302,2.44791698 4,3.625 4,5 C4,6.20833302 4.375,7.27083302 5.125,8.1875 C5.875,9.10416698 6.83333302,9.66666698 8,9.875 L8,9.875 L8,22.125 C6.83333302,22.333333 5.875,22.895833 5.125,23.8125 C4.375,24.729167 4,25.791667 4,27 C4,28.375 4.48958302,29.552083 5.46875,30.53125 C6.44791698,31.510417 7.625,32 9,32 Z M9,8 C8.16666698,8 7.45833302,7.70833302 6.875,7.125 C6.29166698,6.54166698 6,5.83333302 6,5 C6,4.16666698 6.29166698,3.45833302 6.875,2.875 C7.45833302,2.29166698 8.16666698,2 9,2 C9.83333302,2 10.541667,2.29166698 11.125,2.875 C11.708333,3.45833302 12,4.16666698 12,5 C12,5.83333302 11.708333,6.54166698 11.125,7.125 C10.541667,7.70833302 9.83333302,8 9,8 Z M23,12 C22.166667,12 21.458333,11.708333 20.875,11.125 C20.291667,10.541667 20,9.83333302 20,9 C20,8.16666698 20.291667,7.45833302 20.875,6.875 C21.458333,6.29166698 22.166667,6 23,6 C23.833333,6 24.541667,6.29166698 25.125,6.875 C25.708333,7.45833302 26,8.16666698 26,9 C26,9.70833302 25.791667,10.322917 25.375,10.84375 C24.958333,11.364583 24.416667,11.729167 23.75,11.9375 L23.75,11.9375 L23.75,11.875 L23,12 Z M9,30 C8.16666698,30 7.45833302,29.708333 6.875,29.125 C6.29166698,28.541667 6,27.833333 6,27 C6,26.166667 6.29166698,25.458333 6.875,24.875 C7.45833302,24.291667 8.16666698,24 9,24 C9.83333302,24 10.541667,24.291667 11.125,24.875 C11.708333,25.458333 12,26.166667 12,27 C12,27.833333 11.708333,28.541667 11.125,29.125 C10.541667,29.708333 9.83333302,30 9,30 Z" id="path-1"></path>
    </defs>
    <g id="Symbols" stroke="none" stroke-width="1" fill="none" fill-rule="evenodd">
        <g id="Atom/Icon/Code-Branch">
            <rect id="Frame" x="0" y="0" width="30" height="40"></rect>
            <mask id="mask-2" fill="white">
                <use xlink:href="#path-1"></use>
            </mask>
            <use id="Icon" fill="#FFFFFF" fill-rule="nonzero" xlink:href="#path-1"></use>
           
        </g>
    </g>
</svg>