<?xml version="1.0" encoding="UTF-8"?>
<svg width="48px" height="49.5px" viewBox="0 0 36 36" version="1.1" xmlns="http://www.w3.org/2000/svg" xmlns:xlink="http://www.w3.org/1999/xlink">
    <title>EF3D2F35-AC21-4114-94BE-DCA20662C40B@3x</title>
    <defs>
        <path d="M19.8460962,32.5554624 C20.5720254,32.3849081 21.0849735,31.7413498 21.0849735,31.0007868 L21.0849735,28.4982191 C21.9256403,28.1474296 23.1969164,27.417782 23.9226492,26.8696042 L26.1050185,28.1202708 C26.7497872,28.4897726 27.5663675,28.3723013 28.0780066,27.8352989 C29.8447551,25.9812275 31.182596,23.7204896 31.9341824,21.2090206 C32.1452,20.5038029 31.835677,19.7471265 31.1938537,19.379314 L29.0082118,18.1266982 C29.0650897,17.6794886 29.1112334,16.9507507 29.1112334,16.4999675 C29.1112334,16.0492493 29.0650897,15.3205114 29.0082118,14.8733018 L31.1938537,13.620686 C31.835677,13.2529384 32.1452,12.4961971 31.9341824,11.7909794 C31.182596,9.27944547 29.8447551,7.01877254 28.0780066,5.16470107 C27.5663675,4.62776363 26.7497872,4.51029232 26.1050185,4.87979416 L23.9226492,6.13046075 C23.1969164,5.582218 21.9256403,4.85257045 21.0849735,4.50178085 L21.0849735,1.99921319 C21.0849735,1.25871513 20.5720909,0.615091915 19.8460962,0.444537611 C17.3231142,-0.148146717 14.6774095,-0.14821169 12.1539038,0.444537611 C11.4279746,0.615091915 10.9150265,1.25865016 10.9150265,1.99921319 L10.9150265,4.50178085 C10.0742943,4.85257045 8.80301818,5.582218 8.07735077,6.13046075 L5.89498146,4.87979416 C5.25014739,4.51029232 4.43356701,4.62776363 3.92199341,5.16470107 C2.15524492,7.01877254 0.817404036,9.27951045 0.0658175921,11.7909794 C-0.145199973,12.4961971 0.164323,13.2528735 0.806146275,13.620686 L2.99178819,14.8733018 C2.93491032,15.3205114 2.88876659,16.0492493 2.88876659,16.4999675 C2.88876659,16.9507507 2.93491032,17.6794886 2.99178819,18.1266982 L0.806146275,19.379314 C0.164323,19.7470616 -0.145199973,20.5038029 0.0658175921,21.2090206 C0.817404036,23.7204896 2.15524492,25.9812275 3.92199341,27.8352989 C4.43363246,28.3722364 5.25021284,28.4897077 5.89498146,28.1202708 L8.07735077,26.8696042 C8.80301818,27.417847 10.0742943,28.1474296 10.9150265,28.4982191 L10.9150265,31.0007868 C10.9150265,31.7412849 11.4279091,32.3849081 12.1539038,32.5554624 C14.6769513,33.1481467 17.3225905,33.1482117 19.8460962,32.5554624 Z M16,30.8718802 C15.1800161,30.8718802 13.8627926,30.7384256 13.0597608,30.5739787 L13.0597608,27.0158586 C10.806376,26.2255262 10.1540149,25.8585583 8.29851341,24.2841309 L5.19477491,26.0632235 C3.87375521,24.5935327 2.86978548,22.8703819 2.25047773,21.0095533 L5.35559072,19.2304607 C4.91765073,16.8740824 4.91738892,16.1270871 5.35559072,13.7695393 L2.25047773,11.9904467 C2.86978548,10.1296181 3.87382067,8.40640236 5.19477491,6.93606183 L8.29851341,8.71645384 C10.1333975,7.1573601 10.7826169,6.78272538 13.0597608,5.98407643 L13.0597608,2.42602127 C13.8627926,2.26131454 15.1800161,2.12766494 16,2.12766494 C16.8199839,2.12766494 18.1372074,2.26131454 18.9402392,2.42602127 L18.9402392,5.9841414 C21.217514,6.78285533 21.8667988,7.15755501 23.7014866,8.71651881 L26.8052251,6.9361268 C28.1261793,8.40640236 29.1302145,10.1296181 29.7495223,11.9905117 L26.6444093,13.7696043 C27.0824147,16.1265673 27.0826111,16.8729779 26.6444093,19.2305257 L29.7495223,21.0096182 C29.1302145,22.8703819 28.1262448,24.5935976 26.8052251,26.0632235 L23.7014866,24.2841309 C21.8926524,25.8191197 21.2511564,26.2053196 18.9402392,27.0158586 L18.9402392,30.5739787 C18.1372074,30.7384256 16.8199839,30.8718802 16,30.8718802 Z M16,22.887145 C19.547831,22.887145 22.4342031,20.0218976 22.4342031,16.5000325 C22.4342031,12.9781673 19.547831,10.11292 16,10.11292 C12.452169,10.11292 9.56579694,12.9781673 9.56579694,16.5000325 C9.56579694,20.0218976 12.452169,22.887145 16,22.887145 Z M16,20.7581075 C13.6347575,20.7581075 11.7105313,18.8479643 11.7105313,16.5000325 C11.7105313,14.1521007 13.6347575,12.2419575 16,12.2419575 C18.3652425,12.2419575 20.2894687,14.1521007 20.2894687,16.5000325 C20.2894687,18.8479643 18.3652425,20.7581075 16,20.7581075 Z M19.8460962,32.5554624 C20.5720254,32.3849081 21.0849735,31.7413498 21.0849735,31.0007868 L21.0849735,28.4982191 C21.9256403,28.1474296 23.1969164,27.417782 23.9226492,26.8696042 L26.1050185,28.1202708 C26.7497872,28.4897726 27.5663675,28.3723013 28.0780066,27.8352989 C29.8447551,25.9812275 31.182596,23.7204896 31.9341824,21.2090206 C32.1452,20.5038029 31.835677,19.7471265 31.1938537,19.379314 L29.0082118,18.1266982 C29.0650897,17.6794886 29.1112334,16.9507507 29.1112334,16.4999675 C29.1112334,16.0492493 29.0650897,15.3205114 29.0082118,14.8733018 L31.1938537,13.620686 C31.835677,13.2529384 32.1452,12.4961971 31.9341824,11.7909794 C31.182596,9.27944547 29.8447551,7.01877254 28.0780066,5.16470107 C27.5663675,4.62776363 26.7497872,4.51029232 26.1050185,4.87979416 L23.9226492,6.13046075 C23.1969164,5.582218 21.9256403,4.85257045 21.0849735,4.50178085 L21.0849735,1.99921319 C21.0849735,1.25871513 20.5720909,0.615091915 19.8460962,0.444537611 C17.3231142,-0.148146717 14.6774095,-0.14821169 12.1539038,0.444537611 C11.4279746,0.615091915 10.9150265,1.25865016 10.9150265,1.99921319 L10.9150265,4.50178085 C10.0742943,4.85257045 8.80301818,5.582218 8.07735077,6.13046075 L5.89498146,4.87979416 C5.25014739,4.51029232 4.43356701,4.62776363 3.92199341,5.16470107 C2.15524492,7.01877254 0.817404036,9.27951045 0.0658175921,11.7909794 C-0.145199973,12.4961971 0.164323,13.2528735 0.806146275,13.620686 L2.99178819,14.8733018 C2.93491032,15.3205114 2.88876659,16.0492493 2.88876659,16.4999675 C2.88876659,16.9507507 2.93491032,17.6794886 2.99178819,18.1266982 L0.806146275,19.379314 C0.164323,19.7470616 -0.145199973,20.5038029 0.0658175921,21.2090206 C0.817404036,23.7204896 2.15524492,25.9812275 3.92199341,27.8352989 C4.43363246,28.3722364 5.25021284,28.4897077 5.89498146,28.1202708 L8.07735077,26.8696042 C8.80301818,27.417847 10.0742943,28.1474296 10.9150265,28.4982191 L10.9150265,31.0007868 C10.9150265,31.7412849 11.4279091,32.3849081 12.1539038,32.5554624 C14.6769513,33.1481467 17.3225905,33.1482117 19.8460962,32.5554624 Z M16,30.8718802 C15.1800161,30.8718802 13.8627926,30.7384256 13.0597608,30.5739787 L13.0597608,27.0158586 C10.806376,26.2255262 10.1540149,25.8585583 8.29851341,24.2841309 L5.19477491,26.0632235 C3.87375521,24.5935327 2.86978548,22.8703819 2.25047773,21.0095533 L5.35559072,19.2304607 C4.91765073,16.8740824 4.91738892,16.1270871 5.35559072,13.7695393 L2.25047773,11.9904467 C2.86978548,10.1296181 3.87382067,8.40640236 5.19477491,6.93606183 L8.29851341,8.71645384 C10.1333975,7.1573601 10.7826169,6.78272538 13.0597608,5.98407643 L13.0597608,2.42602127 C13.8627926,2.26131454 15.1800161,2.12766494 16,2.12766494 C16.8199839,2.12766494 18.1372074,2.26131454 18.9402392,2.42602127 L18.9402392,5.9841414 C21.217514,6.78285533 21.8667988,7.15755501 23.7014866,8.71651881 L26.8052251,6.9361268 C28.1261793,8.40640236 29.1302145,10.1296181 29.7495223,11.9905117 L26.6444093,13.7696043 C27.0824147,16.1265673 27.0826111,16.8729779 26.6444093,19.2305257 L29.7495223,21.0096182 C29.1302145,22.8703819 28.1262448,24.5935976 26.8052251,26.0632235 L23.7014866,24.2841309 C21.8926524,25.8191197 21.2511564,26.2053196 18.9402392,27.0158586 L18.9402392,30.5739787 C18.1372074,30.7384256 16.8199839,30.8718802 16,30.8718802 Z M16,22.887145 C19.547831,22.887145 22.4342031,20.0218976 22.4342031,16.5000325 C22.4342031,12.9781673 19.547831,10.11292 16,10.11292 C12.452169,10.11292 9.56579694,12.9781673 9.56579694,16.5000325 C9.56579694,20.0218976 12.452169,22.887145 16,22.887145 Z M16,20.7581075 C13.6347575,20.7581075 11.7105313,18.8479643 11.7105313,16.5000325 C11.7105313,14.1521007 13.6347575,12.2419575 16,12.2419575 C18.3652425,12.2419575 20.2894687,14.1521007 20.2894687,16.5000325 C20.2894687,18.8479643 18.3652425,20.7581075 16,20.7581075 Z" id="path-1"></path>
    </defs>
    <g id="Symbols" stroke="none" stroke-width="1" fill="none" fill-rule="evenodd">
        <g id="Atom/Icon/Cog">
            <rect id="Frame" x="0" y="0" width="48" height="49.5"></rect>
            <mask id="mask-2" fill="white">
                <use xlink:href="#path-1"></use>
            </mask>
            <use id="Icon" fill="#FFFFFF" fill-rule="nonzero" xlink:href="#path-1"></use>
            <g id="Group" mask="url(#mask-2)">
                <g transform="translate(-34.000000, -33.840376)">
                    <rect id="Colour/Primary/Teal" fill="#FFFFFF" x="0" y="0" width="100" height="100"></rect>
                </g>
            </g>
        </g>
    </g>
</svg>