<?xml version="1.0" encoding="UTF-8"?>
<svg width="30px" height="40px" viewBox="0 0 32 32" version="1.1" xmlns="http://www.w3.org/2000/svg" xmlns:xlink="http://www.w3.org/1999/xlink">
    <title>1F9C17DB-B062-4511-B8F4-BF8FB3C56299@3x</title>
    <defs>
        <path d="M22.4285714,18.6666667 C22.5277776,18.6666667 22.6121033,18.6269843 22.6815476,18.547619 C22.7509919,18.4682538 22.7857143,18.3789681 22.7857143,18.2797619 C22.7261905,17.1686509 22.40873,16.1468252 21.8333333,15.2142857 C21.2579367,14.2817462 20.5039681,13.5277776 19.5714286,12.952381 C18.638889,12.3769843 17.6170633,12.0595238 16.5059524,12 C16.4067462,12 16.3174605,12.0347224 16.2380952,12.1041667 C16.15873,12.173611 16.1190476,12.2579367 16.1190476,12.3571429 L16.1190476,12.3571429 L16.1190476,18.6666667 L22.4285714,18.6666667 Z M12.4583333,25.6904762 C13.6289681,26.2261905 14.8293652,26.4146824 16.0595238,26.2559524 C17.388889,26.077381 18.5694443,25.5317462 19.6011905,24.6190476 C19.6805557,24.5396824 19.7202381,24.4503967 19.7202381,24.3511905 C19.7202381,24.2519843 19.6904762,24.1626986 19.6309524,24.0833333 L19.6309524,24.0833333 L15.1666667,19.6190476 L15.1666667,13.3095238 C15.1666667,13.2103176 15.1269843,13.1259919 15.047619,13.0565476 C14.9682538,12.9871033 14.8789681,12.952381 14.7797619,12.952381 C13.6289681,13.0317462 12.5724205,13.3740081 11.610119,13.9791667 C10.6478176,14.5843252 9.88888904,15.3829367 9.33333333,16.375 C8.77777763,17.3670633 8.5,18.4484128 8.5,19.6190476 C8.5,20.9880952 8.87698428,22.2281748 9.63095238,23.3392857 C10.3452381,24.3710319 11.2876986,25.1547619 12.4583333,25.6904762 Z M21.7738095,17.7142857 L17.0714286,17.7142857 L17.0714286,13.0119048 C18.2619048,13.2103176 19.2936509,13.7460319 20.1666667,14.6190476 C21.0396824,15.4920633 21.5753967,16.5238095 21.7738095,17.7142857 L21.7738095,17.7142857 Z M15.4940476,25.3333333 C14.4623014,25.3928571 13.485119,25.1845238 12.5625,24.7083333 C11.639881,24.2321429 10.9007938,23.5575395 10.3452381,22.6845238 C9.75,21.7718252 9.45238095,20.75 9.45238095,19.6190476 C9.45238095,18.6865081 9.66071429,17.8134919 10.077381,17 C10.4940476,16.1865081 11.0694443,15.5168652 11.8035714,14.9910714 C12.5376986,14.4652776 13.34127,14.1230157 14.2142857,13.9642857 L14.2142857,13.9642857 L14.2142857,19.827381 C14.2142857,19.9265872 14.2192462,19.986111 14.2291667,20.0059524 C14.2390872,20.0257938 14.28373,20.0753967 14.3630952,20.1547619 L14.3630952,20.1547619 L18.4702381,24.2916667 C17.577381,24.9464286 16.5853176,25.2936509 15.4940476,25.3333333 Z M21.5654762,24.202381 C21.6646824,24.202381 21.7539681,24.1626986 21.8333333,24.0833333 C22.3293652,23.5079367 22.72123,22.8680557 23.0089286,22.1636905 C23.2966271,21.4593252 23.4603176,20.7400795 23.5,20.0059524 C23.5,19.9067462 23.4652776,19.8174605 23.3958333,19.7380952 C23.326389,19.65873 23.2420633,19.6190476 23.1428571,19.6190476 L23.1428571,19.6190476 L16.8333333,19.6190476 L21.297619,24.0833333 C21.3769843,24.1626986 21.46627,24.202381 21.5654762,24.202381 Z M21.5059524,22.952381 L19.125,20.5714286 L22.4880952,20.5714286 C22.3293652,21.4444443 22.0019843,22.2380952 21.5059524,22.952381 L21.5059524,22.952381 Z M22.4285714,18.6666667 C22.5277776,18.6666667 22.6121033,18.6269843 22.6815476,18.547619 C22.7509919,18.4682538 22.7857143,18.3789681 22.7857143,18.2797619 C22.7261905,17.1686509 22.40873,16.1468252 21.8333333,15.2142857 C21.2579367,14.2817462 20.5039681,13.5277776 19.5714286,12.952381 C18.638889,12.3769843 17.6170633,12.0595238 16.5059524,12 C16.4067462,12 16.3174605,12.0347224 16.2380952,12.1041667 C16.15873,12.173611 16.1190476,12.2579367 16.1190476,12.3571429 L16.1190476,12.3571429 L16.1190476,18.6666667 L22.4285714,18.6666667 Z M12.4583333,25.6904762 C13.6289681,26.2261905 14.8293652,26.4146824 16.0595238,26.2559524 C17.388889,26.077381 18.5694443,25.5317462 19.6011905,24.6190476 C19.6805557,24.5396824 19.7202381,24.4503967 19.7202381,24.3511905 C19.7202381,24.2519843 19.6904762,24.1626986 19.6309524,24.0833333 L19.6309524,24.0833333 L15.1666667,19.6190476 L15.1666667,13.3095238 C15.1666667,13.2103176 15.1269843,13.1259919 15.047619,13.0565476 C14.9682538,12.9871033 14.8789681,12.952381 14.7797619,12.952381 C13.6289681,13.0317462 12.5724205,13.3740081 11.610119,13.9791667 C10.6478176,14.5843252 9.88888904,15.3829367 9.33333333,16.375 C8.77777763,17.3670633 8.5,18.4484128 8.5,19.6190476 C8.5,20.9880952 8.87698428,22.2281748 9.63095238,23.3392857 C10.3452381,24.3710319 11.2876986,25.1547619 12.4583333,25.6904762 Z M21.7738095,17.7142857 L17.0714286,17.7142857 L17.0714286,13.0119048 C18.2619048,13.2103176 19.2936509,13.7460319 20.1666667,14.6190476 C21.0396824,15.4920633 21.5753967,16.5238095 21.7738095,17.7142857 L21.7738095,17.7142857 Z M15.4940476,25.3333333 C14.4623014,25.3928571 13.485119,25.1845238 12.5625,24.7083333 C11.639881,24.2321429 10.9007938,23.5575395 10.3452381,22.6845238 C9.75,21.7718252 9.45238095,20.75 9.45238095,19.6190476 C9.45238095,18.6865081 9.66071429,17.8134919 10.077381,17 C10.4940476,16.1865081 11.0694443,15.5168652 11.8035714,14.9910714 C12.5376986,14.4652776 13.34127,14.1230157 14.2142857,13.9642857 L14.2142857,13.9642857 L14.2142857,19.827381 C14.2142857,19.9265872 14.2192462,19.986111 14.2291667,20.0059524 C14.2390872,20.0257938 14.28373,20.0753967 14.3630952,20.1547619 L14.3630952,20.1547619 L18.4702381,24.2916667 C17.577381,24.9464286 16.5853176,25.2936509 15.4940476,25.3333333 Z M21.5654762,24.202381 C21.6646824,24.202381 21.7539681,24.1626986 21.8333333,24.0833333 C22.3293652,23.5079367 22.72123,22.8680557 23.0089286,22.1636905 C23.2966271,21.4593252 23.4603176,20.7400795 23.5,20.0059524 C23.5,19.9067462 23.4652776,19.8174605 23.3958333,19.7380952 C23.326389,19.65873 23.2420633,19.6190476 23.1428571,19.6190476 L23.1428571,19.6190476 L16.8333333,19.6190476 L21.297619,24.0833333 C21.3769843,24.1626986 21.46627,24.202381 21.5654762,24.202381 Z M21.5059524,22.952381 L19.125,20.5714286 L22.4880952,20.5714286 C22.3293652,21.4444443 22.0019843,22.2380952 21.5059524,22.952381 L21.5059524,22.952381 Z M25,32 C25.833333,32 26.541667,31.708333 27.125,31.125 C27.708333,30.541667 28,29.833333 28,29 L28,29 L28,8.25 C28,7.41666698 27.708333,6.70833302 27.125,6.125 L27.125,6.125 L21.875,0.875 C21.291667,0.291666985 20.583333,0 19.75,0 L19.75,0 L7,0 C6.16666698,0 5.45833302,0.291666985 4.875,0.875 C4.29166698,1.45833302 4,2.16666698 4,3 L4,3 L4,29 C4,29.833333 4.29166698,30.541667 4.875,31.125 C5.45833302,31.708333 6.16666698,32 7,32 L7,32 L25,32 Z M26,8 L20,8 L20,2 C20.166667,2.08333302 20.3125,2.1875 20.4375,2.3125 L20.4375,2.3125 L25.6875,7.5625 C25.8125,7.6875 25.916667,7.83333302 26,8 L26,8 Z M25,30 L7,30 C6.70833302,30 6.46875,29.90625 6.28125,29.71875 C6.09375,29.53125 6,29.291667 6,29 L6,29 L6,3 C6,2.70833302 6.09375,2.46875 6.28125,2.28125 C6.46875,2.09375 6.70833302,2 7,2 L7,2 L18,2 L18,8.5 C18,8.91666698 18.145833,9.27083302 18.4375,9.5625 C18.729167,9.85416698 19.083333,10 19.5,10 L19.5,10 L26,10 L26,29 C26,29.291667 25.90625,29.53125 25.71875,29.71875 C25.53125,29.90625 25.291667,30 25,30 L25,30 Z M25,32 C25.833333,32 26.541667,31.708333 27.125,31.125 C27.708333,30.541667 28,29.833333 28,29 L28,29 L28,8.25 C28,7.41666698 27.708333,6.70833302 27.125,6.125 L27.125,6.125 L21.875,0.875 C21.291667,0.291666985 20.583333,0 19.75,0 L19.75,0 L7,0 C6.16666698,0 5.45833302,0.291666985 4.875,0.875 C4.29166698,1.45833302 4,2.16666698 4,3 L4,3 L4,29 C4,29.833333 4.29166698,30.541667 4.875,31.125 C5.45833302,31.708333 6.16666698,32 7,32 L7,32 L25,32 Z M26,8 L20,8 L20,2 C20.166667,2.08333302 20.3125,2.1875 20.4375,2.3125 L20.4375,2.3125 L25.6875,7.5625 C25.8125,7.6875 25.916667,7.83333302 26,8 L26,8 Z M25,30 L7,30 C6.70833302,30 6.46875,29.90625 6.28125,29.71875 C6.09375,29.53125 6,29.291667 6,29 L6,29 L6,3 C6,2.70833302 6.09375,2.46875 6.28125,2.28125 C6.46875,2.09375 6.70833302,2 7,2 L7,2 L18,2 L18,8.5 C18,8.91666698 18.145833,9.27083302 18.4375,9.5625 C18.729167,9.85416698 19.083333,10 19.5,10 L19.5,10 L26,10 L26,29 C26,29.291667 25.90625,29.53125 25.71875,29.71875 C25.53125,29.90625 25.291667,30 25,30 L25,30 Z" id="path-1"></path>
    </defs>
    <g id="Symbols" stroke="none" stroke-width="1" fill="none" fill-rule="evenodd">
        <g id="Atom/Icon/Chart-Document">
            <rect id="Frame" x="0" y="0" width="30" height="40"></rect>
            <mask id="mask-2" fill="white">
                <use xlink:href="#path-1"></use>
            </mask>
            <use id="Icon" fill="#70ada3" fill-rule="nonzero" xlink:href="#path-1"></use>
            <g id="Group" mask="url(#mask-2)">
                <g transform="translate(-34.000000, -33.840376)">
                    <rect id="Colour/General/White" fill="#70ada3" x="0" y="0" width="100" height="100"></rect>
                </g>
            </g>
        </g>
    </g>
</svg>