<?xml version="1.0" encoding="UTF-8"?>
<svg width="48px" height="48px" viewBox="0 0 32 32" version="1.1" xmlns="http://www.w3.org/2000/svg" xmlns:xlink="http://www.w3.org/1999/xlink">
    <title>3F1ED13D-F6D5-459C-ACCF-EA785F517EFE@3x</title>
    <defs>
        <path d="M22.625,27 C23,27 23.3229165,26.8645835 23.59375,26.59375 C23.8645835,26.3229165 24,26 24,25.625 L24,22.375 C24,22 23.8645835,21.6770835 23.59375,21.40625 C23.3229165,21.1354165 23,21 22.625,21 L19.53125,21 L21.28125,19.25 C21.53125,18.9791665 21.6510415,18.6770835 21.640625,18.34375 C21.6302085,18.0104165 21.5104165,17.71875 21.28125,17.46875 C21.0520835,17.21875 20.7604165,17.09375 20.40625,17.09375 L18.75,17.09375 L18.75,12.25 C18.75,11.8958335 18.6302085,11.5989585 18.390625,11.359375 C18.1510415,11.1197915 17.8541665,11 17.5,11 L14.5,11 C14.1458335,11 13.8489585,11.1197915 13.609375,11.359375 C13.3697915,11.5989585 13.25,11.8958335 13.25,12.25 L13.25,17.09375 L11.59375,17.09375 C11.2395835,17.09375 10.9479165,17.21875 10.71875,17.46875 C10.4895835,17.71875 10.3697915,18.0104165 10.359375,18.34375 C10.3489585,18.6770835 10.46875,18.9791665 10.71875,19.25 L12.46875,21 L9.375,21 C9,21 8.67708349,21.1354165 8.40625,21.40625 C8.13541651,21.6770835 8,22 8,22.375 L8,25.625 C8,26 8.13541651,26.3229165 8.40625,26.59375 C8.67708349,26.8645835 9,27 9.375,27 L22.625,27 Z M16,23 C15.9375,23 15.875,22.9791665 15.8125,22.9375 L11.4375,18.53125 C11.3541667,18.4479165 11.3333335,18.3541665 11.375,18.25 C11.4166665,18.1458335 11.4895835,18.09375 11.59375,18.09375 L14.25,18.09375 L14.25,12.25 C14.25,12.1875 14.2760415,12.1302085 14.328125,12.078125 C14.3802085,12.0260415 14.4375,12 14.5,12 L17.5,12 C17.5625,12 17.6197915,12.0260415 17.671875,12.078125 C17.7239585,12.1302085 17.75,12.1875 17.75,12.25 L17.75,18.09375 L20.40625,18.09375 C20.5104165,18.09375 20.5833335,18.1458335 20.625,18.25 C20.6666665,18.3541665 20.6458333,18.4479165 20.5625,18.53125 L16.1875,22.9375 C16.125,22.9791665 16.0625,23 16,23 Z M22.625,26 L9.375,26 C9.27083349,26 9.18229151,25.9635415 9.109375,25.890625 C9.03645849,25.8177085 9,25.7291665 9,25.625 L9,22.375 C9,22.2708335 9.03645849,22.1822915 9.109375,22.109375 C9.18229151,22.0364585 9.27083349,22 9.375,22 L13.46875,22 L15.125,23.625 C15.3541665,23.875 15.6458335,24 16,24 C16.3541665,24 16.6458335,23.875 16.875,23.625 L18.53125,22 L22.625,22 C22.7291665,22 22.8177085,22.0364585 22.890625,22.109375 C22.9635415,22.1822915 23,22.2708335 23,22.375 L23,25.625 C23,25.7291665 22.9635415,25.8177085 22.890625,25.890625 C22.8177085,25.9635415 22.7291665,26 22.625,26 Z M22.625,27 C23,27 23.3229165,26.8645835 23.59375,26.59375 C23.8645835,26.3229165 24,26 24,25.625 L24,22.375 C24,22 23.8645835,21.6770835 23.59375,21.40625 C23.3229165,21.1354165 23,21 22.625,21 L19.53125,21 L21.28125,19.25 C21.53125,18.9791665 21.6510415,18.6770835 21.640625,18.34375 C21.6302085,18.0104165 21.5104165,17.71875 21.28125,17.46875 C21.0520835,17.21875 20.7604165,17.09375 20.40625,17.09375 L18.75,17.09375 L18.75,12.25 C18.75,11.8958335 18.6302085,11.5989585 18.390625,11.359375 C18.1510415,11.1197915 17.8541665,11 17.5,11 L14.5,11 C14.1458335,11 13.8489585,11.1197915 13.609375,11.359375 C13.3697915,11.5989585 13.25,11.8958335 13.25,12.25 L13.25,17.09375 L11.59375,17.09375 C11.2395835,17.09375 10.9479165,17.21875 10.71875,17.46875 C10.4895835,17.71875 10.3697915,18.0104165 10.359375,18.34375 C10.3489585,18.6770835 10.46875,18.9791665 10.71875,19.25 L12.46875,21 L9.375,21 C9,21 8.67708349,21.1354165 8.40625,21.40625 C8.13541651,21.6770835 8,22 8,22.375 L8,25.625 C8,26 8.13541651,26.3229165 8.40625,26.59375 C8.67708349,26.8645835 9,27 9.375,27 L22.625,27 Z M16,23 C15.9375,23 15.875,22.9791665 15.8125,22.9375 L11.4375,18.53125 C11.3541667,18.4479165 11.3333335,18.3541665 11.375,18.25 C11.4166665,18.1458335 11.4895835,18.09375 11.59375,18.09375 L14.25,18.09375 L14.25,12.25 C14.25,12.1875 14.2760415,12.1302085 14.328125,12.078125 C14.3802085,12.0260415 14.4375,12 14.5,12 L17.5,12 C17.5625,12 17.6197915,12.0260415 17.671875,12.078125 C17.7239585,12.1302085 17.75,12.1875 17.75,12.25 L17.75,18.09375 L20.40625,18.09375 C20.5104165,18.09375 20.5833335,18.1458335 20.625,18.25 C20.6666665,18.3541665 20.6458333,18.4479165 20.5625,18.53125 L16.1875,22.9375 C16.125,22.9791665 16.0625,23 16,23 Z M22.625,26 L9.375,26 C9.27083349,26 9.18229151,25.9635415 9.109375,25.890625 C9.03645849,25.8177085 9,25.7291665 9,25.625 L9,22.375 C9,22.2708335 9.03645849,22.1822915 9.109375,22.109375 C9.18229151,22.0364585 9.27083349,22 9.375,22 L13.46875,22 L15.125,23.625 C15.3541665,23.875 15.6458335,24 16,24 C16.3541665,24 16.6458335,23.875 16.875,23.625 L18.53125,22 L22.625,22 C22.7291665,22 22.8177085,22.0364585 22.890625,22.109375 C22.9635415,22.1822915 23,22.2708335 23,22.375 L23,25.625 C23,25.7291665 22.9635415,25.8177085 22.890625,25.890625 C22.8177085,25.9635415 22.7291665,26 22.625,26 Z M25,32 C25.833333,32 26.541667,31.708333 27.125,31.125 C27.708333,30.541667 28,29.833333 28,29 L28,29 L28,8.25 C28,7.41666698 27.708333,6.70833302 27.125,6.125 L27.125,6.125 L21.875,0.875 C21.291667,0.291666985 20.583333,0 19.75,0 L19.75,0 L7,0 C6.16666698,0 5.45833302,0.291666985 4.875,0.875 C4.29166698,1.45833302 4,2.16666698 4,3 L4,3 L4,29 C4,29.833333 4.29166698,30.541667 4.875,31.125 C5.45833302,31.708333 6.16666698,32 7,32 L7,32 L25,32 Z M26,8 L20,8 L20,2 C20.166667,2.08333302 20.3125,2.1875 20.4375,2.3125 L20.4375,2.3125 L25.6875,7.5625 C25.8125,7.6875 25.916667,7.83333302 26,8 L26,8 Z M25,30 L7,30 C6.70833302,30 6.46875,29.90625 6.28125,29.71875 C6.09375,29.53125 6,29.291667 6,29 L6,29 L6,3 C6,2.70833302 6.09375,2.46875 6.28125,2.28125 C6.46875,2.09375 6.70833302,2 7,2 L7,2 L18,2 L18,8.5 C18,8.91666698 18.145833,9.27083302 18.4375,9.5625 C18.729167,9.85416698 19.083333,10 19.5,10 L19.5,10 L26,10 L26,29 C26,29.291667 25.90625,29.53125 25.71875,29.71875 C25.53125,29.90625 25.291667,30 25,30 L25,30 Z M25,32 C25.833333,32 26.541667,31.708333 27.125,31.125 C27.708333,30.541667 28,29.833333 28,29 L28,29 L28,8.25 C28,7.41666698 27.708333,6.70833302 27.125,6.125 L27.125,6.125 L21.875,0.875 C21.291667,0.291666985 20.583333,0 19.75,0 L19.75,0 L7,0 C6.16666698,0 5.45833302,0.291666985 4.875,0.875 C4.29166698,1.45833302 4,2.16666698 4,3 L4,3 L4,29 C4,29.833333 4.29166698,30.541667 4.875,31.125 C5.45833302,31.708333 6.16666698,32 7,32 L7,32 L25,32 Z M26,8 L20,8 L20,2 C20.166667,2.08333302 20.3125,2.1875 20.4375,2.3125 L20.4375,2.3125 L25.6875,7.5625 C25.8125,7.6875 25.916667,7.83333302 26,8 L26,8 Z M25,30 L7,30 C6.70833302,30 6.46875,29.90625 6.28125,29.71875 C6.09375,29.53125 6,29.291667 6,29 L6,29 L6,3 C6,2.70833302 6.09375,2.46875 6.28125,2.28125 C6.46875,2.09375 6.70833302,2 7,2 L7,2 L18,2 L18,8.5 C18,8.91666698 18.145833,9.27083302 18.4375,9.5625 C18.729167,9.85416698 19.083333,10 19.5,10 L19.5,10 L26,10 L26,29 C26,29.291667 25.90625,29.53125 25.71875,29.71875 C25.53125,29.90625 25.291667,30 25,30 L25,30 Z" id="path-1"></path>
    </defs>
    <g id="Symbols" stroke="none" stroke-width="1" fill="none" fill-rule="evenodd">
        <g id="Atom/Icon/File-Download">
            <rect id="Frame" x="0" y="0" width="48" height="48"></rect>
            <mask id="mask-2" fill="white">
                <use xlink:href="#path-1"></use>
            </mask>
            <use id="Icon" fill="#FFFFFF" fill-rule="nonzero" xlink:href="#path-1"></use>
            <g id="Group" mask="url(#mask-2)">
                <g transform="translate(-34.000000, -33.840376)">
                    <rect id="Colour/Primary/Teal" fill="#FFFFFF" x="0" y="0" width="100" height="100"></rect>
                </g>
            </g>
        </g>
    </g>
</svg>