<?xml version="1.0" encoding="UTF-8"?>
<svg width="42px" height="42px" viewBox="0 0 32 32" version="1.1" xmlns="http://www.w3.org/2000/svg" xmlns:xlink="http://www.w3.org/1999/xlink">
    <title>3C2B9E91-2F06-4EFB-87D2-79BF0FC92E3F@3x</title>
    <defs>
        <path d="M29,28 C29.833333,28 30.541667,27.708333 31.125,27.125 C31.708333,26.541667 32,25.833333 32,25 L32,25 L32,7 C32,6.16666698 31.708333,5.45833302 31.125,4.875 C30.541667,4.29166698 29.833333,4 29,4 L29,4 L3,4 C2.16666698,4 1.45833302,4.29166698 0.875,4.875 C0.291666985,5.45833302 0,6.16666698 0,7 L0,7 L0,25 C0,25.833333 0.291666985,26.541667 0.875,27.125 C1.45833302,27.708333 2.16666698,28 3,28 L3,28 L29,28 Z M16,20 C15.458333,20 14.791667,19.729167 14,19.1875 C13.5,18.895833 12.833333,18.395833 12,17.6875 L12,17.6875 L11.4375,17.1875 C6.60416698,13.354167 3.45833302,10.8125 2,9.5625 L2,9.5625 L2,7 C2,6.70833302 2.09375,6.46875 2.28125,6.28125 C2.46875,6.09375 2.70833302,6 3,6 L3,6 L29,6 C29.291667,6 29.53125,6.09375 29.71875,6.28125 C29.90625,6.46875 30,6.70833302 30,7 L30,7 L30,9.5625 C28.541667,10.8125 25.395833,13.354167 20.5625,17.1875 L20.5625,17.1875 L19.9375,17.6875 C19.104167,18.395833 18.458333,18.895833 18,19.1875 C17.208333,19.729167 16.541667,20 16,20 Z M29,26 L3,26 C2.70833302,26 2.46875,25.90625 2.28125,25.71875 C2.09375,25.53125 2,25.291667 2,25 L2,25 L2,12.1875 C3.22806991,13.1699564 5.35734064,14.8763276 8.38781161,17.3066137 L9.56648199,18.2519045 L9.56648199,18.2519045 L10.1875,18.75 L10.8125,19.25 C11.770833,20.083333 12.5625,20.6875 13.1875,21.0625 C14.229167,21.6875 15.166667,22 16,22 C16.833333,22 17.770833,21.6875 18.8125,21.0625 C19.395833,20.6875 20.1875,20.083333 21.1875,19.25 L21.1875,19.25 L21.8125,18.75 C22.0230263,18.5811404 22.2300323,18.4151085 22.433518,18.2519045 L23.6121884,17.3066137 C26.6426594,14.8763276 28.7719301,13.1699564 30,12.1875 L30,12.1875 L30,25 C30,25.291667 29.90625,25.53125 29.71875,25.71875 C29.53125,25.90625 29.291667,26 29,26 L29,26 Z M29,28 C29.833333,28 30.541667,27.708333 31.125,27.125 C31.708333,26.541667 32,25.833333 32,25 L32,25 L32,7 C32,6.16666698 31.708333,5.45833302 31.125,4.875 C30.541667,4.29166698 29.833333,4 29,4 L29,4 L3,4 C2.16666698,4 1.45833302,4.29166698 0.875,4.875 C0.291666985,5.45833302 0,6.16666698 0,7 L0,7 L0,25 C0,25.833333 0.291666985,26.541667 0.875,27.125 C1.45833302,27.708333 2.16666698,28 3,28 L3,28 L29,28 Z M16,20 C15.458333,20 14.791667,19.729167 14,19.1875 C13.5,18.895833 12.833333,18.395833 12,17.6875 L12,17.6875 L11.4375,17.1875 C6.60416698,13.354167 3.45833302,10.8125 2,9.5625 L2,9.5625 L2,7 C2,6.70833302 2.09375,6.46875 2.28125,6.28125 C2.46875,6.09375 2.70833302,6 3,6 L3,6 L29,6 C29.291667,6 29.53125,6.09375 29.71875,6.28125 C29.90625,6.46875 30,6.70833302 30,7 L30,7 L30,9.5625 C28.541667,10.8125 25.395833,13.354167 20.5625,17.1875 L20.5625,17.1875 L19.9375,17.6875 C19.104167,18.395833 18.458333,18.895833 18,19.1875 C17.208333,19.729167 16.541667,20 16,20 Z M29,26 L3,26 C2.70833302,26 2.46875,25.90625 2.28125,25.71875 C2.09375,25.53125 2,25.291667 2,25 L2,25 L2,12.1875 C3.22806991,13.1699564 5.35734064,14.8763276 8.38781161,17.3066137 L9.56648199,18.2519045 L9.56648199,18.2519045 L10.1875,18.75 L10.8125,19.25 C11.770833,20.083333 12.5625,20.6875 13.1875,21.0625 C14.229167,21.6875 15.166667,22 16,22 C16.833333,22 17.770833,21.6875 18.8125,21.0625 C19.395833,20.6875 20.1875,20.083333 21.1875,19.25 L21.1875,19.25 L21.8125,18.75 C22.0230263,18.5811404 22.2300323,18.4151085 22.433518,18.2519045 L23.6121884,17.3066137 C26.6426594,14.8763276 28.7719301,13.1699564 30,12.1875 L30,12.1875 L30,25 C30,25.291667 29.90625,25.53125 29.71875,25.71875 C29.53125,25.90625 29.291667,26 29,26 L29,26 Z" id="path-1"></path>
    </defs>
    <g id="Symbols" stroke="none" stroke-width="1" fill="none" fill-rule="evenodd">
        <g id="Atom/Icon/Envelope">
            <rect id="Frame" x="0" y="0" width="42" height="42"></rect>
            <mask id="mask-2" fill="white">
                <use xlink:href="#path-1"></use>
            </mask>
            <use id="Icon" fill="#70ada3" fill-rule="nonzero" xlink:href="#path-1"></use>
            <g id="Group" mask="url(#mask-2)">
                <g transform="translate(-34.000000, -33.840376)">
                    <rect id="Colour/General/Black" fill="#70ada3" x="0" y="0" width="100" height="100"></rect>
                </g>
            </g>
        </g>
    </g>
</svg>