<?xml version="1.0" encoding="UTF-8"?>
<svg width="32px" height="32px" viewBox="0 0 32 32" version="1.1" xmlns="http://www.w3.org/2000/svg" xmlns:xlink="http://www.w3.org/1999/xlink">
    <title>CF35DE80-88EC-4E79-B73A-39A11DB49D89@3x</title>
    <defs>
        <path d="M16,32 C18.8817208,32 21.5483871,31.2795696 24,29.8387097 C26.4516129,28.3978498 28.3978498,26.4516129 29.8387097,24 C31.2795696,21.5483871 32,18.8817208 32,16 C32,13.1182792 31.2795696,10.4516129 29.8387097,8 C28.3978498,5.5483871 26.4516129,3.60215021 24,2.16129032 C21.5483871,0.720430436 18.8817208,0 16,0 C13.1182792,0 10.4516129,0.720430436 8,2.16129032 C5.5483871,3.60215021 3.60215021,5.5483871 2.16129032,8 C0.720430436,10.4516129 0,13.1182792 0,16 C0,18.8817208 0.720430436,21.5483871 2.16129032,24 C3.60215021,26.4516129 5.5483871,28.3978498 8,29.8387097 C10.4516129,31.2795696 13.1182792,32 16,32 Z M16,29.9354839 C13.4623659,29.9354839 11.1290323,29.3118276 9,28.0645161 C6.87096774,26.8172046 5.18279537,25.1290323 3.93548387,23 C2.68817237,20.8709677 2.06451613,18.5376341 2.06451613,16 C2.06451613,13.4623659 2.68817237,11.1290323 3.93548387,9 C5.18279537,6.87096774 6.87096774,5.18279537 9,3.93548387 C11.1290323,2.68817237 13.4623659,2.06451613 16,2.06451613 C18.494624,2.06451613 20.8172046,2.68817237 22.9677419,3.93548387 C25.1182792,5.18279537 26.8172046,6.87096774 28.0645161,9 C29.3118276,11.1290323 29.9354839,13.4623659 29.9354839,16 C29.9354839,18.5376341 29.3118276,20.8709677 28.0645161,23 C26.8172046,25.1290323 25.1290323,26.8172046 23,28.0645161 C20.8709677,29.3118276 18.5376341,29.9354839 16,29.9354839 Z M16.2580645,20.1290323 C16.473118,20.1290323 16.6559143,20.0537631 16.8064516,19.9032258 C16.9569889,19.7526885 17.0322581,19.5698921 17.0322581,19.3548387 L17.0322581,19.3548387 L17.483871,8.51612903 C17.526882,8.3010756 17.473118,8.11827924 17.3225806,7.96774194 C17.1720433,7.81720463 16.9677419,7.74193548 16.7096774,7.74193548 L16.7096774,7.74193548 L15.2903226,7.74193548 C15.0322581,7.74193548 14.8279567,7.81720463 14.6774194,7.96774194 C14.526882,8.11827924 14.473118,8.3010756 14.516129,8.51612903 L14.516129,8.51612903 L14.9677419,19.4193548 C14.9677419,19.5913982 15.0430111,19.7526885 15.1935484,19.9032258 C15.3440857,20.0537631 15.526882,20.1290323 15.7419355,20.1290323 L15.7419355,20.1290323 L16.2580645,20.1290323 Z M16,25.0322581 C16.516129,25.0322581 16.9462369,24.8602147 17.2903226,24.516129 C17.6344083,24.1720433 17.8064516,23.7419355 17.8064516,23.2258065 C17.8064516,22.7096774 17.6344083,22.2795696 17.2903226,21.9354839 C16.9462369,21.5913982 16.516129,21.4193548 16,21.4193548 C15.483871,21.4193548 15.0537631,21.5913982 14.7096774,21.9354839 C14.3655917,22.2795696 14.1935484,22.7096774 14.1935484,23.2258065 C14.1935484,23.7419355 14.3655917,24.1720433 14.7096774,24.516129 C15.0537631,24.8602147 15.483871,25.0322581 16,25.0322581 Z M16,32 C18.8817208,32 21.5483871,31.2795696 24,29.8387097 C26.4516129,28.3978498 28.3978498,26.4516129 29.8387097,24 C31.2795696,21.5483871 32,18.8817208 32,16 C32,13.1182792 31.2795696,10.4516129 29.8387097,8 C28.3978498,5.5483871 26.4516129,3.60215021 24,2.16129032 C21.5483871,0.720430436 18.8817208,0 16,0 C13.1182792,0 10.4516129,0.720430436 8,2.16129032 C5.5483871,3.60215021 3.60215021,5.5483871 2.16129032,8 C0.720430436,10.4516129 0,13.1182792 0,16 C0,18.8817208 0.720430436,21.5483871 2.16129032,24 C3.60215021,26.4516129 5.5483871,28.3978498 8,29.8387097 C10.4516129,31.2795696 13.1182792,32 16,32 Z M16,29.9354839 C13.4623659,29.9354839 11.1290323,29.3118276 9,28.0645161 C6.87096774,26.8172046 5.18279537,25.1290323 3.93548387,23 C2.68817237,20.8709677 2.06451613,18.5376341 2.06451613,16 C2.06451613,13.4623659 2.68817237,11.1290323 3.93548387,9 C5.18279537,6.87096774 6.87096774,5.18279537 9,3.93548387 C11.1290323,2.68817237 13.4623659,2.06451613 16,2.06451613 C18.494624,2.06451613 20.8172046,2.68817237 22.9677419,3.93548387 C25.1182792,5.18279537 26.8172046,6.87096774 28.0645161,9 C29.3118276,11.1290323 29.9354839,13.4623659 29.9354839,16 C29.9354839,18.5376341 29.3118276,20.8709677 28.0645161,23 C26.8172046,25.1290323 25.1290323,26.8172046 23,28.0645161 C20.8709677,29.3118276 18.5376341,29.9354839 16,29.9354839 Z M16.2580645,20.1290323 C16.473118,20.1290323 16.6559143,20.0537631 16.8064516,19.9032258 C16.9569889,19.7526885 17.0322581,19.5698921 17.0322581,19.3548387 L17.0322581,19.3548387 L17.483871,8.51612903 C17.526882,8.3010756 17.473118,8.11827924 17.3225806,7.96774194 C17.1720433,7.81720463 16.9677419,7.74193548 16.7096774,7.74193548 L16.7096774,7.74193548 L15.2903226,7.74193548 C15.0322581,7.74193548 14.8279567,7.81720463 14.6774194,7.96774194 C14.526882,8.11827924 14.473118,8.3010756 14.516129,8.51612903 L14.516129,8.51612903 L14.9677419,19.4193548 C14.9677419,19.5913982 15.0430111,19.7526885 15.1935484,19.9032258 C15.3440857,20.0537631 15.526882,20.1290323 15.7419355,20.1290323 L15.7419355,20.1290323 L16.2580645,20.1290323 Z M16,25.0322581 C16.516129,25.0322581 16.9462369,24.8602147 17.2903226,24.516129 C17.6344083,24.1720433 17.8064516,23.7419355 17.8064516,23.2258065 C17.8064516,22.7096774 17.6344083,22.2795696 17.2903226,21.9354839 C16.9462369,21.5913982 16.516129,21.4193548 16,21.4193548 C15.483871,21.4193548 15.0537631,21.5913982 14.7096774,21.9354839 C14.3655917,22.2795696 14.1935484,22.7096774 14.1935484,23.2258065 C14.1935484,23.7419355 14.3655917,24.1720433 14.7096774,24.516129 C15.0537631,24.8602147 15.483871,25.0322581 16,25.0322581 Z" id="path-1"></path>
    </defs>
    <g id="Symbols" stroke="none" stroke-width="1" fill="none" fill-rule="evenodd">
        <g id="Atom/Icon/Circle-Exclamation">
            <rect id="Frame" x="0" y="0" width="32" height="32"></rect>
            <mask id="mask-2" fill="white">
                <use xlink:href="#path-1"></use>
            </mask>
            <use id="Icon" fill="#ffffff" fill-rule="nonzero" xlink:href="#path-1"></use>
            <g id="Group" mask="url(#mask-2)">
                <g transform="translate(-34.000000, -33.840376)">
                    <rect id="Colour/General/Black" fill="#ffffff" x="0" y="0" width="100" height="100"></rect>
                </g>
            </g>
        </g>
    </g>
</svg>