<?xml version="1.0" encoding="UTF-8"?>
<svg width="40px" height="40px" viewBox="0 0 32 32" version="1.1" xmlns="http://www.w3.org/2000/svg" xmlns:xlink="http://www.w3.org/1999/xlink">
    <title>7345D37E-D846-4B22-A77E-A37DD4C8C92F@3x</title>
    <defs>
        <path d="M1.42857143,11.4285714 C1.6666663,11.4285714 1.86904798,11.3452377 2.03571429,11.1785714 C2.20238059,11.0119051 2.28571429,10.8095234 2.28571429,10.5714286 L2.28571429,2.28571429 L10.5714286,2.28571429 C10.8095234,2.28571429 11.0119051,2.20238059 11.1785714,2.03571429 C11.3452377,1.86904798 11.4285714,1.6666663 11.4285714,1.42857143 L11.4285714,0.857142857 C11.4285714,0.619047982 11.3452377,0.416666303 11.1785714,0.25 C11.0119051,0.0833336966 10.8095234,0 10.5714286,0 L1.71428571,0 C1.23809487,0 0.833333697,0.166666303 0.5,0.5 C0.166666303,0.833333697 0,1.23809487 0,1.71428571 L0,10.5714286 C0,10.8095234 0.0833336966,11.0119051 0.25,11.1785714 C0.416666303,11.3452377 0.619047982,11.4285714 0.857142857,11.4285714 L1.42857143,11.4285714 Z M31.1428571,11.4285714 C31.380952,11.4285714 31.5833337,11.3452377 31.75,11.1785714 C31.9166663,11.0119051 32,10.8095234 32,10.5714286 L32,1.71428571 C32,1.23809487 31.8333337,0.833333697 31.5,0.5 C31.1666663,0.166666303 30.7619051,0 30.2857143,0 L21.4285714,0 C21.1904766,0 20.9880949,0.0833336966 20.8214286,0.25 C20.6547623,0.416666303 20.5714286,0.619047982 20.5714286,0.857142857 L20.5714286,1.42857143 C20.5714286,1.6666663 20.6547623,1.86904798 20.8214286,2.03571429 C20.9880949,2.20238059 21.1904766,2.28571429 21.4285714,2.28571429 L29.7142857,2.28571429 L29.7142857,10.5714286 C29.7142857,10.8095234 29.7976194,11.0119051 29.9642857,11.1785714 C30.130952,11.3452377 30.3333337,11.4285714 30.5714286,11.4285714 L31.1428571,11.4285714 Z M30.2857143,32 C30.7619051,32 31.1666663,31.8333337 31.5,31.5 C31.8333337,31.1666663 32,30.7619051 32,30.2857143 L32,21.4285714 C32,21.1904766 31.9166663,20.9880949 31.75,20.8214286 C31.5833337,20.6547623 31.380952,20.5714286 31.1428571,20.5714286 L30.5714286,20.5714286 C30.3333337,20.5714286 30.130952,20.6547623 29.9642857,20.8214286 C29.7976194,20.9880949 29.7142857,21.1904766 29.7142857,21.4285714 L29.7142857,29.7142857 L21.4285714,29.7142857 C21.1904766,29.7142857 20.9880949,29.7976194 20.8214286,29.9642857 C20.6547623,30.130952 20.5714286,30.3333337 20.5714286,30.5714286 L20.5714286,31.1428571 C20.5714286,31.380952 20.6547623,31.5833337 20.8214286,31.75 C20.9880949,31.9166663 21.1904766,32 21.4285714,32 L30.2857143,32 Z M10.5714286,32 C10.8095234,32 11.0119051,31.9166663 11.1785714,31.75 C11.3452377,31.5833337 11.4285714,31.380952 11.4285714,31.1428571 L11.4285714,30.5714286 C11.4285714,30.3333337 11.3452377,30.130952 11.1785714,29.9642857 C11.0119051,29.7976194 10.8095234,29.7142857 10.5714286,29.7142857 L2.28571429,29.7142857 L2.28571429,21.4285714 C2.28571429,21.1904766 2.20238059,20.9880949 2.03571429,20.8214286 C1.86904798,20.6547623 1.6666663,20.5714286 1.42857143,20.5714286 L0.857142857,20.5714286 C0.619047982,20.5714286 0.416666303,20.6547623 0.25,20.8214286 C0.0833336966,20.9880949 0,21.1904766 0,21.4285714 L0,30.2857143 C0,30.7619051 0.166666303,31.1666663 0.5,31.5 C0.833333697,31.8333337 1.23809487,32 1.71428571,32 L10.5714286,32 Z M1.42857143,11.4285714 C1.6666663,11.4285714 1.86904798,11.3452377 2.03571429,11.1785714 C2.20238059,11.0119051 2.28571429,10.8095234 2.28571429,10.5714286 L2.28571429,2.28571429 L10.5714286,2.28571429 C10.8095234,2.28571429 11.0119051,2.20238059 11.1785714,2.03571429 C11.3452377,1.86904798 11.4285714,1.6666663 11.4285714,1.42857143 L11.4285714,0.857142857 C11.4285714,0.619047982 11.3452377,0.416666303 11.1785714,0.25 C11.0119051,0.0833336966 10.8095234,0 10.5714286,0 L1.71428571,0 C1.23809487,0 0.833333697,0.166666303 0.5,0.5 C0.166666303,0.833333697 0,1.23809487 0,1.71428571 L0,10.5714286 C0,10.8095234 0.0833336966,11.0119051 0.25,11.1785714 C0.416666303,11.3452377 0.619047982,11.4285714 0.857142857,11.4285714 L1.42857143,11.4285714 Z M31.1428571,11.4285714 C31.380952,11.4285714 31.5833337,11.3452377 31.75,11.1785714 C31.9166663,11.0119051 32,10.8095234 32,10.5714286 L32,1.71428571 C32,1.23809487 31.8333337,0.833333697 31.5,0.5 C31.1666663,0.166666303 30.7619051,0 30.2857143,0 L21.4285714,0 C21.1904766,0 20.9880949,0.0833336966 20.8214286,0.25 C20.6547623,0.416666303 20.5714286,0.619047982 20.5714286,0.857142857 L20.5714286,1.42857143 C20.5714286,1.6666663 20.6547623,1.86904798 20.8214286,2.03571429 C20.9880949,2.20238059 21.1904766,2.28571429 21.4285714,2.28571429 L29.7142857,2.28571429 L29.7142857,10.5714286 C29.7142857,10.8095234 29.7976194,11.0119051 29.9642857,11.1785714 C30.130952,11.3452377 30.3333337,11.4285714 30.5714286,11.4285714 L31.1428571,11.4285714 Z M30.2857143,32 C30.7619051,32 31.1666663,31.8333337 31.5,31.5 C31.8333337,31.1666663 32,30.7619051 32,30.2857143 L32,21.4285714 C32,21.1904766 31.9166663,20.9880949 31.75,20.8214286 C31.5833337,20.6547623 31.380952,20.5714286 31.1428571,20.5714286 L30.5714286,20.5714286 C30.3333337,20.5714286 30.130952,20.6547623 29.9642857,20.8214286 C29.7976194,20.9880949 29.7142857,21.1904766 29.7142857,21.4285714 L29.7142857,29.7142857 L21.4285714,29.7142857 C21.1904766,29.7142857 20.9880949,29.7976194 20.8214286,29.9642857 C20.6547623,30.130952 20.5714286,30.3333337 20.5714286,30.5714286 L20.5714286,31.1428571 C20.5714286,31.380952 20.6547623,31.5833337 20.8214286,31.75 C20.9880949,31.9166663 21.1904766,32 21.4285714,32 L30.2857143,32 Z M10.5714286,32 C10.8095234,32 11.0119051,31.9166663 11.1785714,31.75 C11.3452377,31.5833337 11.4285714,31.380952 11.4285714,31.1428571 L11.4285714,30.5714286 C11.4285714,30.3333337 11.3452377,30.130952 11.1785714,29.9642857 C11.0119051,29.7976194 10.8095234,29.7142857 10.5714286,29.7142857 L2.28571429,29.7142857 L2.28571429,21.4285714 C2.28571429,21.1904766 2.20238059,20.9880949 2.03571429,20.8214286 C1.86904798,20.6547623 1.6666663,20.5714286 1.42857143,20.5714286 L0.857142857,20.5714286 C0.619047982,20.5714286 0.416666303,20.6547623 0.25,20.8214286 C0.0833336966,20.9880949 0,21.1904766 0,21.4285714 L0,30.2857143 C0,30.7619051 0.166666303,31.1666663 0.5,31.5 C0.833333697,31.8333337 1.23809487,32 1.71428571,32 L10.5714286,32 Z" id="path-1"></path>
    </defs>
    <g id="Symbols" stroke="none" stroke-width="1" fill="none" fill-rule="evenodd">
        <g id="Atom/Icon/Expand">
            <rect id="Frame" x="0" y="0" width="40" height="40"></rect>
            <mask id="mask-2" fill="white">
                <use xlink:href="#path-1"></use>
            </mask>
            <use id="Icon" fill="#FFFFFF" fill-rule="nonzero" xlink:href="#path-1"></use>
            <g id="Group" mask="url(#mask-2)">
                <g transform="translate(-34.000000, -33.840376)">
                    <rect id="Colour/General/White" fill="#FFFFFF" x="0" y="0" width="100" height="100"></rect>
                </g>
            </g>
        </g>
    </g>
</svg>