<?xml version="1.0" encoding="UTF-8"?>
<svg width="24px" height="24px" viewBox="0 0 32 32" version="1.1" xmlns="http://www.w3.org/2000/svg" xmlns:xlink="http://www.w3.org/1999/xlink">
    <title>0F3A8CD3-5859-4FFE-BC2E-0ED416AF37EA@3x</title>
    <defs>
        <path d="M25,32 C25.833333,32 26.541667,31.708333 27.125,31.125 C27.708333,30.541667 28,29.833333 28,29 L28,29 L28,8.25 C28,7.41666698 27.708333,6.70833302 27.125,6.125 L27.125,6.125 L21.875,0.875 C21.291667,0.291666985 20.583333,0 19.75,0 L19.75,0 L7,0 C6.16666698,0 5.45833302,0.291666985 4.875,0.875 C4.29166698,1.45833302 4,2.16666698 4,3 L4,3 L4,29 C4,29.833333 4.29166698,30.541667 4.875,31.125 C5.45833302,31.708333 6.16666698,32 7,32 L7,32 L25,32 Z M26,8 L20,8 L20,2 C20.166667,2.08333302 20.3125,2.1875 20.4375,2.3125 L20.4375,2.3125 L25.6875,7.5625 C25.8125,7.6875 25.916667,7.83333302 26,8 L26,8 Z M25,30 L7,30 C6.70833302,30 6.46875,29.90625 6.28125,29.71875 C6.09375,29.53125 6,29.291667 6,29 L6,29 L6,3 C6,2.70833302 6.09375,2.46875 6.28125,2.28125 C6.46875,2.09375 6.70833302,2 7,2 L7,2 L18,2 L18,8.5 C18,8.91666698 18.145833,9.27083302 18.4375,9.5625 C18.729167,9.85416698 19.083333,10 19.5,10 L19.5,10 L26,10 L26,29 C26,29.291667 25.90625,29.53125 25.71875,29.71875 C25.53125,29.90625 25.291667,30 25,30 L25,30 Z M25,32 C25.833333,32 26.541667,31.708333 27.125,31.125 C27.708333,30.541667 28,29.833333 28,29 L28,29 L28,8.25 C28,7.41666698 27.708333,6.70833302 27.125,6.125 L27.125,6.125 L21.875,0.875 C21.291667,0.291666985 20.583333,0 19.75,0 L19.75,0 L7,0 C6.16666698,0 5.45833302,0.291666985 4.875,0.875 C4.29166698,1.45833302 4,2.16666698 4,3 L4,3 L4,29 C4,29.833333 4.29166698,30.541667 4.875,31.125 C5.45833302,31.708333 6.16666698,32 7,32 L7,32 L25,32 Z M26,8 L20,8 L20,2 C20.166667,2.08333302 20.3125,2.1875 20.4375,2.3125 L20.4375,2.3125 L25.6875,7.5625 C25.8125,7.6875 25.916667,7.83333302 26,8 L26,8 Z M25,30 L7,30 C6.70833302,30 6.46875,29.90625 6.28125,29.71875 C6.09375,29.53125 6,29.291667 6,29 L6,29 L6,3 C6,2.70833302 6.09375,2.46875 6.28125,2.28125 C6.46875,2.09375 6.70833302,2 7,2 L7,2 L18,2 L18,8.5 C18,8.91666698 18.145833,9.27083302 18.4375,9.5625 C18.729167,9.85416698 19.083333,10 19.5,10 L19.5,10 L26,10 L26,29 C26,29.291667 25.90625,29.53125 25.71875,29.71875 C25.53125,29.90625 25.291667,30 25,30 L25,30 Z" id="path-1"></path>
    </defs>
    <g id="Symbols" stroke="none" stroke-width="1" fill="none" fill-rule="evenodd">
        <g id="Atom/Icon/File">
            <rect id="Frame" x="0" y="0" width="24" height="24"></rect>
            <mask id="mask-2" fill="white">
                <use xlink:href="#path-1"></use>
            </mask>
            <use id="Icon" fill="#70ada3" fill-rule="nonzero" xlink:href="#path-1"></use>
            <g id="Group" mask="url(#mask-2)">
                <g transform="translate(-34.000000, -33.840376)">
                    <rect id="Colour/General/Black" fill="#70ada3" x="0" y="0" width="100" height="100"></rect>
                </g>
            </g>
        </g>
    </g>
</svg>