<?xml version="1.0" encoding="UTF-8"?>
<svg width="32px" height="32px" viewBox="0 0 32 32" version="1.1" xmlns="http://www.w3.org/2000/svg" xmlns:xlink="http://www.w3.org/1999/xlink">
    <title>962BA004-917E-4ECF-AA70-C0154EB21170@3x</title>
    <defs>
        <path d="M17.625,31.7243609 C18.125,32.0574248 18.645833,32.0886495 19.1875,31.8180352 C19.729167,31.5474209 20,31.0998656 20,30.4753703 L20,30.4753703 L20,14.1135936 L31.5625,2.56043071 C31.854167,2.26899925 32,1.91511922 32,1.49878871 C32,1.08245819 31.854167,0.728578161 31.5625,0.437146706 C31.270833,0.145715251 30.916667,0 30.5,0 L30.5,0 L1.5,0 C1.08333302,0 0.729166985,0.145715251 0.4375,0.437146706 C0.145833015,0.728578161 0,1.08245819 0,1.49878871 C0,1.91511922 0.145833015,2.26899925 0.4375,2.56043071 L0.4375,2.56043071 L12,14.1135936 L12,26.9781967 C12,27.4777929 12.208333,27.8941234 12.625,28.2271873 L12.625,28.2271873 L17.625,31.7243609 Z M17.625,31.7243609 C18.125,32.0574248 18.645833,32.0886495 19.1875,31.8180352 C19.729167,31.5474209 20,31.0998656 20,30.4753703 L20,30.4753703 L20,14.1135936 L31.5625,2.56043071 C31.854167,2.26899925 32,1.91511922 32,1.49878871 C32,1.08245819 31.854167,0.728578161 31.5625,0.437146706 C31.270833,0.145715251 30.916667,0 30.5,0 L30.5,0 L1.5,0 C1.08333302,0 0.729166985,0.145715251 0.4375,0.437146706 C0.145833015,0.728578161 0,1.08245819 0,1.49878871 C0,1.91511922 0.145833015,2.26899925 0.4375,2.56043071 L0.4375,2.56043071 L12,14.1135936 L12,26.9781967 C12,27.4777929 12.208333,27.8941234 12.625,28.2271873 L12.625,28.2271873 L17.625,31.7243609 Z" id="path-1"></path>
    </defs>
    <g id="Symbols" stroke="none" stroke-width="1" fill="none" fill-rule="evenodd">
        <g id="Atom/Icon/Solid/Filter">
            <rect id="Frame" x="0" y="0" width="32" height="32"></rect>
            <mask id="mask-2" fill="white">
                <use xlink:href="#path-1"></use>
            </mask>
            <use id="Icon" fill="#FFFFFF" fill-rule="nonzero" xlink:href="#path-1"></use>
            <g id="Group" mask="url(#mask-2)">
                <g transform="translate(-34.000000, -33.840376)">
                    <rect id="Colour/General/Black" fill="#FFFFFF" x="0" y="0" width="100" height="100"></rect>
                </g>
            </g>
        </g>
    </g>
</svg>