<?xml version="1.0" encoding="UTF-8"?>
<svg width="35px" height="40px" viewBox="0 0 32 32" version="1.1" xmlns="http://www.w3.org/2000/svg" xmlns:xlink="http://www.w3.org/1999/xlink">
    <title>238F4B16-99B4-4419-B770-3C4A379280B9@3x</title>
    <defs>
        <path d="M29,30 C29.833333,30 30.541667,29.708333 31.125,29.125 C31.708333,28.541667 32,27.833333 32,27 L32,27 L32,5 C32,4.16666698 31.708333,3.45833302 31.125,2.875 C30.541667,2.29166698 29.833333,2 29,2 L29,2 L3,2 C2.16666698,2 1.45833302,2.29166698 0.875,2.875 C0.291666985,3.45833302 0,4.16666698 0,5 L0,5 L0,27 C0,27.833333 0.291666985,28.541667 0.875,29.125 C1.45833302,29.708333 2.16666698,30 3,30 L3,30 L29,30 Z M20,10.6875 L12,10.6875 L12,4 L20,4 L20,10.6875 Z M10,10.6875 L2,10.6875 L2,5 C2,4.70833302 2.09375,4.46875 2.28125,4.28125 C2.46875,4.09375 2.70833302,4 3,4 L3,4 L10,4 L10,10.6875 Z M30,10.6875 L22,10.6875 L22,4 L29,4 C29.291667,4 29.53125,4.09375 29.71875,4.28125 C29.90625,4.46875 30,4.70833302 30,5 L30,5 L30,10.6875 Z M30,19.3125 L22,19.3125 L22,12.6875 L30,12.6875 L30,19.3125 Z M20,19.3125 L12,19.3125 L12,12.6875 L20,12.6875 L20,19.3125 Z M10,19.3125 L2,19.3125 L2,12.6875 L10,12.6875 L10,19.3125 Z M10,28 L3,28 C2.70833302,28 2.46875,27.90625 2.28125,27.71875 C2.09375,27.53125 2,27.291667 2,27 L2,27 L2,21.3125 L10,21.3125 L10,28 Z M20,28 L12,28 L12,21.3125 L20,21.3125 L20,28 Z M29,28 L22,28 L22,21.3125 L30,21.3125 L30,27 C30,27.291667 29.90625,27.53125 29.71875,27.71875 C29.53125,27.90625 29.291667,28 29,28 L29,28 Z M29,30 C29.833333,30 30.541667,29.708333 31.125,29.125 C31.708333,28.541667 32,27.833333 32,27 L32,27 L32,5 C32,4.16666698 31.708333,3.45833302 31.125,2.875 C30.541667,2.29166698 29.833333,2 29,2 L29,2 L3,2 C2.16666698,2 1.45833302,2.29166698 0.875,2.875 C0.291666985,3.45833302 0,4.16666698 0,5 L0,5 L0,27 C0,27.833333 0.291666985,28.541667 0.875,29.125 C1.45833302,29.708333 2.16666698,30 3,30 L3,30 L29,30 Z M20,10.6875 L12,10.6875 L12,4 L20,4 L20,10.6875 Z M10,10.6875 L2,10.6875 L2,5 C2,4.70833302 2.09375,4.46875 2.28125,4.28125 C2.46875,4.09375 2.70833302,4 3,4 L3,4 L10,4 L10,10.6875 Z M30,10.6875 L22,10.6875 L22,4 L29,4 C29.291667,4 29.53125,4.09375 29.71875,4.28125 C29.90625,4.46875 30,4.70833302 30,5 L30,5 L30,10.6875 Z M30,19.3125 L22,19.3125 L22,12.6875 L30,12.6875 L30,19.3125 Z M20,19.3125 L12,19.3125 L12,12.6875 L20,12.6875 L20,19.3125 Z M10,19.3125 L2,19.3125 L2,12.6875 L10,12.6875 L10,19.3125 Z M10,28 L3,28 C2.70833302,28 2.46875,27.90625 2.28125,27.71875 C2.09375,27.53125 2,27.291667 2,27 L2,27 L2,21.3125 L10,21.3125 L10,28 Z M20,28 L12,28 L12,21.3125 L20,21.3125 L20,28 Z M29,28 L22,28 L22,21.3125 L30,21.3125 L30,27 C30,27.291667 29.90625,27.53125 29.71875,27.71875 C29.53125,27.90625 29.291667,28 29,28 L29,28 Z" id="path-1"></path>
    </defs>
    <g id="Symbols" stroke="none" stroke-width="1" fill="none" fill-rule="evenodd">
        <g id="Atom/Icon/Grid">
            <rect id="Frame" x="0" y="0" width="35" height="40"></rect>
            <mask id="mask-2" fill="white">
                <use xlink:href="#path-1"></use>
            </mask>
            <use id="Icon" fill="#FFFFFF" fill-rule="nonzero" xlink:href="#path-1"></use>
            <g id="Group" mask="url(#mask-2)">
                <g transform="translate(-34.000000, -33.840376)">
                    <rect id="Colour/General/White" fill="#FFFFFF" x="0" y="0" width="100" height="100"></rect>
                </g>
            </g>
        </g>
    </g>
</svg>