<?xml version="1.0" encoding="UTF-8"?>
<svg width="24px" height="24px" viewBox="0 0 32 32" version="1.1" xmlns="http://www.w3.org/2000/svg" xmlns:xlink="http://www.w3.org/1999/xlink">
    <title>EC8AC4EC-9A6C-4E91-B796-749CE69D1FBA@3x</title>
    <defs>
        <path d="M18.9989623,30 L26.999939,29.9793686 C27.5520083,29.9793686 28.000061,29.5313384 28.000061,28.9792967 L28.000061,13.7875911 L30.5541448,15.8739839 C30.6302039,15.9357559 30.7714565,15.9859304 30.8694299,15.9859304 C31.0007325,15.9859304 31.1744598,15.9032828 31.2573556,15.8014689 L31.8886583,15.0257783 C31.9501282,14.9498451 32,14.8089658 32,14.7112415 C32,14.5789078 31.9162495,14.4042126 31.8130265,14.3213819 L17.2581492,2.44552765 C16.9532414,2.19959932 16.3878037,2 15.9960933,2 C15.6043829,2 15.0390062,2.19959932 14.7340374,2.44552765 L0.184165548,14.3213819 C0.0825296057,14.4042126 0,14.5778701 0,14.7089831 C0,14.8068295 0.0500549383,14.9479529 0.11164693,15.0239471 L0.743010621,15.7995766 C0.82584544,15.9012075 0.999450617,15.9836719 1.13057014,15.9836719 C1.22744476,15.9836719 1.36741546,15.9345351 1.44304725,15.8739839 L3.997131,13.7875911 L3.997131,28.9761837 C3.997131,29.5282253 4.44518374,29.9762556 4.99725308,29.9762556 L12.9982298,29.9762556 C13.5502991,29.9762556 13.9983518,29.5282253 13.9983518,28.9761837 L13.9983518,20.9756082 L17.9988402,20.9943473 L17.9988402,28.9999281 C17.9988402,29.5519697 18.4468929,30 18.9989623,30 Z M19.9984739,28.0029691 L19.9984739,19.9917727 C19.9967647,19.4431493 19.550116,18.995119 19.001465,18.9917008 L13.0007325,18.9748539 L12.9976193,18.9748539 C12.44555,18.9748539 11.9974973,19.4228842 11.9974973,19.9749258 L11.9974973,27.98423 L5.99737517,27.98423 L5.99737517,12.1555767 L15.998596,3.99440616 L25.9998169,12.1555767 L25.9929191,27.98423 L25.9992064,27.98423 L19.9984739,28.0029691 Z M18.9989623,30 L26.999939,29.9793686 C27.5520083,29.9793686 28.000061,29.5313384 28.000061,28.9792967 L28.000061,13.7875911 L30.5541448,15.8739839 C30.6302039,15.9357559 30.7714565,15.9859304 30.8694299,15.9859304 C31.0007325,15.9859304 31.1744598,15.9032828 31.2573556,15.8014689 L31.8886583,15.0257783 C31.9501282,14.9498451 32,14.8089658 32,14.7112415 C32,14.5789078 31.9162495,14.4042126 31.8130265,14.3213819 L17.2581492,2.44552765 C16.9532414,2.19959932 16.3878037,2 15.9960933,2 C15.6043829,2 15.0390062,2.19959932 14.7340374,2.44552765 L0.184165548,14.3213819 C0.0825296057,14.4042126 0,14.5778701 0,14.7089831 C0,14.8068295 0.0500549383,14.9479529 0.11164693,15.0239471 L0.743010621,15.7995766 C0.82584544,15.9012075 0.999450617,15.9836719 1.13057014,15.9836719 C1.22744476,15.9836719 1.36741546,15.9345351 1.44304725,15.8739839 L3.997131,13.7875911 L3.997131,28.9761837 C3.997131,29.5282253 4.44518374,29.9762556 4.99725308,29.9762556 L12.9982298,29.9762556 C13.5502991,29.9762556 13.9983518,29.5282253 13.9983518,28.9761837 L13.9983518,20.9756082 L17.9988402,20.9943473 L17.9988402,28.9999281 C17.9988402,29.5519697 18.4468929,30 18.9989623,30 Z M19.9984739,28.0029691 L19.9984739,19.9917727 C19.9967647,19.4431493 19.550116,18.995119 19.001465,18.9917008 L13.0007325,18.9748539 L12.9976193,18.9748539 C12.44555,18.9748539 11.9974973,19.4228842 11.9974973,19.9749258 L11.9974973,27.98423 L5.99737517,27.98423 L5.99737517,12.1555767 L15.998596,3.99440616 L25.9998169,12.1555767 L25.9929191,27.98423 L25.9992064,27.98423 L19.9984739,28.0029691 Z" id="path-1"></path>
    </defs>
    <g id="Symbols" stroke="none" stroke-width="1" fill="none" fill-rule="evenodd">
        <g id="Atom/Icon/Home">
            <rect id="Frame" x="0" y="0" width="24" height="24"></rect>
            <mask id="mask-2" fill="white">
                <use xlink:href="#path-1"></use>
            </mask>
            <use id="Icon" fill="rgba(0%,0%,0%, 50%)" fill-rule="nonzero" xlink:href="#path-1"></use>
            <g id="Group" mask="url(#mask-2)">
                <g transform="translate(-34.000000, -33.840376)">
                    <rect id="Colour/General/Black" fill="rgba(0%,0%,0%, 50%)" x="0" y="0" width="100" height="100"></rect>
                </g>
            </g>
        </g>
    </g>
</svg>