<?xml version="1.0" encoding="UTF-8"?>
<svg width="55px" height="56px" viewBox="0 0 32 32" version="1.1" xmlns="http://www.w3.org/2000/svg" xmlns:xlink="http://www.w3.org/1999/xlink">
    <title>BEF7E76D-E08F-434A-8150-7B3DF2F6025B@3x</title>
    <defs>
        <path d="M18.25,32 C18.75,32 19.145833,31.8125 19.4375,31.4375 L20.6875,29.9375 C20.895833,29.645833 21,29.333333 21,29 L21,23.5625 C21.166667,23.395833 21.270833,23.229167 21.3125,23.0625 C21.770833,21.895833 22.3125,20.833333 22.9375,19.875 C23.3125,19.291667 23.833333,18.583333 24.5,17.75 C25.375,16.666667 25.979167,15.791667 26.3125,15.125 C26.770833,14.041667 27,12.666667 27,11 C27,9 26.510417,7.15625 25.53125,5.46875 C24.552083,3.78125 23.21875,2.44791698 21.53125,1.46875 C19.84375,0.489583015 18,0 16,0 C14,0 12.166667,0.489583015 10.5,1.46875 C8.83333302,2.44791698 7.5,3.77083302 6.5,5.4375 C5.5,7.10416698 5,8.9375 5,10.9375 C5,12.604167 5.22916698,13.979167 5.6875,15.0625 C5.97916698,15.770833 6.58333302,16.666667 7.5,17.75 C8.16666698,18.583333 8.6875,19.291667 9.0625,19.875 C9.6875,20.791667 10.208333,21.854167 10.625,23.0625 C10.708333,23.229167 10.833333,23.395833 11,23.5625 L11,29 C11,29.333333 11.104167,29.645833 11.3125,29.9375 L12.5625,31.4375 C12.854167,31.8125 13.25,32 13.75,32 L18.25,32 Z M19.625,22 L12.375,22 C11.875,20.708333 11.3125,19.583333 10.6875,18.625 C10.3125,18.041667 9.77083302,17.333333 9.0625,16.5 C8.3125,15.625 7.8125,14.916667 7.5625,14.375 C7.1875,13.5 7,12.375 7,11 C7,9.375 7.40625,7.875 8.21875,6.5 C9.03125,5.125 10.125,4.03125 11.5,3.21875 C12.875,2.40625 14.375,2 16,2 C17.625,2 19.125,2.40625 20.5,3.21875 C21.875,4.03125 22.96875,5.125 23.78125,6.5 C24.59375,7.875 25,9.375 25,11 C25,12.375 24.8125,13.5 24.4375,14.375 C24.1875,14.916667 23.6875,15.645833 22.9375,16.5625 C22.229167,17.354167 21.6875,18.041667 21.3125,18.625 C20.6875,19.583333 20.125,20.708333 19.625,22 Z M10,11 C10.291667,11 10.53125,10.90625 10.71875,10.71875 C10.90625,10.53125 11,10.291667 11,10 C11,8.91666698 11.395833,7.97916698 12.1875,7.1875 C12.979167,6.39583302 13.916667,6 15,6 C15.291667,6 15.53125,5.90625 15.71875,5.71875 C15.90625,5.53125 16,5.29166698 16,5 C16,4.70833302 15.90625,4.46875 15.71875,4.28125 C15.53125,4.09375 15.291667,4 15,4 C13.333333,4 11.916667,4.58333302 10.75,5.75 C9.58333302,6.91666698 9,8.33333302 9,10 C9,10.291667 9.09375,10.53125 9.28125,10.71875 C9.46875,10.90625 9.70833302,11 10,11 Z M19,26 L13,26 L13,24 L19,24 L19,26 Z M18.0625,30 L13.9375,30 L13,28.8125 L13,28 L19,28 L19,28.8125 L18.0625,30 Z M18.25,32 C18.75,32 19.145833,31.8125 19.4375,31.4375 L20.6875,29.9375 C20.895833,29.645833 21,29.333333 21,29 L21,23.5625 C21.166667,23.395833 21.270833,23.229167 21.3125,23.0625 C21.770833,21.895833 22.3125,20.833333 22.9375,19.875 C23.3125,19.291667 23.833333,18.583333 24.5,17.75 C25.375,16.666667 25.979167,15.791667 26.3125,15.125 C26.770833,14.041667 27,12.666667 27,11 C27,9 26.510417,7.15625 25.53125,5.46875 C24.552083,3.78125 23.21875,2.44791698 21.53125,1.46875 C19.84375,0.489583015 18,0 16,0 C14,0 12.166667,0.489583015 10.5,1.46875 C8.83333302,2.44791698 7.5,3.77083302 6.5,5.4375 C5.5,7.10416698 5,8.9375 5,10.9375 C5,12.604167 5.22916698,13.979167 5.6875,15.0625 C5.97916698,15.770833 6.58333302,16.666667 7.5,17.75 C8.16666698,18.583333 8.6875,19.291667 9.0625,19.875 C9.6875,20.791667 10.208333,21.854167 10.625,23.0625 C10.708333,23.229167 10.833333,23.395833 11,23.5625 L11,29 C11,29.333333 11.104167,29.645833 11.3125,29.9375 L12.5625,31.4375 C12.854167,31.8125 13.25,32 13.75,32 L18.25,32 Z M19.625,22 L12.375,22 C11.875,20.708333 11.3125,19.583333 10.6875,18.625 C10.3125,18.041667 9.77083302,17.333333 9.0625,16.5 C8.3125,15.625 7.8125,14.916667 7.5625,14.375 C7.1875,13.5 7,12.375 7,11 C7,9.375 7.40625,7.875 8.21875,6.5 C9.03125,5.125 10.125,4.03125 11.5,3.21875 C12.875,2.40625 14.375,2 16,2 C17.625,2 19.125,2.40625 20.5,3.21875 C21.875,4.03125 22.96875,5.125 23.78125,6.5 C24.59375,7.875 25,9.375 25,11 C25,12.375 24.8125,13.5 24.4375,14.375 C24.1875,14.916667 23.6875,15.645833 22.9375,16.5625 C22.229167,17.354167 21.6875,18.041667 21.3125,18.625 C20.6875,19.583333 20.125,20.708333 19.625,22 Z M10,11 C10.291667,11 10.53125,10.90625 10.71875,10.71875 C10.90625,10.53125 11,10.291667 11,10 C11,8.91666698 11.395833,7.97916698 12.1875,7.1875 C12.979167,6.39583302 13.916667,6 15,6 C15.291667,6 15.53125,5.90625 15.71875,5.71875 C15.90625,5.53125 16,5.29166698 16,5 C16,4.70833302 15.90625,4.46875 15.71875,4.28125 C15.53125,4.09375 15.291667,4 15,4 C13.333333,4 11.916667,4.58333302 10.75,5.75 C9.58333302,6.91666698 9,8.33333302 9,10 C9,10.291667 9.09375,10.53125 9.28125,10.71875 C9.46875,10.90625 9.70833302,11 10,11 Z M19,26 L13,26 L13,24 L19,24 L19,26 Z M18.0625,30 L13.9375,30 L13,28.8125 L13,28 L19,28 L19,28.8125 L18.0625,30 Z" id="path-1"></path>
    </defs>
    <g id="Symbols" stroke="none" stroke-width="1" fill="none" fill-rule="evenodd">
        <g id="Atom/Icon/Lightbulb">
            <rect id="Frame" x="0" y="0" width="55" height="56"></rect>
            <mask id="mask-2" fill="white">
                <use xlink:href="#path-1"></use>
            </mask>
            <use id="Icon" fill="#FFFFFF" fill-rule="nonzero" xlink:href="#path-1"></use>
            <g id="Group" mask="url(#mask-2)">
                <g transform="translate(-34.000000, -33.840376)">
                    <rect id="Colour/General/White" fill="#FFFFFF" x="0" y="0" width="100" height="100"></rect>
                </g>
            </g>
        </g>
    </g>
</svg>