<?xml version="1.0" encoding="UTF-8"?>
<svg width="24px" height="24px" viewBox="0 0 32 32" version="1.1" xmlns="http://www.w3.org/2000/svg" xmlns:xlink="http://www.w3.org/1999/xlink">
    <title>628FA707-4313-4088-B44B-8C9A2287D962@3x</title>
    <defs>
        <path d="M15.7497556,20.5669599 C15.9582923,20.6503743 16.1668299,20.6503743 16.3753666,20.5669599 C16.5839032,20.4835454 16.7090254,20.3375689 16.7507331,20.1290322 C16.8758553,19.7953733 16.9488436,19.4617135 16.969697,19.1280547 C16.9905503,18.7943958 16.8341476,18.5650048 16.5004888,18.4398827 C15.8331701,18.1479306 15.2492669,17.7517106 14.7487781,17.2512219 C13.6226784,16.0834145 13.0596286,14.6966442 13.0596286,13.0909091 C13.0596286,11.4851741 13.6226784,10.0984038 14.7487781,8.93059639 L14.7487781,8.93059639 L19.7536656,3.98826997 C20.8797653,2.82046257 22.2561094,2.23655935 23.8826978,2.23655935 C25.5092863,2.23655935 26.8960575,2.81003636 28.0430106,3.95698943 C29.1899636,5.1039425 29.7634407,6.49071373 29.7634407,8.11730217 C29.7634407,9.74389061 29.1795374,11.1202347 28.01173,12.2463344 L28.01173,12.2463344 L23.319648,17.0009775 C23.1528181,17.1678074 23.090257,17.3867712 23.1319647,17.657869 C23.1736724,17.9289667 23.1945258,18.2209188 23.1945258,18.5337243 C23.1945258,18.8465298 23.3509285,19.0654936 23.663734,19.1906158 C23.9765395,19.315738 24.237211,19.2740303 24.4457477,19.0654936 L24.4457477,19.0654936 L29.6383185,13.8729228 C30.6810037,12.8302376 31.3796019,11.6102963 31.7341151,10.2130988 C32.0886283,8.81590137 32.0886283,7.41870297 31.7341151,6.02150553 C31.3796019,4.62430808 30.6810037,3.40436675 29.6383185,2.36168153 C28.5956333,1.31899632 27.3756919,0.620398071 25.9784945,0.265884888 C24.581297,-0.0886282959 23.1840986,-0.0886282959 21.7869012,0.265884888 C20.3897037,0.620398071 19.1697624,1.31899632 18.1270772,2.36168153 L18.1270772,2.36168153 L13.1847508,7.30400795 C12.1420656,8.34669317 11.4330401,9.5666345 11.0576736,10.9638319 C10.682307,12.3610294 10.682307,13.7582278 11.0576736,15.1554252 C11.4330401,16.5526227 12.1420656,17.772564 13.1847508,18.8152492 C13.9354839,19.5659824 14.7904858,20.1498856 15.7497556,20.5669599 Z M6.02150553,31.7341151 C7.41870297,32.0886283 8.81590137,32.0886283 10.2130988,31.7341151 C11.6102963,31.3796019 12.8302376,30.6810037 13.8729228,29.6383185 L13.8729228,29.6383185 L18.8152492,24.6959921 C19.8579344,23.6533068 20.5669599,22.4333655 20.9423264,21.0361681 C21.317693,19.6389706 21.317693,18.2417722 20.9423264,16.8445748 C20.5669599,15.4473773 19.8579344,14.227436 18.8152492,13.1847508 C18.0645161,12.4340176 17.2095142,11.8501144 16.2502444,11.4330401 C16.0417077,11.3496257 15.8331701,11.3496257 15.6246334,11.4330401 C15.4160968,11.5164546 15.2909746,11.6624311 15.2492669,11.8709678 C15.1241447,12.2046267 15.0511564,12.5382865 15.030303,12.8719453 C15.0094497,13.2056042 15.1658524,13.4349952 15.4995112,13.5601173 C16.1668299,13.8520694 16.7507331,14.2482894 17.2512219,14.7487781 C18.3773216,15.9165855 18.9403714,17.3033558 18.9403714,18.9090909 C18.9403714,20.5148259 18.3773216,21.9015962 17.2512219,23.0694036 L17.2512219,23.0694036 L12.2463344,28.01173 C11.1202347,29.1795374 9.74389061,29.7634407 8.11730217,29.7634407 C6.49071373,29.7634407 5.1039425,29.1899636 3.95698943,28.0430106 C2.81003636,26.8960575 2.23655935,25.5092863 2.23655935,23.8826978 C2.23655935,22.2561094 2.82046257,20.8797653 3.98826997,19.7536656 L3.98826997,19.7536656 L8.68035202,14.9990225 C8.84718192,14.8321926 8.90974301,14.6132288 8.8680353,14.342131 C8.82632758,14.0710333 8.8054742,13.7790812 8.8054742,13.4662757 C8.8054742,13.1534702 8.64907147,12.9345064 8.336266,12.8093842 C8.02346053,12.684262 7.76278899,12.7259697 7.55425233,12.9345064 L7.55425233,12.9345064 L2.36168153,18.1270772 C1.31899632,19.1697624 0.620398071,20.3897037 0.265884888,21.7869012 C-0.0886282959,23.1840986 -0.0886282959,24.581297 0.265884888,25.9784945 C0.620398071,27.3756919 1.31899632,28.5956333 2.36168153,29.6383185 C3.40436675,30.6810037 4.62430808,31.3796019 6.02150553,31.7341151 Z M15.7497556,20.5669599 C15.9582923,20.6503743 16.1668299,20.6503743 16.3753666,20.5669599 C16.5839032,20.4835454 16.7090254,20.3375689 16.7507331,20.1290322 C16.8758553,19.7953733 16.9488436,19.4617135 16.969697,19.1280547 C16.9905503,18.7943958 16.8341476,18.5650048 16.5004888,18.4398827 C15.8331701,18.1479306 15.2492669,17.7517106 14.7487781,17.2512219 C13.6226784,16.0834145 13.0596286,14.6966442 13.0596286,13.0909091 C13.0596286,11.4851741 13.6226784,10.0984038 14.7487781,8.93059639 L14.7487781,8.93059639 L19.7536656,3.98826997 C20.8797653,2.82046257 22.2561094,2.23655935 23.8826978,2.23655935 C25.5092863,2.23655935 26.8960575,2.81003636 28.0430106,3.95698943 C29.1899636,5.1039425 29.7634407,6.49071373 29.7634407,8.11730217 C29.7634407,9.74389061 29.1795374,11.1202347 28.01173,12.2463344 L28.01173,12.2463344 L23.319648,17.0009775 C23.1528181,17.1678074 23.090257,17.3867712 23.1319647,17.657869 C23.1736724,17.9289667 23.1945258,18.2209188 23.1945258,18.5337243 C23.1945258,18.8465298 23.3509285,19.0654936 23.663734,19.1906158 C23.9765395,19.315738 24.237211,19.2740303 24.4457477,19.0654936 L24.4457477,19.0654936 L29.6383185,13.8729228 C30.6810037,12.8302376 31.3796019,11.6102963 31.7341151,10.2130988 C32.0886283,8.81590137 32.0886283,7.41870297 31.7341151,6.02150553 C31.3796019,4.62430808 30.6810037,3.40436675 29.6383185,2.36168153 C28.5956333,1.31899632 27.3756919,0.620398071 25.9784945,0.265884888 C24.581297,-0.0886282959 23.1840986,-0.0886282959 21.7869012,0.265884888 C20.3897037,0.620398071 19.1697624,1.31899632 18.1270772,2.36168153 L18.1270772,2.36168153 L13.1847508,7.30400795 C12.1420656,8.34669317 11.4330401,9.5666345 11.0576736,10.9638319 C10.682307,12.3610294 10.682307,13.7582278 11.0576736,15.1554252 C11.4330401,16.5526227 12.1420656,17.772564 13.1847508,18.8152492 C13.9354839,19.5659824 14.7904858,20.1498856 15.7497556,20.5669599 Z M6.02150553,31.7341151 C7.41870297,32.0886283 8.81590137,32.0886283 10.2130988,31.7341151 C11.6102963,31.3796019 12.8302376,30.6810037 13.8729228,29.6383185 L13.8729228,29.6383185 L18.8152492,24.6959921 C19.8579344,23.6533068 20.5669599,22.4333655 20.9423264,21.0361681 C21.317693,19.6389706 21.317693,18.2417722 20.9423264,16.8445748 C20.5669599,15.4473773 19.8579344,14.227436 18.8152492,13.1847508 C18.0645161,12.4340176 17.2095142,11.8501144 16.2502444,11.4330401 C16.0417077,11.3496257 15.8331701,11.3496257 15.6246334,11.4330401 C15.4160968,11.5164546 15.2909746,11.6624311 15.2492669,11.8709678 C15.1241447,12.2046267 15.0511564,12.5382865 15.030303,12.8719453 C15.0094497,13.2056042 15.1658524,13.4349952 15.4995112,13.5601173 C16.1668299,13.8520694 16.7507331,14.2482894 17.2512219,14.7487781 C18.3773216,15.9165855 18.9403714,17.3033558 18.9403714,18.9090909 C18.9403714,20.5148259 18.3773216,21.9015962 17.2512219,23.0694036 L17.2512219,23.0694036 L12.2463344,28.01173 C11.1202347,29.1795374 9.74389061,29.7634407 8.11730217,29.7634407 C6.49071373,29.7634407 5.1039425,29.1899636 3.95698943,28.0430106 C2.81003636,26.8960575 2.23655935,25.5092863 2.23655935,23.8826978 C2.23655935,22.2561094 2.82046257,20.8797653 3.98826997,19.7536656 L3.98826997,19.7536656 L8.68035202,14.9990225 C8.84718192,14.8321926 8.90974301,14.6132288 8.8680353,14.342131 C8.82632758,14.0710333 8.8054742,13.7790812 8.8054742,13.4662757 C8.8054742,13.1534702 8.64907147,12.9345064 8.336266,12.8093842 C8.02346053,12.684262 7.76278899,12.7259697 7.55425233,12.9345064 L7.55425233,12.9345064 L2.36168153,18.1270772 C1.31899632,19.1697624 0.620398071,20.3897037 0.265884888,21.7869012 C-0.0886282959,23.1840986 -0.0886282959,24.581297 0.265884888,25.9784945 C0.620398071,27.3756919 1.31899632,28.5956333 2.36168153,29.6383185 C3.40436675,30.6810037 4.62430808,31.3796019 6.02150553,31.7341151 Z" id="path-1"></path>
    </defs>
    <g id="Symbols" stroke="none" stroke-width="1" fill="none" fill-rule="evenodd">
        <g id="Atom/Icon/Link">
            <rect id="Frame" x="0" y="0" width="24" height="24"></rect>
            <mask id="mask-2" fill="white">
                <use xlink:href="#path-1"></use>
            </mask>
            <use id="Icon" fill="#70ada3" fill-rule="nonzero" xlink:href="#path-1"></use>
            <g id="Group" mask="url(#mask-2)">
                <g transform="translate(-34.000000, -33.840376)">
                    <rect id="Colour/Primary/Teal" fill="#70ada3" x="0" y="0" width="100" height="100"></rect>
                </g>
            </g>
        </g>
    </g>
</svg>