<?xml version="1.0" encoding="UTF-8"?>
<svg width="48px" height="48px" viewBox="0 0 32 32" version="1.1" xmlns="http://www.w3.org/2000/svg" xmlns:xlink="http://www.w3.org/1999/xlink">
    <title>F6C976FB-3AA2-4CA5-999A-0C1FEC0768F7@3x</title>
    <defs>
        <path d="M17.9230481,27.7709958 C18.2860127,27.6831345 18.5424868,27.3516045 18.5424868,26.9701023 L18.5424868,25.6809008 C18.9628201,25.500191 19.5984582,25.1243119 19.9613246,24.8419173 L21.0525093,25.4862001 C21.3748936,25.6765495 21.7831838,25.616034 22.0390033,25.3393964 C22.9223775,24.3842687 23.591298,23.2196461 23.9670912,21.9258591 C24.0726,21.5625651 23.9178385,21.1727622 23.5969269,20.983283 L22.5041059,20.3379961 C22.5325448,20.1076153 22.5556167,19.7322049 22.5556167,19.4999833 C22.5556167,19.2677951 22.5325448,18.8923847 22.5041059,18.6620039 L23.5969269,18.016717 C23.9178385,17.8272713 24.0726,17.4374349 23.9670912,17.0741409 C23.591298,15.7803204 22.9223775,14.6157313 22.0390033,13.6606036 C21.7831838,13.3839994 21.3748936,13.3234839 21.0525093,13.5138334 L19.9613246,14.1581161 C19.5984582,13.8756881 18.9628201,13.499809 18.5424868,13.3190992 L18.5424868,12.0298977 C18.5424868,11.648429 18.2860454,11.3168655 17.9230481,11.2290042 C16.6615571,10.923682 15.3387047,10.9236485 14.0769519,11.2290042 C13.7139873,11.3168655 13.4575132,11.6483955 13.4575132,12.0298977 L13.4575132,13.3190992 C13.0371471,13.499809 12.4015091,13.8756881 12.0386754,14.1581161 L10.9474907,13.5138334 C10.6250737,13.3234839 10.2167835,13.3839994 9.96099671,13.6606036 C9.07762246,14.6157313 8.40870202,15.7803539 8.0329088,17.0741409 C7.92740001,17.4374349 8.0821615,17.8272378 8.40307314,18.016717 L9.4958941,18.6620039 C9.46745516,18.8923847 9.44438329,19.2677951 9.44438329,19.4999833 C9.44438329,19.7322049 9.46745516,20.1076153 9.4958941,20.3379961 L8.40307314,20.983283 C8.0821615,21.1727287 7.92740001,21.5625651 8.0329088,21.9258591 C8.40870202,23.2196461 9.07762246,24.3842687 9.96099671,25.3393964 C10.2168162,25.6160006 10.6251064,25.6765161 10.9474907,25.4862001 L12.0386754,24.8419173 C12.4015091,25.1243454 13.0371471,25.500191 13.4575132,25.6809008 L13.4575132,26.9701023 C13.4575132,27.351571 13.7139546,27.6831345 14.0769519,27.7709958 C15.3384756,28.076318 16.6612953,28.0763515 17.9230481,27.7709958 Z M16,26.9036959 C15.5900081,26.9036959 14.9313963,26.8349465 14.5298804,26.7502315 L14.5298804,24.9172605 C13.403188,24.5101196 13.0770075,24.3210755 12.1492567,23.5100068 L10.5973875,24.4265091 C9.93687761,23.6693956 9.43489274,22.7817119 9.12523886,21.8231032 L10.6777954,20.906601 C10.4588254,19.6927091 10.4586945,19.3078933 10.6777954,18.093399 L9.12523886,17.1768968 C9.43489274,16.2182881 9.93691033,15.3305709 10.5973875,14.5731228 L12.1492567,15.4902944 C13.0666988,14.6871249 13.3913084,14.4941313 14.5298804,14.082706 L14.5298804,12.2497685 C14.9313963,12.1649196 15.5900081,12.0960698 16,12.0960698 C16.4099919,12.0960698 17.0686037,12.1649196 17.4701196,12.2497685 L17.4701196,14.0827395 C18.608757,14.4941982 18.9333994,14.6872253 19.8507433,15.4903279 L21.4026125,14.5731562 C22.0630897,15.3305709 22.5651073,16.2182881 22.8747611,17.1769303 L21.3222046,18.0934325 C21.5412074,19.3076256 21.5413055,19.6921401 21.3222046,20.9066344 L22.8747611,21.8231367 C22.5651073,22.7817119 22.0631224,23.6694291 21.4026125,24.4265091 L19.8507433,23.5100068 C18.9463262,24.3007586 18.6255782,24.4997101 17.4701196,24.9172605 L17.4701196,26.7502315 C17.0686037,26.8349465 16.4099919,26.9036959 16,26.9036959 Z M16,22.7903474 C17.7739155,22.7903474 19.2171015,21.3143109 19.2171015,19.5000167 C19.2171015,17.6857226 17.7739155,16.2096861 16,16.2096861 C14.2260845,16.2096861 12.7828985,17.6857226 12.7828985,19.5000167 C12.7828985,21.3143109 14.2260845,22.7903474 16,22.7903474 Z M16,21.6935705 C14.8173788,21.6935705 13.8552656,20.7095573 13.8552656,19.5000167 C13.8552656,18.2904761 14.8173788,17.3064629 16,17.3064629 C17.1826212,17.3064629 18.1447344,18.2904761 18.1447344,19.5000167 C18.1447344,20.7095573 17.1826212,21.6935705 16,21.6935705 Z M17.9230481,27.7709958 C18.2860127,27.6831345 18.5424868,27.3516045 18.5424868,26.9701023 L18.5424868,25.6809008 C18.9628201,25.500191 19.5984582,25.1243119 19.9613246,24.8419173 L21.0525093,25.4862001 C21.3748936,25.6765495 21.7831838,25.616034 22.0390033,25.3393964 C22.9223775,24.3842687 23.591298,23.2196461 23.9670912,21.9258591 C24.0726,21.5625651 23.9178385,21.1727622 23.5969269,20.983283 L22.5041059,20.3379961 C22.5325448,20.1076153 22.5556167,19.7322049 22.5556167,19.4999833 C22.5556167,19.2677951 22.5325448,18.8923847 22.5041059,18.6620039 L23.5969269,18.016717 C23.9178385,17.8272713 24.0726,17.4374349 23.9670912,17.0741409 C23.591298,15.7803204 22.9223775,14.6157313 22.0390033,13.6606036 C21.7831838,13.3839994 21.3748936,13.3234839 21.0525093,13.5138334 L19.9613246,14.1581161 C19.5984582,13.8756881 18.9628201,13.499809 18.5424868,13.3190992 L18.5424868,12.0298977 C18.5424868,11.648429 18.2860454,11.3168655 17.9230481,11.2290042 C16.6615571,10.923682 15.3387047,10.9236485 14.0769519,11.2290042 C13.7139873,11.3168655 13.4575132,11.6483955 13.4575132,12.0298977 L13.4575132,13.3190992 C13.0371471,13.499809 12.4015091,13.8756881 12.0386754,14.1581161 L10.9474907,13.5138334 C10.6250737,13.3234839 10.2167835,13.3839994 9.96099671,13.6606036 C9.07762246,14.6157313 8.40870202,15.7803539 8.0329088,17.0741409 C7.92740001,17.4374349 8.0821615,17.8272378 8.40307314,18.016717 L9.4958941,18.6620039 C9.46745516,18.8923847 9.44438329,19.2677951 9.44438329,19.4999833 C9.44438329,19.7322049 9.46745516,20.1076153 9.4958941,20.3379961 L8.40307314,20.983283 C8.0821615,21.1727287 7.92740001,21.5625651 8.0329088,21.9258591 C8.40870202,23.2196461 9.07762246,24.3842687 9.96099671,25.3393964 C10.2168162,25.6160006 10.6251064,25.6765161 10.9474907,25.4862001 L12.0386754,24.8419173 C12.4015091,25.1243454 13.0371471,25.500191 13.4575132,25.6809008 L13.4575132,26.9701023 C13.4575132,27.351571 13.7139546,27.6831345 14.0769519,27.7709958 C15.3384756,28.076318 16.6612953,28.0763515 17.9230481,27.7709958 Z M16,26.9036959 C15.5900081,26.9036959 14.9313963,26.8349465 14.5298804,26.7502315 L14.5298804,24.9172605 C13.403188,24.5101196 13.0770075,24.3210755 12.1492567,23.5100068 L10.5973875,24.4265091 C9.93687761,23.6693956 9.43489274,22.7817119 9.12523886,21.8231032 L10.6777954,20.906601 C10.4588254,19.6927091 10.4586945,19.3078933 10.6777954,18.093399 L9.12523886,17.1768968 C9.43489274,16.2182881 9.93691033,15.3305709 10.5973875,14.5731228 L12.1492567,15.4902944 C13.0666988,14.6871249 13.3913084,14.4941313 14.5298804,14.082706 L14.5298804,12.2497685 C14.9313963,12.1649196 15.5900081,12.0960698 16,12.0960698 C16.4099919,12.0960698 17.0686037,12.1649196 17.4701196,12.2497685 L17.4701196,14.0827395 C18.608757,14.4941982 18.9333994,14.6872253 19.8507433,15.4903279 L21.4026125,14.5731562 C22.0630897,15.3305709 22.5651073,16.2182881 22.8747611,17.1769303 L21.3222046,18.0934325 C21.5412074,19.3076256 21.5413055,19.6921401 21.3222046,20.9066344 L22.8747611,21.8231367 C22.5651073,22.7817119 22.0631224,23.6694291 21.4026125,24.4265091 L19.8507433,23.5100068 C18.9463262,24.3007586 18.6255782,24.4997101 17.4701196,24.9172605 L17.4701196,26.7502315 C17.0686037,26.8349465 16.4099919,26.9036959 16,26.9036959 Z M16,22.7903474 C17.7739155,22.7903474 19.2171015,21.3143109 19.2171015,19.5000167 C19.2171015,17.6857226 17.7739155,16.2096861 16,16.2096861 C14.2260845,16.2096861 12.7828985,17.6857226 12.7828985,19.5000167 C12.7828985,21.3143109 14.2260845,22.7903474 16,22.7903474 Z M16,21.6935705 C14.8173788,21.6935705 13.8552656,20.7095573 13.8552656,19.5000167 C13.8552656,18.2904761 14.8173788,17.3064629 16,17.3064629 C17.1826212,17.3064629 18.1447344,18.2904761 18.1447344,19.5000167 C18.1447344,20.7095573 17.1826212,21.6935705 16,21.6935705 Z M25,32 C25.833333,32 26.541667,31.708333 27.125,31.125 C27.708333,30.541667 28,29.833333 28,29 L28,8.25 C28,7.41666698 27.708333,6.70833302 27.125,6.125 L21.875,0.875 C21.291667,0.291666985 20.583333,0 19.75,0 L7,0 C6.16666698,0 5.45833302,0.291666985 4.875,0.875 C4.29166698,1.45833302 4,2.16666698 4,3 L4,29 C4,29.833333 4.29166698,30.541667 4.875,31.125 C5.45833302,31.708333 6.16666698,32 7,32 L25,32 Z M20,8 L20,2 C20.166667,2.08333302 20.3125,2.1875 20.4375,2.3125 L25.6875,7.5625 C25.8125,7.6875 25.916667,7.83333302 26,8 L20,8 Z M7,30 C6.70833302,30 6.46875,29.90625 6.28125,29.71875 C6.09375,29.53125 6,29.291667 6,29 L6,3 C6,2.70833302 6.09375,2.46875 6.28125,2.28125 C6.46875,2.09375 6.70833302,2 7,2 L18,2 L18,8.5 C18,8.91666698 18.145833,9.27083302 18.4375,9.5625 C18.729167,9.85416698 19.083333,10 19.5,10 L26,10 L26,29 C26,29.291667 25.90625,29.53125 25.71875,29.71875 C25.53125,29.90625 25.291667,30 25,30 L7,30 Z M25,32 C25.833333,32 26.541667,31.708333 27.125,31.125 C27.708333,30.541667 28,29.833333 28,29 L28,8.25 C28,7.41666698 27.708333,6.70833302 27.125,6.125 L21.875,0.875 C21.291667,0.291666985 20.583333,0 19.75,0 L7,0 C6.16666698,0 5.45833302,0.291666985 4.875,0.875 C4.29166698,1.45833302 4,2.16666698 4,3 L4,29 C4,29.833333 4.29166698,30.541667 4.875,31.125 C5.45833302,31.708333 6.16666698,32 7,32 L25,32 Z M20,8 L20,2 C20.166667,2.08333302 20.3125,2.1875 20.4375,2.3125 L25.6875,7.5625 C25.8125,7.6875 25.916667,7.83333302 26,8 L20,8 Z M7,30 C6.70833302,30 6.46875,29.90625 6.28125,29.71875 C6.09375,29.53125 6,29.291667 6,29 L6,3 C6,2.70833302 6.09375,2.46875 6.28125,2.28125 C6.46875,2.09375 6.70833302,2 7,2 L18,2 L18,8.5 C18,8.91666698 18.145833,9.27083302 18.4375,9.5625 C18.729167,9.85416698 19.083333,10 19.5,10 L26,10 L26,29 C26,29.291667 25.90625,29.53125 25.71875,29.71875 C25.53125,29.90625 25.291667,30 25,30 L7,30 Z" id="path-1"></path>
    </defs>
    <g id="Symbols" stroke="none" stroke-width="1" fill="none" fill-rule="evenodd">
        <g id="Atom/Icon/Cog-File">
            <rect id="Frame" x="0" y="0" width="48" height="48"></rect>
            <mask id="mask-2" fill="white">
                <use xlink:href="#path-1"></use>
            </mask>
            <use id="Icon" fill="#70ada3" fill-rule="nonzero" xlink:href="#path-1"></use>
            <g id="Group" mask="url(#mask-2)">
                <g transform="translate(-34.000000, -33.840376)">
                    <rect id="Colour/Primary/Teal" fill="#70ada3" x="0" y="0" width="100" height="100"></rect>
                </g>
            </g>
        </g>
    </g>
</svg>