<?xml version="1.0" encoding="UTF-8"?>
<svg width="24px" height="24px" viewBox="0 0 32 32" version="1.1" xmlns="http://www.w3.org/2000/svg" xmlns:xlink="http://www.w3.org/1999/xlink">
    <title>75774EF2-4F3D-46EC-B955-05040335CA66@3x</title>
    <defs>
        <path d="M28.8049805,29 C29.4700195,29 30.0850098,28.796875 30.5950195,28.4464645 C30.9350098,28.2128906 31.2299805,27.9132614 31.4600098,27.5679588 C31.8,27.0499802 32,26.4253807 32,25.75 C32,25.0746193 31.8,24.4500198 31.4549805,23.9320412 C31.3399902,23.7593651 31.2049805,23.5968552 31.0649902,23.4496193 C30.9200195,23.3023338 30.7600098,23.1703224 30.5899902,23.0535355 C30.0799805,22.703125 29.4649902,22.5 28.8,22.5 C28.1350098,22.5 27.5200195,22.703125 27.0100098,23.0535355 C26.8450195,23.1652145 26.6950195,23.2921677 26.5549805,23.4343948 L21.9649902,20.6363182 C22.2450195,19.9609375 22.4,19.2144432 22.4,18.4375 C22.4,15.2941208 19.8950195,12.75 16.8,12.75 C16.2350098,12.75 15.7049805,12.8617287 15.1899902,13.0140724 L13.225,8.74333954 C13.9399902,8.14923859 14.4,7.26056671 14.4,6.25 C14.4,5.57461929 14.2,4.95001984 13.8549805,4.43204117 C13.625,4.08673859 13.3299805,3.78710938 12.9899902,3.55353546 C12.4799805,3.203125 11.8649902,3 11.2,3 C10.5350098,3 9.92001953,3.203125 9.41000977,3.55353546 C9.07001953,3.78710938 8.775,4.08673859 8.54501953,4.43204117 C8.2,4.95001984 8,5.57461929 8,6.25 C8,8.04256821 9.43500977,9.5 11.2,9.5 C11.4,9.5 11.5950195,9.47460938 11.7850098,9.43905258 L13.7350098,13.6843948 C12.2100098,14.7000198 11.2,16.4468651 11.2,18.4375 C11.2,21.5808792 13.7049805,24.125 16.8,24.125 C18.55,24.125 20.0899902,23.2921677 21.1200195,22.0175781 L25.7399902,24.8308792 C25.6549805,25.1254005 25.6049805,25.430088 25.6049805,25.75 C25.6049805,27.5425682 27.0399902,29 28.8049805,29 Z M11.2,7.875 C10.3200195,7.875 9.6,7.14373016 9.6,6.25 C9.6,5.35626984 10.3200195,4.625 11.2,4.625 C12.0799805,4.625 12.8,5.35626984 12.8,6.25 C12.8,7.14373016 12.0799805,7.875 11.2,7.875 Z M28.8,12.75 C29.4649902,12.75 30.0799805,12.546875 30.5899902,12.1964645 C30.9299805,11.9628906 31.225,11.6632614 31.4549805,11.3179588 C31.8,10.7999802 32,10.1753807 32,9.5 C32,8.82461929 31.8,8.20001984 31.4549805,7.68204117 C31.3399902,7.50936508 31.2100098,7.34685516 31.0649902,7.19961929 C30.9200195,7.05233383 30.7600098,6.92032242 30.5899902,6.80353546 C30.0799805,6.453125 29.4649902,6.25 28.8,6.25 C28.1350098,6.25 27.5200195,6.453125 27.0100098,6.80353546 C26.6700195,7.03710938 26.375,7.33673859 26.1450195,7.68204117 C25.8,8.20001984 25.6,8.82461929 25.6,9.5 C25.6,11.2925682 27.0350098,12.75 28.8,12.75 Z M28.8,11.125 C27.9200195,11.125 27.2,10.3937302 27.2,9.5 C27.2,8.60626984 27.9200195,7.875 28.8,7.875 C29.6799805,7.875 30.4,8.60626984 30.4,9.5 C30.4,10.3937302 29.6799805,11.125 28.8,11.125 Z M23.2799805,15.1265526 L25.6799805,13.2984276 L24.7200195,11.9984474 L22.3200195,13.8265724 L23.2799805,15.1265526 Z M16.8,22.5 C14.5950195,22.5 12.8,20.6769333 12.8,18.4375 C12.8,16.1980667 14.5950195,14.375 16.8,14.375 C19.0049805,14.375 20.8,16.1980667 20.8,18.4375 C20.8,20.6769333 19.0049805,22.5 16.8,22.5 Z M3.2,21.6875 C4.96499023,21.6875 6.4,20.2300682 6.4,18.4375 C6.4,17.7621193 6.2,17.1375198 5.85498047,16.6195412 C5.625,16.2742386 5.32998047,15.9746094 4.98999023,15.7410355 C4.47998047,15.390625 3.86499023,15.1875 3.2,15.1875 C2.53500977,15.1875 1.92001953,15.390625 1.41000977,15.7410355 C1.07001953,15.9746094 0.775,16.2742386 0.545019531,16.6195412 C0.2,17.1375198 0,17.7621193 0,18.4375 C0,20.2300682 1.43500977,21.6875 3.2,21.6875 Z M3.2,20.0625 C2.32001953,20.0625 1.6,19.3312302 1.6,18.4375 C1.6,17.5437698 2.32001953,16.8125 3.2,16.8125 C4.07998047,16.8125 4.8,17.5437698 4.8,18.4375 C4.8,19.3312302 4.07998047,20.0625 3.2,20.0625 Z M10,19.25 L10,17.625 L7.6,17.625 L7.6,19.25 L10,19.25 Z M28.8,27.375 C27.9200195,27.375 27.2,26.6437302 27.2,25.75 C27.2,24.8562698 27.9200195,24.125 28.8,24.125 C29.6799805,24.125 30.4,24.8562698 30.4,25.75 C30.4,26.6437302 29.6799805,27.375 28.8,27.375 Z M28.8049805,29 C29.4700195,29 30.0850098,28.796875 30.5950195,28.4464645 C30.9350098,28.2128906 31.2299805,27.9132614 31.4600098,27.5679588 C31.8,27.0499802 32,26.4253807 32,25.75 C32,25.0746193 31.8,24.4500198 31.4549805,23.9320412 C31.3399902,23.7593651 31.2049805,23.5968552 31.0649902,23.4496193 C30.9200195,23.3023338 30.7600098,23.1703224 30.5899902,23.0535355 C30.0799805,22.703125 29.4649902,22.5 28.8,22.5 C28.1350098,22.5 27.5200195,22.703125 27.0100098,23.0535355 C26.8450195,23.1652145 26.6950195,23.2921677 26.5549805,23.4343948 L21.9649902,20.6363182 C22.2450195,19.9609375 22.4,19.2144432 22.4,18.4375 C22.4,15.2941208 19.8950195,12.75 16.8,12.75 C16.2350098,12.75 15.7049805,12.8617287 15.1899902,13.0140724 L13.225,8.74333954 C13.9399902,8.14923859 14.4,7.26056671 14.4,6.25 C14.4,5.57461929 14.2,4.95001984 13.8549805,4.43204117 C13.625,4.08673859 13.3299805,3.78710938 12.9899902,3.55353546 C12.4799805,3.203125 11.8649902,3 11.2,3 C10.5350098,3 9.92001953,3.203125 9.41000977,3.55353546 C9.07001953,3.78710938 8.775,4.08673859 8.54501953,4.43204117 C8.2,4.95001984 8,5.57461929 8,6.25 C8,8.04256821 9.43500977,9.5 11.2,9.5 C11.4,9.5 11.5950195,9.47460938 11.7850098,9.43905258 L13.7350098,13.6843948 C12.2100098,14.7000198 11.2,16.4468651 11.2,18.4375 C11.2,21.5808792 13.7049805,24.125 16.8,24.125 C18.55,24.125 20.0899902,23.2921677 21.1200195,22.0175781 L25.7399902,24.8308792 C25.6549805,25.1254005 25.6049805,25.430088 25.6049805,25.75 C25.6049805,27.5425682 27.0399902,29 28.8049805,29 Z M11.2,7.875 C10.3200195,7.875 9.6,7.14373016 9.6,6.25 C9.6,5.35626984 10.3200195,4.625 11.2,4.625 C12.0799805,4.625 12.8,5.35626984 12.8,6.25 C12.8,7.14373016 12.0799805,7.875 11.2,7.875 Z M28.8,12.75 C29.4649902,12.75 30.0799805,12.546875 30.5899902,12.1964645 C30.9299805,11.9628906 31.225,11.6632614 31.4549805,11.3179588 C31.8,10.7999802 32,10.1753807 32,9.5 C32,8.82461929 31.8,8.20001984 31.4549805,7.68204117 C31.3399902,7.50936508 31.2100098,7.34685516 31.0649902,7.19961929 C30.9200195,7.05233383 30.7600098,6.92032242 30.5899902,6.80353546 C30.0799805,6.453125 29.4649902,6.25 28.8,6.25 C28.1350098,6.25 27.5200195,6.453125 27.0100098,6.80353546 C26.6700195,7.03710938 26.375,7.33673859 26.1450195,7.68204117 C25.8,8.20001984 25.6,8.82461929 25.6,9.5 C25.6,11.2925682 27.0350098,12.75 28.8,12.75 Z M28.8,11.125 C27.9200195,11.125 27.2,10.3937302 27.2,9.5 C27.2,8.60626984 27.9200195,7.875 28.8,7.875 C29.6799805,7.875 30.4,8.60626984 30.4,9.5 C30.4,10.3937302 29.6799805,11.125 28.8,11.125 Z M23.2799805,15.1265526 L25.6799805,13.2984276 L24.7200195,11.9984474 L22.3200195,13.8265724 L23.2799805,15.1265526 Z M16.8,22.5 C14.5950195,22.5 12.8,20.6769333 12.8,18.4375 C12.8,16.1980667 14.5950195,14.375 16.8,14.375 C19.0049805,14.375 20.8,16.1980667 20.8,18.4375 C20.8,20.6769333 19.0049805,22.5 16.8,22.5 Z M3.2,21.6875 C4.96499023,21.6875 6.4,20.2300682 6.4,18.4375 C6.4,17.7621193 6.2,17.1375198 5.85498047,16.6195412 C5.625,16.2742386 5.32998047,15.9746094 4.98999023,15.7410355 C4.47998047,15.390625 3.86499023,15.1875 3.2,15.1875 C2.53500977,15.1875 1.92001953,15.390625 1.41000977,15.7410355 C1.07001953,15.9746094 0.775,16.2742386 0.545019531,16.6195412 C0.2,17.1375198 0,17.7621193 0,18.4375 C0,20.2300682 1.43500977,21.6875 3.2,21.6875 Z M3.2,20.0625 C2.32001953,20.0625 1.6,19.3312302 1.6,18.4375 C1.6,17.5437698 2.32001953,16.8125 3.2,16.8125 C4.07998047,16.8125 4.8,17.5437698 4.8,18.4375 C4.8,19.3312302 4.07998047,20.0625 3.2,20.0625 Z M10,19.25 L10,17.625 L7.6,17.625 L7.6,19.25 L10,19.25 Z M28.8,27.375 C27.9200195,27.375 27.2,26.6437302 27.2,25.75 C27.2,24.8562698 27.9200195,24.125 28.8,24.125 C29.6799805,24.125 30.4,24.8562698 30.4,25.75 C30.4,26.6437302 29.6799805,27.375 28.8,27.375 Z" id="path-1"></path>
    </defs>
    <g id="Symbols" stroke="none" stroke-width="1" fill="none" fill-rule="evenodd">
        <g id="Atom/Icon/Network">
            <rect id="Frame" x="0" y="0" width="24" height="24"></rect>
            <mask id="mask-2" fill="white">
                <use xlink:href="#path-1"></use>
            </mask>
            <use id="Icon" fill="rgba(0%,0%,0%, 50%)" fill-rule="nonzero" xlink:href="#path-1"></use>
            <g id="Group" mask="url(#mask-2)">
                <g transform="translate(-34.000000, -33.840376)">
                    <rect id="Colour/General/Black" fill="rgba(0%,0%,0%, 50%)" x="0" y="0" width="100" height="100"></rect>
                </g>
            </g>
        </g>
    </g>
</svg>