<?xml version="1.0" encoding="UTF-8"?>
<svg width="40px" height="40px" viewBox="0 0 32 32" version="1.1" xmlns="http://www.w3.org/2000/svg" xmlns:xlink="http://www.w3.org/1999/xlink">
    <title>3719C74A-16EA-40BA-9BB8-3954866CB245@3x</title>
    <defs>
        <path d="M1.45107403,31.9982643 L1.69407688,31.993057 L8.81753097,31.1807333 L30.8127577,9.1855066 C31.6042529,8.39401138 32,7.44630102 32,6.3423736 C32,5.23844619 31.6042529,4.29073583 30.8127577,3.49924061 L30.8127577,3.49924061 L28.5007594,1.18724235 C27.7092642,0.395747132 26.7615538,0 25.6576264,0 C24.553699,0 23.6059886,0.395747132 22.8144934,1.18724235 L22.8144934,1.18724235 L0.819266724,23.182469 L0.00694301096,30.3059231 C-0.0347149332,30.8058146 0.111087394,31.2223912 0.444348087,31.5556519 C0.777608779,31.8889126 1.19418536,32.0347149 1.69407688,31.993057 L1.45107403,31.9982643 Z M26.313734,10.8726405 L21.1273595,5.68626599 L24.2516815,2.56194402 C24.6266001,2.18702538 25.0952484,1.99956606 25.6576264,1.99956606 C26.2200044,1.99956606 26.6886526,2.18702538 27.0635713,2.56194402 L27.0635713,2.56194402 L29.438056,4.93642872 C29.8129746,5.31134735 30.0004339,5.77999565 30.0004339,6.3423736 C30.0004339,6.90475156 29.8129746,7.37339985 29.438056,7.74831849 L29.438056,7.74831849 L26.313734,10.8726405 Z M10.8795835,26.306791 L10.8795835,24.1197656 L7.88023438,24.1197656 L7.88023438,21.1204165 L5.693209,21.1204165 L19.6901714,7.1234541 L24.8765459,12.3098286 L10.8795835,26.306791 Z M4.19353445,29.6810587 L2.31894127,27.8064655 L2.69385991,24.1197656 L3.9435887,22.8700368 L6.13061408,22.8700368 L6.13061408,25.8693859 L9.12996317,25.8693859 L9.12996317,28.0564113 L7.88023438,29.3061401 L4.19353445,29.6810587 Z M1.45107403,31.9982643 L1.69407688,31.993057 L8.81753097,31.1807333 L30.8127577,9.1855066 C31.6042529,8.39401138 32,7.44630102 32,6.3423736 C32,5.23844619 31.6042529,4.29073583 30.8127577,3.49924061 L30.8127577,3.49924061 L28.5007594,1.18724235 C27.7092642,0.395747132 26.7615538,0 25.6576264,0 C24.553699,0 23.6059886,0.395747132 22.8144934,1.18724235 L22.8144934,1.18724235 L0.819266724,23.182469 L0.00694301096,30.3059231 C-0.0347149332,30.8058146 0.111087394,31.2223912 0.444348087,31.5556519 C0.777608779,31.8889126 1.19418536,32.0347149 1.69407688,31.993057 L1.45107403,31.9982643 Z M26.313734,10.8726405 L21.1273595,5.68626599 L24.2516815,2.56194402 C24.6266001,2.18702538 25.0952484,1.99956606 25.6576264,1.99956606 C26.2200044,1.99956606 26.6886526,2.18702538 27.0635713,2.56194402 L27.0635713,2.56194402 L29.438056,4.93642872 C29.8129746,5.31134735 30.0004339,5.77999565 30.0004339,6.3423736 C30.0004339,6.90475156 29.8129746,7.37339985 29.438056,7.74831849 L29.438056,7.74831849 L26.313734,10.8726405 Z M10.8795835,26.306791 L10.8795835,24.1197656 L7.88023438,24.1197656 L7.88023438,21.1204165 L5.693209,21.1204165 L19.6901714,7.1234541 L24.8765459,12.3098286 L10.8795835,26.306791 Z M4.19353445,29.6810587 L2.31894127,27.8064655 L2.69385991,24.1197656 L3.9435887,22.8700368 L6.13061408,22.8700368 L6.13061408,25.8693859 L9.12996317,25.8693859 L9.12996317,28.0564113 L7.88023438,29.3061401 L4.19353445,29.6810587 Z" id="path-1"></path>
    </defs>
    <g id="Symbols" stroke="none" stroke-width="1" fill="none" fill-rule="evenodd">
        <g id="Atom/Icon/Pencil">
            <rect id="Frame" x="0" y="0" width="40" height="40"></rect>
            <mask id="mask-2" fill="white">
                <use xlink:href="#path-1"></use>
            </mask>
            <use id="Icon" fill="#FFFFFF" fill-rule="nonzero" xlink:href="#path-1"></use>
            <g id="Group" mask="url(#mask-2)">
                <g transform="translate(-34.000000, -33.840376)">
                    <rect id="Colour/General/White" fill="#FFFFFF" x="0" y="0" width="100" height="100"></rect>
                </g>
            </g>
        </g>
    </g>
</svg>