<?xml version="1.0" encoding="UTF-8"?>
<svg width="40px" height="40px" viewBox="0 0 32 32" version="1.1" xmlns="http://www.w3.org/2000/svg" xmlns:xlink="http://www.w3.org/1999/xlink">
    <title>E46D5376-2E9C-45B3-91DE-C7F1ACDD970E@3x</title>
    <defs>
        <path d="M16,32 C24.8365675,32 32,24.8365675 32,16 C32,7.16343246 24.8365675,0 16,0 C7.16343246,0 0,7.16343246 0,16 C0,24.8365675 7.16343246,32 16,32 Z M16,29.9354839 C8.34431704,29.9354839 2.06451613,23.7384073 2.06451613,16 C2.06451613,8.34431704 8.26159274,2.06451613 16,2.06451613 C23.655683,2.06451613 29.9354839,8.26159274 29.9354839,16 C29.9354839,23.655683 23.7384073,29.9354839 16,29.9354839 Z M16,21.1612903 C18.8504914,21.1612903 21.1612903,18.8504914 21.1612903,16 C21.1612903,13.1495086 18.8504914,10.8387097 16,10.8387097 C13.1495086,10.8387097 10.8387097,13.1495086 10.8387097,16 C10.8387097,18.8504914 13.1495086,21.1612903 16,21.1612903 Z M16,19.0967742 C14.2924647,19.0967742 12.9032258,17.7075353 12.9032258,16 C12.9032258,14.2924647 14.2924647,12.9032258 16,12.9032258 C17.7075353,12.9032258 19.0967742,14.2924647 19.0967742,16 C19.0967742,17.7075353 17.7075353,19.0967742 16,19.0967742 Z M16,32 C24.8365675,32 32,24.8365675 32,16 C32,7.16343246 24.8365675,0 16,0 C7.16343246,0 0,7.16343246 0,16 C0,24.8365675 7.16343246,32 16,32 Z M16,29.9354839 C8.34431704,29.9354839 2.06451613,23.7384073 2.06451613,16 C2.06451613,8.34431704 8.26159274,2.06451613 16,2.06451613 C23.655683,2.06451613 29.9354839,8.26159274 29.9354839,16 C29.9354839,23.655683 23.7384073,29.9354839 16,29.9354839 Z M16,21.1612903 C18.8504914,21.1612903 21.1612903,18.8504914 21.1612903,16 C21.1612903,13.1495086 18.8504914,10.8387097 16,10.8387097 C13.1495086,10.8387097 10.8387097,13.1495086 10.8387097,16 C10.8387097,18.8504914 13.1495086,21.1612903 16,21.1612903 Z M16,19.0967742 C14.2924647,19.0967742 12.9032258,17.7075353 12.9032258,16 C12.9032258,14.2924647 14.2924647,12.9032258 16,12.9032258 C17.7075353,12.9032258 19.0967742,14.2924647 19.0967742,16 C19.0967742,17.7075353 17.7075353,19.0967742 16,19.0967742 Z" id="path-1"></path>
    </defs>
    <g id="Symbols" stroke="none" stroke-width="1" fill="none" fill-rule="evenodd">
        <g id="Atom/Icon/Target">
            <rect id="Frame" x="0" y="0" width="40" height="40"></rect>
            <mask id="mask-2" fill="white">
                <use xlink:href="#path-1"></use>
            </mask>
            <use id="Icon" fill="#FFFFFF" fill-rule="nonzero" xlink:href="#path-1"></use>
            <g id="Group" mask="url(#mask-2)">
                <g transform="translate(-34.000000, -33.840376)">
                    <rect id="Colour/General/Black" fill="#FFFFFF" x="0" y="0" width="100" height="100"></rect>
                </g>
            </g>
        </g>
    </g>
</svg>