<?xml version="1.0" encoding="UTF-8"?>
<svg width="42px" height="42px" viewBox="0 0 32 32" version="1.1" xmlns="http://www.w3.org/2000/svg" xmlns:xlink="http://www.w3.org/1999/xlink">
    <title>8F583E93-F323-4A55-8B42-7A5C61172637@3x</title>
    <defs>
        <path d="M3.44078123,32 C8.60685467,32 13.3979702,30.7084814 17.8141298,28.1254452 C22.1469651,25.5840702 25.5632395,22.1677966 28.0629523,17.8766227 C30.6876508,13.4188018 32,8.5860231 32,3.37828841 C32,2.96166929 31.8541837,2.57629754 31.5625503,2.22217124 C31.2709168,1.86804494 30.9167914,1.62848945 30.5001723,1.50350381 L30.5001723,1.50350381 L24.1883975,0.0661689452 C23.7301171,-0.058816695 23.2926674,-0.00673966277 22.8760483,0.222400995 C22.4594292,0.451541653 22.1469651,0.774420588 21.938656,1.19103971 L21.938656,1.19103971 L19.0639862,7.94026427 C18.8973384,8.35688339 18.866092,8.77350156 18.970247,9.19012068 C19.074402,9.60673979 19.2931269,9.96086514 19.6264216,10.2524986 L19.6264216,10.2524986 L23.0010339,13.0021827 C21.9178253,15.1686008 20.5221517,17.1058782 18.814015,18.814015 C17.1058782,20.5221517 15.1686008,21.9178253 13.0021827,23.0010339 L13.0021827,23.0010339 L10.2524986,19.6264216 C9.96086514,19.2931269 9.60673979,19.074402 9.19012068,18.970247 C8.77350156,18.866092 8.35688339,18.8973384 7.94026427,19.0639862 L7.94026427,19.0639862 L1.19103971,21.938656 C0.774420588,22.1469651 0.451541653,22.4594292 0.222400995,22.8760483 C-0.00673966277,23.2926674 -0.058816695,23.7301171 0.0661689452,24.1883975 L0.0661689452,24.1883975 L1.50350381,30.5001723 C1.62848945,30.9167914 1.86804494,31.2709168 2.22217124,31.5625503 C2.57629754,31.8541837 2.98250087,32 3.44078123,32 Z M3.44078123,30.0002298 L2.00344637,23.7509478 L8.75267093,20.876278 L12.4397473,25.4382539 C15.689374,23.9384262 18.2932418,22.2094579 20.2513498,20.2513498 C22.2094579,18.2932418 23.9384262,15.689374 25.4382539,12.4397473 L25.4382539,12.4397473 L20.876278,8.75267093 L23.7509478,2.00344637 L30.0002298,3.44078123 C30.0002298,8.23189775 28.7920356,12.6897186 26.3756462,16.8142447 C24.000919,20.8554474 20.8137852,24.0425812 16.8142447,26.3756462 C12.6897186,28.7920356 8.23189775,30.0002298 3.44078123,30.0002298 L3.44078123,30.0002298 Z M3.44078123,32 C8.60685467,32 13.3979702,30.7084814 17.8141298,28.1254452 C22.1469651,25.5840702 25.5632395,22.1677966 28.0629523,17.8766227 C30.6876508,13.4188018 32,8.5860231 32,3.37828841 C32,2.96166929 31.8541837,2.57629754 31.5625503,2.22217124 C31.2709168,1.86804494 30.9167914,1.62848945 30.5001723,1.50350381 L30.5001723,1.50350381 L24.1883975,0.0661689452 C23.7301171,-0.058816695 23.2926674,-0.00673966277 22.8760483,0.222400995 C22.4594292,0.451541653 22.1469651,0.774420588 21.938656,1.19103971 L21.938656,1.19103971 L19.0639862,7.94026427 C18.8973384,8.35688339 18.866092,8.77350156 18.970247,9.19012068 C19.074402,9.60673979 19.2931269,9.96086514 19.6264216,10.2524986 L19.6264216,10.2524986 L23.0010339,13.0021827 C21.9178253,15.1686008 20.5221517,17.1058782 18.814015,18.814015 C17.1058782,20.5221517 15.1686008,21.9178253 13.0021827,23.0010339 L13.0021827,23.0010339 L10.2524986,19.6264216 C9.96086514,19.2931269 9.60673979,19.074402 9.19012068,18.970247 C8.77350156,18.866092 8.35688339,18.8973384 7.94026427,19.0639862 L7.94026427,19.0639862 L1.19103971,21.938656 C0.774420588,22.1469651 0.451541653,22.4594292 0.222400995,22.8760483 C-0.00673966277,23.2926674 -0.058816695,23.7301171 0.0661689452,24.1883975 L0.0661689452,24.1883975 L1.50350381,30.5001723 C1.62848945,30.9167914 1.86804494,31.2709168 2.22217124,31.5625503 C2.57629754,31.8541837 2.98250087,32 3.44078123,32 Z M3.44078123,30.0002298 L2.00344637,23.7509478 L8.75267093,20.876278 L12.4397473,25.4382539 C15.689374,23.9384262 18.2932418,22.2094579 20.2513498,20.2513498 C22.2094579,18.2932418 23.9384262,15.689374 25.4382539,12.4397473 L25.4382539,12.4397473 L20.876278,8.75267093 L23.7509478,2.00344637 L30.0002298,3.44078123 C30.0002298,8.23189775 28.7920356,12.6897186 26.3756462,16.8142447 C24.000919,20.8554474 20.8137852,24.0425812 16.8142447,26.3756462 C12.6897186,28.7920356 8.23189775,30.0002298 3.44078123,30.0002298 L3.44078123,30.0002298 Z" id="path-1"></path>
    </defs>
    <g id="Symbols" stroke="none" stroke-width="1" fill="none" fill-rule="evenodd">
        <g id="Atom/Icon/Phone">
            <rect id="Frame" x="0" y="0" width="42" height="42"></rect>
            <mask id="mask-2" fill="white">
                <use xlink:href="#path-1"></use>
            </mask>
            <use id="Icon" fill="#FFFFFF" fill-rule="nonzero" xlink:href="#path-1"></use>
            <g id="Group" mask="url(#mask-2)">
                <g transform="translate(-34.000000, -33.840376)">
                    <rect id="Colour/General/Black" fill="#FFFFFF" x="0" y="0" width="100" height="100"></rect>
                </g>
            </g>
        </g>
    </g>
</svg>