<?xml version="1.0" encoding="UTF-8"?>
<svg width="55px" height="56px" viewBox="0 0 32 32" version="1.1" xmlns="http://www.w3.org/2000/svg" xmlns:xlink="http://www.w3.org/1999/xlink">
    <title>7F54D9AB-1683-499C-842C-69E359083E2F@3x</title>
    <defs>
        <path d="M16,32 C18.8817208,32 21.5483871,31.2795696 24,29.8387097 C26.4516129,28.3978498 28.3978498,26.4516129 29.8387097,24 C31.2795696,21.5483871 32,18.8817208 32,16 C32,13.1182792 31.2795696,10.4516129 29.8387097,8 C28.3978498,5.5483871 26.4516129,3.60215021 24,2.16129032 C21.5483871,0.720430436 18.8817208,0 16,0 C13.1182792,0 10.4516129,0.720430436 8,2.16129032 C5.5483871,3.60215021 3.60215021,5.5483871 2.16129032,8 C0.720430436,10.4516129 0,13.1182792 0,16 C0,18.8817208 0.720430436,21.5483871 2.16129032,24 C3.60215021,26.4516129 5.5483871,28.3978498 8,29.8387097 C10.4516129,31.2795696 13.1182792,32 16,32 Z M16,29.9354839 C13.4623659,29.9354839 11.1290323,29.3118276 9,28.0645161 C6.87096774,26.8172046 5.18279537,25.1290323 3.93548387,23 C2.68817237,20.8709677 2.06451613,18.5376341 2.06451613,16 C2.06451613,13.4623659 2.68817237,11.1290323 3.93548387,9 C5.18279537,6.87096774 6.87096774,5.18279537 9,3.93548387 C11.1290323,2.68817237 13.4623659,2.06451613 16,2.06451613 C18.494624,2.06451613 20.8172046,2.68817237 22.9677419,3.93548387 C25.1182792,5.18279537 26.8172046,6.87096774 28.0645161,9 C29.3118276,11.1290323 29.9354839,13.4623659 29.9354839,16 C29.9354839,18.5376341 29.3118276,20.8709677 28.0645161,23 C26.8172046,25.1290323 25.1290323,26.8172046 23,28.0645161 C20.8709677,29.3118276 18.5376341,29.9354839 16,29.9354839 Z M16.516129,19.8709677 C16.7311825,19.8709677 16.9139788,19.7956986 17.0645161,19.6451613 C17.2150534,19.494624 17.2903226,19.3118276 17.2903226,19.0967742 C17.2903226,18.5376341 17.483871,18.021505 17.8709677,17.5483871 C18.1290323,17.2903226 18.6236562,16.9247309 19.3548387,16.4516129 C20.3010756,15.8494627 20.9677419,15.3118276 21.3548387,14.8387097 C21.9569889,14.1075272 22.2580645,13.2043014 22.2580645,12.1290323 C22.2580645,10.5806452 21.6559143,9.33333366 20.4516129,8.38709677 C19.2473115,7.44085989 17.7634405,6.96774194 16,6.96774194 C14.6236562,6.96774194 13.4408599,7.22580645 12.4516129,7.74193548 C11.6344083,8.21505344 10.8387097,8.92473085 10.0645161,9.87096774 C9.93548387,10.0430111 9.89247279,10.2365595 9.93548387,10.4516129 C9.97849495,10.6666663 10.0860212,10.8387097 10.2580645,10.9677419 L10.2580645,10.9677419 L11.0967742,11.5483871 C11.2688175,11.6774194 11.4623659,11.7204304 11.6774194,11.6774194 C11.8924728,11.6344083 12.0430111,11.5483871 12.1290323,11.4193548 C12.6451613,10.7741935 13.1935484,10.3010756 13.7741935,10 C14.3548387,9.6989244 15.0967742,9.5483871 16,9.5483871 C17.2043014,9.5483871 18.1290323,9.82795666 18.7741935,10.3870968 C19.3763438,10.8602147 19.6774194,11.4408599 19.6774194,12.1290323 C19.6774194,12.6881724 19.4623659,13.1827954 19.0322581,13.6129032 C18.8172046,13.8709677 18.3440857,14.2365595 17.6129032,14.7096774 C16.6666663,15.3118276 16,15.8279567 15.6129032,16.2580645 C15.010753,17.0322581 14.7096774,17.978495 14.7096774,19.0967742 C14.7096774,19.3118276 14.7849466,19.494624 14.9354839,19.6451613 C15.0860212,19.7956986 15.2688175,19.8709677 15.483871,19.8709677 L15.483871,19.8709677 L16.516129,19.8709677 Z M16,25.0322581 C16.516129,25.0322581 16.9462369,24.8602147 17.2903226,24.516129 C17.6344083,24.1720433 17.8064516,23.7419355 17.8064516,23.2258065 C17.8064516,22.7096774 17.6344083,22.2795696 17.2903226,21.9354839 C16.9462369,21.5913982 16.516129,21.4193548 16,21.4193548 C15.483871,21.4193548 15.0537631,21.5913982 14.7096774,21.9354839 C14.3655917,22.2795696 14.1935484,22.7096774 14.1935484,23.2258065 C14.1935484,23.7419355 14.3655917,24.1720433 14.7096774,24.516129 C15.0537631,24.8602147 15.483871,25.0322581 16,25.0322581 Z M16,32 C18.8817208,32 21.5483871,31.2795696 24,29.8387097 C26.4516129,28.3978498 28.3978498,26.4516129 29.8387097,24 C31.2795696,21.5483871 32,18.8817208 32,16 C32,13.1182792 31.2795696,10.4516129 29.8387097,8 C28.3978498,5.5483871 26.4516129,3.60215021 24,2.16129032 C21.5483871,0.720430436 18.8817208,0 16,0 C13.1182792,0 10.4516129,0.720430436 8,2.16129032 C5.5483871,3.60215021 3.60215021,5.5483871 2.16129032,8 C0.720430436,10.4516129 0,13.1182792 0,16 C0,18.8817208 0.720430436,21.5483871 2.16129032,24 C3.60215021,26.4516129 5.5483871,28.3978498 8,29.8387097 C10.4516129,31.2795696 13.1182792,32 16,32 Z M16,29.9354839 C13.4623659,29.9354839 11.1290323,29.3118276 9,28.0645161 C6.87096774,26.8172046 5.18279537,25.1290323 3.93548387,23 C2.68817237,20.8709677 2.06451613,18.5376341 2.06451613,16 C2.06451613,13.4623659 2.68817237,11.1290323 3.93548387,9 C5.18279537,6.87096774 6.87096774,5.18279537 9,3.93548387 C11.1290323,2.68817237 13.4623659,2.06451613 16,2.06451613 C18.494624,2.06451613 20.8172046,2.68817237 22.9677419,3.93548387 C25.1182792,5.18279537 26.8172046,6.87096774 28.0645161,9 C29.3118276,11.1290323 29.9354839,13.4623659 29.9354839,16 C29.9354839,18.5376341 29.3118276,20.8709677 28.0645161,23 C26.8172046,25.1290323 25.1290323,26.8172046 23,28.0645161 C20.8709677,29.3118276 18.5376341,29.9354839 16,29.9354839 Z M16.516129,19.8709677 C16.7311825,19.8709677 16.9139788,19.7956986 17.0645161,19.6451613 C17.2150534,19.494624 17.2903226,19.3118276 17.2903226,19.0967742 C17.2903226,18.5376341 17.483871,18.021505 17.8709677,17.5483871 C18.1290323,17.2903226 18.6236562,16.9247309 19.3548387,16.4516129 C20.3010756,15.8494627 20.9677419,15.3118276 21.3548387,14.8387097 C21.9569889,14.1075272 22.2580645,13.2043014 22.2580645,12.1290323 C22.2580645,10.5806452 21.6559143,9.33333366 20.4516129,8.38709677 C19.2473115,7.44085989 17.7634405,6.96774194 16,6.96774194 C14.6236562,6.96774194 13.4408599,7.22580645 12.4516129,7.74193548 C11.6344083,8.21505344 10.8387097,8.92473085 10.0645161,9.87096774 C9.93548387,10.0430111 9.89247279,10.2365595 9.93548387,10.4516129 C9.97849495,10.6666663 10.0860212,10.8387097 10.2580645,10.9677419 L10.2580645,10.9677419 L11.0967742,11.5483871 C11.2688175,11.6774194 11.4623659,11.7204304 11.6774194,11.6774194 C11.8924728,11.6344083 12.0430111,11.5483871 12.1290323,11.4193548 C12.6451613,10.7741935 13.1935484,10.3010756 13.7741935,10 C14.3548387,9.6989244 15.0967742,9.5483871 16,9.5483871 C17.2043014,9.5483871 18.1290323,9.82795666 18.7741935,10.3870968 C19.3763438,10.8602147 19.6774194,11.4408599 19.6774194,12.1290323 C19.6774194,12.6881724 19.4623659,13.1827954 19.0322581,13.6129032 C18.8172046,13.8709677 18.3440857,14.2365595 17.6129032,14.7096774 C16.6666663,15.3118276 16,15.8279567 15.6129032,16.2580645 C15.010753,17.0322581 14.7096774,17.978495 14.7096774,19.0967742 C14.7096774,19.3118276 14.7849466,19.494624 14.9354839,19.6451613 C15.0860212,19.7956986 15.2688175,19.8709677 15.483871,19.8709677 L15.483871,19.8709677 L16.516129,19.8709677 Z M16,25.0322581 C16.516129,25.0322581 16.9462369,24.8602147 17.2903226,24.516129 C17.6344083,24.1720433 17.8064516,23.7419355 17.8064516,23.2258065 C17.8064516,22.7096774 17.6344083,22.2795696 17.2903226,21.9354839 C16.9462369,21.5913982 16.516129,21.4193548 16,21.4193548 C15.483871,21.4193548 15.0537631,21.5913982 14.7096774,21.9354839 C14.3655917,22.2795696 14.1935484,22.7096774 14.1935484,23.2258065 C14.1935484,23.7419355 14.3655917,24.1720433 14.7096774,24.516129 C15.0537631,24.8602147 15.483871,25.0322581 16,25.0322581 Z" id="path-1"></path>
    </defs>
    <g id="Symbols" stroke="none" stroke-width="1" fill="none" fill-rule="evenodd">
        <g id="Atom/Icon/Question-Circle">
            <rect id="Frame" x="0" y="0" width="55" height="56"></rect>
            <mask id="mask-2" fill="white">
                <use xlink:href="#path-1"></use>
            </mask>
            <use id="Icon" fill="#000000" fill-rule="nonzero" xlink:href="#path-1"></use>
            <g id="Group" mask="url(#mask-2)">
                <g transform="translate(-34.000000, -33.840376)">
                    <rect id="Colour/General/Black" fill="#000000" x="0" y="0" width="100" height="100"></rect>
                </g>
            </g>
        </g>
    </g>
</svg>