<?xml version="1.0" encoding="UTF-8"?>
<svg width="32px" height="32px" viewBox="0 0 32 32" version="1.1" xmlns="http://www.w3.org/2000/svg" xmlns:xlink="http://www.w3.org/1999/xlink">
    <title>13A82821-8817-4D7E-9D99-3A8F18F07B86@3x</title>
    <defs>
        <path d="M27.9937019,26 C29.188641,26 29.9936899,25.0250244 29.9999583,24 C30.0030282,23.5281372 29.8367694,23.0456543 29.4617717,22.6431274 C28.2543205,21.3456421 25.9949347,19.3937378 25.9949347,13 C25.9949347,8.14373779 22.589987,4.25622559 17.9987672,3.30249023 L17.9987672,2 C17.9987672,0.895629883 17.1037531,0 16,0 C14.8962469,0 14.0012328,0.895629883 14.0012328,2 L14.0012328,3.30249023 C9.41001296,4.25622559 6.00506527,8.14373779 6.00506527,13 C6.00506527,19.3937378 3.74567951,21.3456421 2.53822831,22.6431274 C2.16323058,23.0462646 1.99697181,23.5281372 2.00004171,24 C2.00698152,25.0250244 2.81135898,26 4.00629805,26 L27.9937019,26 Z M16,32 C18.2075062,32 19.9980838,30.2093506 19.9980838,28 L12.0019162,28 C12.0019162,30.2093506 13.7924938,32 16,32 Z M27.9937019,26 C29.188641,26 29.9936899,25.0250244 29.9999583,24 C30.0030282,23.5281372 29.8367694,23.0456543 29.4617717,22.6431274 C28.2543205,21.3456421 25.9949347,19.3937378 25.9949347,13 C25.9949347,8.14373779 22.589987,4.25622559 17.9987672,3.30249023 L17.9987672,2 C17.9987672,0.895629883 17.1037531,0 16,0 C14.8962469,0 14.0012328,0.895629883 14.0012328,2 L14.0012328,3.30249023 C9.41001296,4.25622559 6.00506527,8.14373779 6.00506527,13 C6.00506527,19.3937378 3.74567951,21.3456421 2.53822831,22.6431274 C2.16323058,23.0462646 1.99697181,23.5281372 2.00004171,24 C2.00698152,25.0250244 2.81135898,26 4.00629805,26 L27.9937019,26 Z M16,32 C18.2075062,32 19.9980838,30.2093506 19.9980838,28 L12.0019162,28 C12.0019162,30.2093506 13.7924938,32 16,32 Z" id="path-1"></path>
    </defs>
    <g id="Symbols" stroke="none" stroke-width="1" fill="none" fill-rule="evenodd">
        <g id="Atom/Icon/Solid/Bell">
            <rect id="Frame" x="0" y="0" width="32" height="32"></rect>
            <mask id="mask-2" fill="white">
                <use xlink:href="#path-1"></use>
            </mask>
            <use id="Icon" fill="#222331" fill-rule="nonzero" xlink:href="#path-1"></use>
            <g id="Group" mask="url(#mask-2)">
                <g transform="translate(-34.000000, -33.840376)">
                    <rect id="Colour/General/Black" fill="#000000" x="0" y="0" width="100" height="100"></rect>
                </g>
            </g>
        </g>
    </g>
</svg>