<?xml version="1.0" encoding="UTF-8"?>
<svg width="24px" height="24px" viewBox="0 0 32 32" version="1.1" xmlns="http://www.w3.org/2000/svg" xmlns:xlink="http://www.w3.org/1999/xlink">
    <title>9CF0248C-91CA-4306-A52B-0CFB74A5FA85@3x</title>
    <defs>
        <path d="M25.7620804,32 C26.2745837,32 26.787026,31.8063121 27.1745315,31.4126509 L31.4182322,27.1697019 C32.1931822,26.3823795 32.1931822,25.1201129 31.4119457,24.3390149 L23.6371173,16.5592784 C22.6620976,15.5844925 21.3808698,15.0970385 20.099642,15.0970385 C19.1371954,15.0970385 18.1746876,15.3720094 17.3434643,15.9281756 L11.999807,10.585465 L11.999807,5.99883293 L3.99994584,0 L1.52585243e-05,3.99922195 L5.99991114,11.9976659 L10.5873559,11.9976659 L15.9310132,17.3403764 C14.6434989,19.2837239 14.8560197,21.9207231 16.5684533,23.6329144 L24.3495683,31.4126509 C24.7370738,31.8000877 25.2495771,32 25.7620804,32 Z M27.4183016,17.5153302 C28.0682537,17.1278934 28.6807919,16.6655199 29.2307702,16.1093537 C31.593217,13.7473255 32.5244752,10.3980015 31.7119893,7.15485803 C31.568193,6.56122352 31.1057377,6.09256469 30.5182234,5.93012071 C29.9244837,5.76761571 29.2869826,5.93012071 28.8494902,6.36753561 L24.8558461,10.3604722 L22.0933818,9.89809874 L21.6308655,7.13612388 L25.6245706,3.1431263 C26.0558375,2.7119968 26.2245357,2.07460859 26.062063,1.48719846 C25.8995902,0.89356395 25.4245618,0.437414901 24.8308221,0.287419669 C21.599616,-0.518636892 18.2496986,0.40617098 15.8809652,2.76819924 C15.0747659,3.57431683 14.4497767,4.51163447 13.9997723,5.51766433 L13.9997723,9.75432789 L15.3809739,11.1353458 C14.7810087,8.61081256 15.4810088,5.99883293 17.2997028,4.18046111 C18.7184404,2.76197487 20.5871824,1.99961098 22.5370997,1.99961098 C22.9683667,1.99961098 23.3996336,2.03707927 23.8308395,2.11207689 L19.4996769,6.4487576 L20.3621497,11.6352486 L25.5558462,12.4975686 L29.8870088,8.16717329 C30.3057637,10.5542211 29.5557768,12.9662274 27.8182581,14.6971529 C27.2620544,15.2532581 26.6245532,15.6969584 25.9432906,16.0406415 L27.4183016,17.5153302 Z M9.99984172,9.99805488 L6.99989378,9.99805488 L2.64370717,4.18668548 L4.18744259,2.64322355 L9.99984172,6.99863842 L9.99984172,9.99805488 Z M4.74370735,31.9937756 C6.01242313,31.9937756 7.206128,31.5000973 8.09985028,30.6003089 L14.4622887,24.2452831 C14.0435338,23.6703827 13.7247527,23.0392799 13.4935555,22.3831576 L6.6873992,29.1880471 C5.64994162,30.2253819 3.83747308,30.2253819 2.79995446,29.1880471 C1.73124742,28.1195294 1.73124742,26.3698698 2.79995446,25.301352 L11.9310826,16.1718416 L10.5185705,14.7596407 L1.38750339,23.8890902 C-0.462501129,25.7387669 -0.462501129,28.7506322 1.38750339,30.6065333 C2.28122567,31.5000973 3.47493054,31.9937756 4.74370735,31.9937756 Z M25.7557939,29.9941646 L17.9809654,22.2144282 C17.4121887,21.6458132 17.0996941,20.8959591 17.0996941,20.0960659 C17.0996941,19.2962337 17.4121887,18.5401552 17.9809654,17.9777646 C18.5496811,17.4090887 19.2996681,17.0966494 20.099642,17.0966494 C20.899677,17.0966494 21.6558894,17.4090887 22.2183797,17.9777646 L29.9994946,25.7512157 L25.7557939,29.9941646 Z M4.99992849,27.9945537 C5.54990674,27.9945537 5.99991114,27.544629 5.99991114,26.9947482 C5.99991114,26.4448674 5.54990674,25.9949427 4.99992849,25.9949427 C4.44995024,25.9949427 3.99994584,26.4448674 3.99994584,26.9947482 C3.99994584,27.544629 4.44995024,27.9945537 4.99992849,27.9945537 Z M25.7620804,32 C26.2745837,32 26.787026,31.8063121 27.1745315,31.4126509 L31.4182322,27.1697019 C32.1931822,26.3823795 32.1931822,25.1201129 31.4119457,24.3390149 L23.6371173,16.5592784 C22.6620976,15.5844925 21.3808698,15.0970385 20.099642,15.0970385 C19.1371954,15.0970385 18.1746876,15.3720094 17.3434643,15.9281756 L11.999807,10.585465 L11.999807,5.99883293 L3.99994584,0 L1.52585243e-05,3.99922195 L5.99991114,11.9976659 L10.5873559,11.9976659 L15.9310132,17.3403764 C14.6434989,19.2837239 14.8560197,21.9207231 16.5684533,23.6329144 L24.3495683,31.4126509 C24.7370738,31.8000877 25.2495771,32 25.7620804,32 Z M27.4183016,17.5153302 C28.0682537,17.1278934 28.6807919,16.6655199 29.2307702,16.1093537 C31.593217,13.7473255 32.5244752,10.3980015 31.7119893,7.15485803 C31.568193,6.56122352 31.1057377,6.09256469 30.5182234,5.93012071 C29.9244837,5.76761571 29.2869826,5.93012071 28.8494902,6.36753561 L24.8558461,10.3604722 L22.0933818,9.89809874 L21.6308655,7.13612388 L25.6245706,3.1431263 C26.0558375,2.7119968 26.2245357,2.07460859 26.062063,1.48719846 C25.8995902,0.89356395 25.4245618,0.437414901 24.8308221,0.287419669 C21.599616,-0.518636892 18.2496986,0.40617098 15.8809652,2.76819924 C15.0747659,3.57431683 14.4497767,4.51163447 13.9997723,5.51766433 L13.9997723,9.75432789 L15.3809739,11.1353458 C14.7810087,8.61081256 15.4810088,5.99883293 17.2997028,4.18046111 C18.7184404,2.76197487 20.5871824,1.99961098 22.5370997,1.99961098 C22.9683667,1.99961098 23.3996336,2.03707927 23.8308395,2.11207689 L19.4996769,6.4487576 L20.3621497,11.6352486 L25.5558462,12.4975686 L29.8870088,8.16717329 C30.3057637,10.5542211 29.5557768,12.9662274 27.8182581,14.6971529 C27.2620544,15.2532581 26.6245532,15.6969584 25.9432906,16.0406415 L27.4183016,17.5153302 Z M9.99984172,9.99805488 L6.99989378,9.99805488 L2.64370717,4.18668548 L4.18744259,2.64322355 L9.99984172,6.99863842 L9.99984172,9.99805488 Z M4.74370735,31.9937756 C6.01242313,31.9937756 7.206128,31.5000973 8.09985028,30.6003089 L14.4622887,24.2452831 C14.0435338,23.6703827 13.7247527,23.0392799 13.4935555,22.3831576 L6.6873992,29.1880471 C5.64994162,30.2253819 3.83747308,30.2253819 2.79995446,29.1880471 C1.73124742,28.1195294 1.73124742,26.3698698 2.79995446,25.301352 L11.9310826,16.1718416 L10.5185705,14.7596407 L1.38750339,23.8890902 C-0.462501129,25.7387669 -0.462501129,28.7506322 1.38750339,30.6065333 C2.28122567,31.5000973 3.47493054,31.9937756 4.74370735,31.9937756 Z M25.7557939,29.9941646 L17.9809654,22.2144282 C17.4121887,21.6458132 17.0996941,20.8959591 17.0996941,20.0960659 C17.0996941,19.2962337 17.4121887,18.5401552 17.9809654,17.9777646 C18.5496811,17.4090887 19.2996681,17.0966494 20.099642,17.0966494 C20.899677,17.0966494 21.6558894,17.4090887 22.2183797,17.9777646 L29.9994946,25.7512157 L25.7557939,29.9941646 Z M4.99992849,27.9945537 C5.54990674,27.9945537 5.99991114,27.544629 5.99991114,26.9947482 C5.99991114,26.4448674 5.54990674,25.9949427 4.99992849,25.9949427 C4.44995024,25.9949427 3.99994584,26.4448674 3.99994584,26.9947482 C3.99994584,27.544629 4.44995024,27.9945537 4.99992849,27.9945537 Z" id="path-1"></path>
    </defs>
    <g id="Symbols" stroke="none" stroke-width="1" fill="none" fill-rule="evenodd">
        <g id="Atom/Icon/Tools">
            <rect id="Frame" x="0" y="0" width="24" height="24"></rect>
            <mask id="mask-2" fill="white">
                <use xlink:href="#path-1"></use>
            </mask>
            <use id="Icon" fill="rgba(0%,0%,0%, 50%)" fill-rule="nonzero" xlink:href="#path-1"></use>
            <g id="Group" mask="url(#mask-2)">
                <g transform="translate(-34.000000, -33.840376)">
                    <rect id="Colour/General/Black" fill="rgba(0%,0%,0%, 50%)" x="0" y="0" width="100" height="100"></rect>
                </g>
            </g>
        </g>
    </g>
</svg>