<?xml version="1.0" encoding="UTF-8"?>
<svg width="24px" height="24px" viewBox="0 0 32 32" version="1.1" xmlns="http://www.w3.org/2000/svg" xmlns:xlink="http://www.w3.org/1999/xlink">
    <title>81FB4B07-5BE3-4233-9579-B7F74086FE28@3x</title>
    <defs>
        <path d="M16,16 C19.0950195,16 21.6,13.5397513 21.6,10.5 C21.6,7.46024867 19.0950195,5 16,5 C12.9049805,5 10.4,7.46024867 10.4,10.5 C10.4,13.5397513 12.9049805,16 16,16 Z M27.2,14.4285714 C29.4100098,14.4285714 31.2,12.6705453 31.2,10.5 C31.2,8.32945469 29.4100098,6.57142857 27.2,6.57142857 C24.9899902,6.57142857 23.2,8.32945469 23.2,10.5 C23.2,12.6705453 24.9899902,14.4285714 27.2,14.4285714 Z M16,14.4285714 C13.7950195,14.4285714 12,12.6656058 12,10.5 C12,8.33439418 13.7950195,6.57142857 16,6.57142857 C18.2049805,6.57142857 20,8.33439418 20,10.5 C20,12.6656058 18.2049805,14.4285714 16,14.4285714 Z M4.8,14.4285714 C7.01000977,14.4285714 8.8,12.6705453 8.8,10.5 C8.8,8.32945469 7.01000977,6.57142857 4.8,6.57142857 C2.58999023,6.57142857 0.8,8.32945469 0.8,10.5 C0.8,12.6705453 2.58999023,14.4285714 4.8,14.4285714 Z M27.2,12.8571429 C25.875,12.8571429 24.8,11.8013393 24.8,10.5 C24.8,9.19866071 25.875,8.14285714 27.2,8.14285714 C28.525,8.14285714 29.6,9.19866071 29.6,10.5 C29.6,11.8013393 28.525,12.8571429 27.2,12.8571429 Z M4.8,12.8571429 C3.475,12.8571429 2.4,11.8013393 2.4,10.5 C2.4,9.19866071 3.475,8.14285714 4.8,8.14285714 C6.125,8.14285714 7.2,9.19866071 7.2,10.5 C7.2,11.8013393 6.125,12.8571429 4.8,12.8571429 Z M31.2,20.7142857 C31.6399902,20.7142857 32,20.3607047 32,19.9285714 C32,17.7629656 30.2950195,16 28.2,16 L26.2,16 C25.4399902,16 24.7350098,16.2357047 24.1450195,16.6335013 C24.6149902,16.9477583 25.0399902,17.3160618 25.4149902,17.7334726 C25.6600098,17.6303667 25.925,17.5714286 26.2,17.5714286 L28.2,17.5714286 C29.4100098,17.5714286 30.4,18.6272321 30.4,19.9285714 C30.4,20.3607047 30.7600098,20.7142857 31.2,20.7142857 Z M0.8,20.7142857 C1.23999023,20.7142857 1.6,20.3607047 1.6,19.9285714 C1.6,18.6272321 2.58999023,17.5714286 3.8,17.5714286 L5.8,17.5714286 C6.075,17.5714286 6.33999023,17.6303667 6.58500977,17.7334726 C6.96000977,17.3160618 7.38999023,16.9477583 7.85498047,16.6335013 C7.26000977,16.2357047 6.55498047,16 5.8,16 L3.8,16 C1.70498047,16 0,17.7629656 0,19.9285714 C0,20.3607047 0.360009766,20.7142857 0.8,20.7142857 Z M23.2,27 C24.525,27 25.6,25.9441964 25.6,24.6428571 L25.6,22.4428667 C25.6,21.2741263 25.2399902,20.1888297 24.6200195,19.285287 C23.5850098,17.7776882 21.8200195,16.9821429 20.0049805,16.9821429 C18.3350098,16.9821429 17.9200195,17.5714286 16,17.5714286 C14.0799805,17.5714286 13.6649902,16.9821429 11.9950195,16.9821429 C10.1799805,16.9821429 8.41499023,17.7776882 7.37998047,19.285287 C6.76000977,20.1888297 6.4,21.2741263 6.4,22.4428667 L6.4,24.6428571 C6.4,25.9441964 7.475,27 8.8,27 L23.2,27 Z M23.2,25.4285714 L8.8,25.4285714 C8.36000977,25.4285714 8,25.0749904 8,24.6428571 L8,22.4428667 C8,21.6276594 8.24501953,20.8370536 8.70498047,20.1642761 C9.39501953,19.1575797 10.625,18.5535714 11.9899902,18.5535714 C13.3600098,18.5535714 13.85,19.1428571 16,19.1428571 C18.15,19.1428571 18.6399902,18.5535714 20.0049805,18.5535714 C21.3700195,18.5535714 22.6,19.1575797 23.2899902,20.1642761 C23.75,20.8370536 23.9950195,21.6276594 23.9950195,22.4428667 L23.9950195,24.6428571 L24,24.6428571 C24,25.0749904 23.6399902,25.4285714 23.2,25.4285714 Z M16,16 C19.0950195,16 21.6,13.5397513 21.6,10.5 C21.6,7.46024867 19.0950195,5 16,5 C12.9049805,5 10.4,7.46024867 10.4,10.5 C10.4,13.5397513 12.9049805,16 16,16 Z M27.2,14.4285714 C29.4100098,14.4285714 31.2,12.6705453 31.2,10.5 C31.2,8.32945469 29.4100098,6.57142857 27.2,6.57142857 C24.9899902,6.57142857 23.2,8.32945469 23.2,10.5 C23.2,12.6705453 24.9899902,14.4285714 27.2,14.4285714 Z M16,14.4285714 C13.7950195,14.4285714 12,12.6656058 12,10.5 C12,8.33439418 13.7950195,6.57142857 16,6.57142857 C18.2049805,6.57142857 20,8.33439418 20,10.5 C20,12.6656058 18.2049805,14.4285714 16,14.4285714 Z M4.8,14.4285714 C7.01000977,14.4285714 8.8,12.6705453 8.8,10.5 C8.8,8.32945469 7.01000977,6.57142857 4.8,6.57142857 C2.58999023,6.57142857 0.8,8.32945469 0.8,10.5 C0.8,12.6705453 2.58999023,14.4285714 4.8,14.4285714 Z M27.2,12.8571429 C25.875,12.8571429 24.8,11.8013393 24.8,10.5 C24.8,9.19866071 25.875,8.14285714 27.2,8.14285714 C28.525,8.14285714 29.6,9.19866071 29.6,10.5 C29.6,11.8013393 28.525,12.8571429 27.2,12.8571429 Z M4.8,12.8571429 C3.475,12.8571429 2.4,11.8013393 2.4,10.5 C2.4,9.19866071 3.475,8.14285714 4.8,8.14285714 C6.125,8.14285714 7.2,9.19866071 7.2,10.5 C7.2,11.8013393 6.125,12.8571429 4.8,12.8571429 Z M31.2,20.7142857 C31.6399902,20.7142857 32,20.3607047 32,19.9285714 C32,17.7629656 30.2950195,16 28.2,16 L26.2,16 C25.4399902,16 24.7350098,16.2357047 24.1450195,16.6335013 C24.6149902,16.9477583 25.0399902,17.3160618 25.4149902,17.7334726 C25.6600098,17.6303667 25.925,17.5714286 26.2,17.5714286 L28.2,17.5714286 C29.4100098,17.5714286 30.4,18.6272321 30.4,19.9285714 C30.4,20.3607047 30.7600098,20.7142857 31.2,20.7142857 Z M0.8,20.7142857 C1.23999023,20.7142857 1.6,20.3607047 1.6,19.9285714 C1.6,18.6272321 2.58999023,17.5714286 3.8,17.5714286 L5.8,17.5714286 C6.075,17.5714286 6.33999023,17.6303667 6.58500977,17.7334726 C6.96000977,17.3160618 7.38999023,16.9477583 7.85498047,16.6335013 C7.26000977,16.2357047 6.55498047,16 5.8,16 L3.8,16 C1.70498047,16 0,17.7629656 0,19.9285714 C0,20.3607047 0.360009766,20.7142857 0.8,20.7142857 Z M23.2,27 C24.525,27 25.6,25.9441964 25.6,24.6428571 L25.6,22.4428667 C25.6,21.2741263 25.2399902,20.1888297 24.6200195,19.285287 C23.5850098,17.7776882 21.8200195,16.9821429 20.0049805,16.9821429 C18.3350098,16.9821429 17.9200195,17.5714286 16,17.5714286 C14.0799805,17.5714286 13.6649902,16.9821429 11.9950195,16.9821429 C10.1799805,16.9821429 8.41499023,17.7776882 7.37998047,19.285287 C6.76000977,20.1888297 6.4,21.2741263 6.4,22.4428667 L6.4,24.6428571 C6.4,25.9441964 7.475,27 8.8,27 L23.2,27 Z M23.2,25.4285714 L8.8,25.4285714 C8.36000977,25.4285714 8,25.0749904 8,24.6428571 L8,22.4428667 C8,21.6276594 8.24501953,20.8370536 8.70498047,20.1642761 C9.39501953,19.1575797 10.625,18.5535714 11.9899902,18.5535714 C13.3600098,18.5535714 13.85,19.1428571 16,19.1428571 C18.15,19.1428571 18.6399902,18.5535714 20.0049805,18.5535714 C21.3700195,18.5535714 22.6,19.1575797 23.2899902,20.1642761 C23.75,20.8370536 23.9950195,21.6276594 23.9950195,22.4428667 L23.9950195,24.6428571 L24,24.6428571 C24,25.0749904 23.6399902,25.4285714 23.2,25.4285714 Z" id="path-1"></path>
    </defs>
    <g id="Symbols" stroke="none" stroke-width="1" fill="none" fill-rule="evenodd">
        <g id="Atom/Icon/Users">
            <rect id="Frame" x="0" y="0" width="24" height="24"></rect>
            <mask id="mask-2" fill="white">
                <use xlink:href="#path-1"></use>
            </mask>
            <use id="Icon" fill="rgba(0%,0%,0%, 50%)" fill-rule="nonzero" xlink:href="#path-1"></use>
            <g id="Group" mask="url(#mask-2)">
                <g transform="translate(-34.000000, -33.840376)">
                    <rect id="Colour/General/Black" fill="rgba(0%,0%,0%, 50%)" x="0" y="0" width="100" height="100"></rect>
                </g>
            </g>
        </g>
    </g>
</svg>