<?xml version="1.0" encoding="UTF-8"?>
<svg width="40px" height="40px" viewBox="0 0 32 32" version="1.1" xmlns="http://www.w3.org/2000/svg" xmlns:xlink="http://www.w3.org/1999/xlink">
    <title>824441F7-70BC-41E3-A0FD-94DDA0440C4C@3x</title>
    <defs>
        <path d="M28.6666667,29 C29.6,29 30.3888885,28.6853302 31.0333333,28.0559896 C31.6777781,27.426649 32,26.65625 32,25.7447917 L32,25.7447917 L32,21.7734375 C32,19.9071177 31.3111115,18.3880208 29.9333333,17.2161458 C29.1333333,16.5217011 28.2444448,16.0225698 27.2666667,15.71875 C28.2888885,14.4166667 28.8,12.9409719 28.8,11.2916667 C28.8,9.98958333 28.4666667,8.77430522 27.8,7.64583333 C27.1333333,6.51736144 26.2222219,5.62760417 25.0666667,4.9765625 C23.9111115,4.32552083 22.6666667,4 21.3333333,4 C20,4 18.7555552,4.32552083 17.6,4.9765625 C16.4444448,5.62760417 15.5333333,6.51736144 14.8666667,7.64583333 C14.2,8.77430522 13.8666667,9.98958333 13.8666667,11.2916667 C13.8666667,12.9409719 14.3777781,14.4166667 15.4,15.71875 C14.4222219,16.0225698 13.5333333,16.5217011 12.7333333,17.2161458 C11.3555552,18.3880208 10.6666667,19.9071177 10.6666667,21.7734375 L10.6666667,21.7734375 L10.6666667,25.7447917 C10.6666667,26.65625 10.9888885,27.426649 11.6333333,28.0559896 C12.2777781,28.6853302 13.0666667,29 14,29 L14,29 L28.6666667,29 Z M21.3333333,16.5 C19.8666667,16.5 18.6111115,15.9900177 17.5666667,14.9700521 C16.5222219,13.9500865 16,12.7239583 16,11.2916667 C16,9.859375 16.5222219,8.63324686 17.5666667,7.61328125 C18.6111115,6.59331564 19.8666667,6.08333333 21.3333333,6.08333333 C22.8,6.08333333 24.0555552,6.59331564 25.1,7.61328125 C26.1444448,8.63324686 26.6666667,9.859375 26.6666667,11.2916667 C26.6666667,12.7239583 26.1444448,13.9500865 25.1,14.9700521 C24.0555552,15.9900177 22.8,16.5 21.3333333,16.5 Z M9.8,26.9166667 C9.66666667,26.5260417 9.6,26.1354167 9.6,25.7447917 L9.6,25.7447917 L9.6,24.8333333 L3.06666667,24.8333333 C2.8,24.8333333 2.57777812,24.7465281 2.4,24.5729167 C2.22222188,24.3993052 2.13333333,24.1822917 2.13333333,23.921875 L2.13333333,23.921875 L2.13333333,20.9921875 C2.13333333,20.2977427 2.34444478,19.6684031 2.76666667,19.1041667 C3.18888855,18.5399302 3.75555522,18.1710073 4.46666667,17.9973958 L4.46666667,17.9973958 L5.33333333,17.7369792 C6.31111145,18.3012156 7.37777812,18.5833333 8.53333333,18.5833333 C9.2,18.5833333 9.84444478,18.4748261 10.4666667,18.2578125 C10.8666667,17.5633677 11.3777781,16.9557292 12,16.4348958 C12.5333333,15.9574656 13.1333333,15.5668406 13.8,15.2630208 C13.1333333,14.0477427 12.8,12.7239583 12.8,11.2916667 C12.8,10.25 13,9.23003439 13.4,8.23177083 C12.7777781,7.58072917 12.0444448,7.05989583 11.2,6.66927083 C10.3555552,6.27864583 9.46666667,6.08333333 8.53333333,6.08333333 C6.75555522,6.08333333 5.24444478,6.69097189 4,7.90625 C2.75555522,9.12152811 2.13333333,10.5972219 2.13333333,12.3333333 C2.13333333,13.7222219 2.57777812,14.9809031 3.46666667,16.109375 C2.48888855,16.4565969 1.68888855,17.0425344 1.06666667,17.8671875 C0.355555216,18.7786458 0,19.8203125 0,20.9921875 L0,20.9921875 L0,23.921875 C0,24.7465281 0.3,25.4518229 0.9,26.0377604 C1.5,26.6236979 2.22222188,26.9166667 3.06666667,26.9166667 L3.06666667,26.9166667 L9.8,26.9166667 Z M8.53333333,16.5 C7.33333333,16.5 6.32222188,16.098524 5.5,15.2955729 C4.67777812,14.4926219 4.26666667,13.5052083 4.26666667,12.3333333 C4.26666667,11.1614583 4.67777812,10.1740448 5.5,9.37109375 C6.32222188,8.56814269 7.33333333,8.16666667 8.53333333,8.16666667 C9.73333333,8.16666667 10.7444448,8.56814269 11.5666667,9.37109375 C12.3888885,10.1740448 12.8,11.1614583 12.8,12.3333333 C12.8,13.5052083 12.3888885,14.4926219 11.5666667,15.2955729 C10.7444448,16.098524 9.73333333,16.5 8.53333333,16.5 Z M28.6666667,26.9166667 L14,26.9166667 C13.6888885,26.9166667 13.4111115,26.7973094 13.1666667,26.5585938 C12.9222219,26.3198781 12.8,26.0486114 12.8,25.7447917 L12.8,25.7447917 L12.8,21.7734375 C12.8,20.8619792 13.0888885,20.026476 13.6666667,19.2669271 C14.2444448,18.5073781 14.9777781,17.9973958 15.8666667,17.7369792 L15.8666667,17.7369792 L17.2666667,17.4114583 C18.4666667,18.1927083 19.8222219,18.5833333 21.3333333,18.5833333 C22.8444448,18.5833333 24.2,18.1927083 25.4,17.4114583 L25.4,17.4114583 L26.8,17.7369792 C27.6888885,17.9973958 28.4222219,18.5073781 29,19.2669271 C29.5777781,20.026476 29.8666667,20.8619792 29.8666667,21.7734375 L29.8666667,21.7734375 L29.8666667,25.7447917 C29.8666667,26.0486114 29.7444448,26.3198781 29.5,26.5585938 C29.2555552,26.7973094 28.9777781,26.9166667 28.6666667,26.9166667 L28.6666667,26.9166667 Z M28.6666667,29 C29.6,29 30.3888885,28.6853302 31.0333333,28.0559896 C31.6777781,27.426649 32,26.65625 32,25.7447917 L32,25.7447917 L32,21.7734375 C32,19.9071177 31.3111115,18.3880208 29.9333333,17.2161458 C29.1333333,16.5217011 28.2444448,16.0225698 27.2666667,15.71875 C28.2888885,14.4166667 28.8,12.9409719 28.8,11.2916667 C28.8,9.98958333 28.4666667,8.77430522 27.8,7.64583333 C27.1333333,6.51736144 26.2222219,5.62760417 25.0666667,4.9765625 C23.9111115,4.32552083 22.6666667,4 21.3333333,4 C20,4 18.7555552,4.32552083 17.6,4.9765625 C16.4444448,5.62760417 15.5333333,6.51736144 14.8666667,7.64583333 C14.2,8.77430522 13.8666667,9.98958333 13.8666667,11.2916667 C13.8666667,12.9409719 14.3777781,14.4166667 15.4,15.71875 C14.4222219,16.0225698 13.5333333,16.5217011 12.7333333,17.2161458 C11.3555552,18.3880208 10.6666667,19.9071177 10.6666667,21.7734375 L10.6666667,21.7734375 L10.6666667,25.7447917 C10.6666667,26.65625 10.9888885,27.426649 11.6333333,28.0559896 C12.2777781,28.6853302 13.0666667,29 14,29 L14,29 L28.6666667,29 Z M21.3333333,16.5 C19.8666667,16.5 18.6111115,15.9900177 17.5666667,14.9700521 C16.5222219,13.9500865 16,12.7239583 16,11.2916667 C16,9.859375 16.5222219,8.63324686 17.5666667,7.61328125 C18.6111115,6.59331564 19.8666667,6.08333333 21.3333333,6.08333333 C22.8,6.08333333 24.0555552,6.59331564 25.1,7.61328125 C26.1444448,8.63324686 26.6666667,9.859375 26.6666667,11.2916667 C26.6666667,12.7239583 26.1444448,13.9500865 25.1,14.9700521 C24.0555552,15.9900177 22.8,16.5 21.3333333,16.5 Z M9.8,26.9166667 C9.66666667,26.5260417 9.6,26.1354167 9.6,25.7447917 L9.6,25.7447917 L9.6,24.8333333 L3.06666667,24.8333333 C2.8,24.8333333 2.57777812,24.7465281 2.4,24.5729167 C2.22222188,24.3993052 2.13333333,24.1822917 2.13333333,23.921875 L2.13333333,23.921875 L2.13333333,20.9921875 C2.13333333,20.2977427 2.34444478,19.6684031 2.76666667,19.1041667 C3.18888855,18.5399302 3.75555522,18.1710073 4.46666667,17.9973958 L4.46666667,17.9973958 L5.33333333,17.7369792 C6.31111145,18.3012156 7.37777812,18.5833333 8.53333333,18.5833333 C9.2,18.5833333 9.84444478,18.4748261 10.4666667,18.2578125 C10.8666667,17.5633677 11.3777781,16.9557292 12,16.4348958 C12.5333333,15.9574656 13.1333333,15.5668406 13.8,15.2630208 C13.1333333,14.0477427 12.8,12.7239583 12.8,11.2916667 C12.8,10.25 13,9.23003439 13.4,8.23177083 C12.7777781,7.58072917 12.0444448,7.05989583 11.2,6.66927083 C10.3555552,6.27864583 9.46666667,6.08333333 8.53333333,6.08333333 C6.75555522,6.08333333 5.24444478,6.69097189 4,7.90625 C2.75555522,9.12152811 2.13333333,10.5972219 2.13333333,12.3333333 C2.13333333,13.7222219 2.57777812,14.9809031 3.46666667,16.109375 C2.48888855,16.4565969 1.68888855,17.0425344 1.06666667,17.8671875 C0.355555216,18.7786458 0,19.8203125 0,20.9921875 L0,20.9921875 L0,23.921875 C0,24.7465281 0.3,25.4518229 0.9,26.0377604 C1.5,26.6236979 2.22222188,26.9166667 3.06666667,26.9166667 L3.06666667,26.9166667 L9.8,26.9166667 Z M8.53333333,16.5 C7.33333333,16.5 6.32222188,16.098524 5.5,15.2955729 C4.67777812,14.4926219 4.26666667,13.5052083 4.26666667,12.3333333 C4.26666667,11.1614583 4.67777812,10.1740448 5.5,9.37109375 C6.32222188,8.56814269 7.33333333,8.16666667 8.53333333,8.16666667 C9.73333333,8.16666667 10.7444448,8.56814269 11.5666667,9.37109375 C12.3888885,10.1740448 12.8,11.1614583 12.8,12.3333333 C12.8,13.5052083 12.3888885,14.4926219 11.5666667,15.2955729 C10.7444448,16.098524 9.73333333,16.5 8.53333333,16.5 Z M28.6666667,26.9166667 L14,26.9166667 C13.6888885,26.9166667 13.4111115,26.7973094 13.1666667,26.5585938 C12.9222219,26.3198781 12.8,26.0486114 12.8,25.7447917 L12.8,25.7447917 L12.8,21.7734375 C12.8,20.8619792 13.0888885,20.026476 13.6666667,19.2669271 C14.2444448,18.5073781 14.9777781,17.9973958 15.8666667,17.7369792 L15.8666667,17.7369792 L17.2666667,17.4114583 C18.4666667,18.1927083 19.8222219,18.5833333 21.3333333,18.5833333 C22.8444448,18.5833333 24.2,18.1927083 25.4,17.4114583 L25.4,17.4114583 L26.8,17.7369792 C27.6888885,17.9973958 28.4222219,18.5073781 29,19.2669271 C29.5777781,20.026476 29.8666667,20.8619792 29.8666667,21.7734375 L29.8666667,21.7734375 L29.8666667,25.7447917 C29.8666667,26.0486114 29.7444448,26.3198781 29.5,26.5585938 C29.2555552,26.7973094 28.9777781,26.9166667 28.6666667,26.9166667 L28.6666667,26.9166667 Z" id="path-1"></path>
    </defs>
    <g id="Symbols" stroke="none" stroke-width="1" fill="none" fill-rule="evenodd">
        <g id="Atom/Icon/User-Friends">
            <rect id="Frame" x="0" y="0" width="40" height="40"></rect>
            <mask id="mask-2" fill="white">
                <use xlink:href="#path-1"></use>
            </mask>
            <use id="Icon" fill="#70ada3" fill-rule="nonzero" transform="translate(16.000000, 16.500000) scale(-1, 1) translate(-16.000000, -16.500000) " xlink:href="#path-1"></use>
            <g id="Group" mask="url(#mask-2)">
                <g transform="translate(-34.000000, -33.840376)">
                    <rect id="Colour/General/Black" fill="#70ada3" x="0" y="0" width="100" height="100"></rect>
                </g>
            </g>
        </g>
    </g>
</svg>