<?xml version="1.0" encoding="UTF-8"?>
<svg width="24px" height="24px" viewBox="0 0 32 32" version="1.1" xmlns="http://www.w3.org/2000/svg" xmlns:xlink="http://www.w3.org/1999/xlink">
    <title>B5D0AD5C-4308-4A8F-9878-26A63583BCDE@3x</title>
    <defs>
        <path d="M14.3699993,15.7348022 C14.5149698,15.2241167 14.6949989,14.7330453 14.9149693,14.261588 C13.2349912,13.7950701 11.9950027,12.2924107 11.9950027,10.4951085 C11.9950027,8.32945469 13.7899709,6.56653704 15.9949971,6.56653704 C17.824975,6.56653704 19.3499728,7.78438459 19.8299526,9.43436541 C20.3099812,9.21832275 20.8099805,9.03661673 21.3299505,8.89912633 C20.6299515,6.64998082 18.5199935,5 15.9999775,5 C12.9049623,5 10.3999854,7.46024867 10.3999854,10.5 C10.3999854,12.9750192 12.0799635,15.0473022 14.3699993,15.7348022 Z M4.79999888,14.4285714 C7.00999992,14.4285714 8.79998764,12.6705453 8.79998764,10.5 C8.79998764,8.32945469 7.00999992,6.57142857 4.79999888,6.57142857 C2.5899866,6.57142857 0.799998876,8.32945469 0.799998876,10.5 C0.799998876,12.6705453 2.5899866,14.4285714 4.79999888,14.4285714 Z M4.79999326,12.8571429 C3.47499512,12.8571429 2.39999663,11.8013393 2.39999663,10.5 C2.39999663,9.19866071 3.47499512,8.14285714 4.79999326,8.14285714 C6.12499139,8.14285714 7.19998988,9.19866071 7.19998988,10.5 C7.19998988,11.8013393 6.12499139,12.8571429 4.79999326,12.8571429 Z M23.9949858,26.5285906 C24.6099752,26.5285906 25.229945,26.464713 25.8249637,26.332162 C26.3599727,26.2142857 26.7349722,25.7526594 26.7349722,25.2174203 L26.7349722,24.2843846 C27.1249619,24.1125096 27.4949809,23.9013585 27.8449804,23.6558228 L28.6699793,24.1223406 C29.1399493,24.3874904 29.734968,24.2991071 30.1049382,23.90625 C30.9449761,23.0174299 31.5749556,21.9370728 31.9399454,20.792838 C32.1099647,20.2821524 31.884965,19.7174203 31.4149461,19.4522226 L30.5899473,18.9857047 C30.6299374,18.568294 30.6299374,18.1459917 30.5899473,17.728581 L31.4199754,17.2620632 C31.8949747,16.9919739 32.1099647,16.4419643 31.9449747,15.9361703 C31.5849654,14.787044 30.9499565,13.7066868 30.1099675,12.8178667 C29.7399485,12.4200701 29.1449786,12.3316868 28.6699793,12.6017761 L27.8449804,13.068294 C27.4949809,12.8227583 27.1249619,12.6116071 26.7349722,12.4397321 L26.7349722,11.5066964 C26.7349722,10.9665179 26.3599727,10.509831 25.8249637,10.3919547 C24.6299459,10.1268049 23.3599769,10.1268049 22.1599786,10.3919547 C21.6249696,10.509831 21.2499701,10.9714094 21.2499701,11.5066964 L21.2499701,12.4397321 C20.8599805,12.6116071 20.484981,12.8227583 20.1399619,13.068294 L19.3149631,12.6017761 C18.8399638,12.3316868 18.2499744,12.4200701 17.8799553,12.8178667 C17.0399663,13.7066868 16.4099867,14.787044 16.044997,15.9312308 C15.8799582,16.4419643 16.1049578,17.0018049 16.5749767,17.2669547 L17.3999756,17.7334726 C17.3599854,18.1508833 17.3599854,18.5732335 17.3999756,18.9906442 L16.5699963,19.457162 C16.1049578,19.7223118 15.8799582,20.287044 16.044997,20.7879464 C16.4099867,21.9370728 17.0399663,23.0174299 17.8799553,23.90625 C18.2499744,24.2991071 18.8399638,24.3874904 19.3199924,24.1223406 L20.1449912,23.6558228 C20.4949907,23.9013585 20.8649609,24.1125096 21.2549506,24.2843846 L21.2549506,25.2174203 C21.2549506,25.7575989 21.6299501,26.2142857 22.1649591,26.332162 C22.7649583,26.464713 23.3799476,26.5285906 23.9949858,26.5285906 Z M22.8599776,24.8638393 L22.8599776,23.1941964 C21.51496,22.7276786 21.34997,22.6196333 20.3049519,21.7455357 L18.8349833,22.5803571 C18.3449938,22.0009024 17.9549552,21.3428476 17.6949947,20.640625 L19.1649633,19.8058036 C18.9199929,18.4897417 18.9049539,18.3031442 19.1649633,16.9084821 L17.6949947,16.0736607 C17.9549552,15.3714382 18.3449938,14.7133833 18.8349833,14.1339286 L20.3049519,14.96875 C21.37497,14.0700989 21.5299502,13.9817156 22.8599776,13.5200893 L22.8599776,11.8504464 C23.6149571,11.7276786 24.3949853,11.7276786 25.1399549,11.8504464 L25.1399549,13.5200893 C26.4799433,13.9866071 26.6499626,14.089713 27.6949806,14.96875 L29.1649493,14.1339286 C29.6549388,14.7133833 30.0449773,15.3714382 30.3049379,16.0736607 L28.8349693,16.9084821 C29.0799396,18.224544 29.0949787,18.4111415 28.8349693,19.8058036 L30.3049379,20.640625 C30.039948,21.3428476 29.6549388,22.005794 29.1649493,22.5803571 L27.6949806,21.7455357 C26.6249626,22.6441868 26.4699823,22.7325701 25.1399549,23.1941964 L25.1399549,24.8638393 C24.3849755,24.9914987 23.6099766,24.9914987 22.8599776,24.8638393 Z M23.9999663,21.5245536 C25.7799442,21.5245536 27.2249618,20.1004464 27.2249618,18.3571429 C27.2249618,16.6138393 25.7799442,15.1897321 23.9999663,15.1897321 C22.2199883,15.1897321 20.7749708,16.6138393 20.7749708,18.3571429 C20.7749708,20.1004464 22.2199883,21.5245536 23.9999663,21.5245536 Z M0.799998876,20.7142857 C1.23998849,20.7142857 1.59999775,20.3607047 1.59999775,19.9285714 C1.59999775,18.6272321 2.5899866,17.5714286 3.79999466,17.5714286 L5.79999185,17.5714286 C6.07499146,17.5714286 6.33998133,17.6303667 6.58500051,17.7334726 C6.95999999,17.3160618 7.38997985,16.9477583 7.85496943,16.6335013 C7.25999957,16.2357047 6.55497126,16 5.79999185,16 L3.79999466,16 C1.70497807,16 0,17.7629656 0,19.9285714 C0,20.3607047 0.36000926,20.7142857 0.799998876,20.7142857 Z M23.9999663,19.953125 C23.104948,19.953125 22.3749686,19.2361799 22.3749686,18.3571429 C22.3749686,17.4781058 23.104948,16.7611607 23.9999663,16.7611607 C24.8949846,16.7611607 25.624964,17.4781058 25.624964,18.3571429 C25.624964,19.2361799 24.8949846,19.953125 23.9999663,19.953125 Z M19.2449925,27 C18.4449936,26.5776978 17.7149653,26.0424107 17.0699955,25.4285714 L8.79998764,25.4285714 C8.35999802,25.4285714 7.99998876,25.0749904 7.99998876,24.6428571 L7.99998876,22.4428667 C7.99998876,21.6276594 8.24500795,20.8370536 8.70496824,20.1642761 C9.39501055,19.1575797 10.6249851,18.5535714 11.9899734,18.5535714 C12.7049626,18.5535714 12.9299623,18.6714478 14.0249803,18.9071524 C14.0149705,18.7205549 13.9549609,18.2490976 14.0549607,17.3062308 C13.2399716,17.0950797 12.7349919,16.9821429 11.9899734,16.9821429 C10.1749857,16.9821429 8.40999795,17.7776882 7.37498964,19.285287 C6.75497098,20.1888297 6.39501055,21.2741263 6.39501055,22.4428667 L6.39501055,24.6428571 C6.39501055,25.9441964 7.47000904,27 8.79500717,27 L19.2449925,27 Z M14.3699993,15.7348022 C14.5149698,15.2241167 14.6949989,14.7330453 14.9149693,14.261588 C13.2349912,13.7950701 11.9950027,12.2924107 11.9950027,10.4951085 C11.9950027,8.32945469 13.7899709,6.56653704 15.9949971,6.56653704 C17.824975,6.56653704 19.3499728,7.78438459 19.8299526,9.43436541 C20.3099812,9.21832275 20.8099805,9.03661673 21.3299505,8.89912633 C20.6299515,6.64998082 18.5199935,5 15.9999775,5 C12.9049623,5 10.3999854,7.46024867 10.3999854,10.5 C10.3999854,12.9750192 12.0799635,15.0473022 14.3699993,15.7348022 Z M4.79999888,14.4285714 C7.00999992,14.4285714 8.79998764,12.6705453 8.79998764,10.5 C8.79998764,8.32945469 7.00999992,6.57142857 4.79999888,6.57142857 C2.5899866,6.57142857 0.799998876,8.32945469 0.799998876,10.5 C0.799998876,12.6705453 2.5899866,14.4285714 4.79999888,14.4285714 Z M4.79999326,12.8571429 C3.47499512,12.8571429 2.39999663,11.8013393 2.39999663,10.5 C2.39999663,9.19866071 3.47499512,8.14285714 4.79999326,8.14285714 C6.12499139,8.14285714 7.19998988,9.19866071 7.19998988,10.5 C7.19998988,11.8013393 6.12499139,12.8571429 4.79999326,12.8571429 Z M23.9949858,26.5285906 C24.6099752,26.5285906 25.229945,26.464713 25.8249637,26.332162 C26.3599727,26.2142857 26.7349722,25.7526594 26.7349722,25.2174203 L26.7349722,24.2843846 C27.1249619,24.1125096 27.4949809,23.9013585 27.8449804,23.6558228 L28.6699793,24.1223406 C29.1399493,24.3874904 29.734968,24.2991071 30.1049382,23.90625 C30.9449761,23.0174299 31.5749556,21.9370728 31.9399454,20.792838 C32.1099647,20.2821524 31.884965,19.7174203 31.4149461,19.4522226 L30.5899473,18.9857047 C30.6299374,18.568294 30.6299374,18.1459917 30.5899473,17.728581 L31.4199754,17.2620632 C31.8949747,16.9919739 32.1099647,16.4419643 31.9449747,15.9361703 C31.5849654,14.787044 30.9499565,13.7066868 30.1099675,12.8178667 C29.7399485,12.4200701 29.1449786,12.3316868 28.6699793,12.6017761 L27.8449804,13.068294 C27.4949809,12.8227583 27.1249619,12.6116071 26.7349722,12.4397321 L26.7349722,11.5066964 C26.7349722,10.9665179 26.3599727,10.509831 25.8249637,10.3919547 C24.6299459,10.1268049 23.3599769,10.1268049 22.1599786,10.3919547 C21.6249696,10.509831 21.2499701,10.9714094 21.2499701,11.5066964 L21.2499701,12.4397321 C20.8599805,12.6116071 20.484981,12.8227583 20.1399619,13.068294 L19.3149631,12.6017761 C18.8399638,12.3316868 18.2499744,12.4200701 17.8799553,12.8178667 C17.0399663,13.7066868 16.4099867,14.787044 16.044997,15.9312308 C15.8799582,16.4419643 16.1049578,17.0018049 16.5749767,17.2669547 L17.3999756,17.7334726 C17.3599854,18.1508833 17.3599854,18.5732335 17.3999756,18.9906442 L16.5699963,19.457162 C16.1049578,19.7223118 15.8799582,20.287044 16.044997,20.7879464 C16.4099867,21.9370728 17.0399663,23.0174299 17.8799553,23.90625 C18.2499744,24.2991071 18.8399638,24.3874904 19.3199924,24.1223406 L20.1449912,23.6558228 C20.4949907,23.9013585 20.8649609,24.1125096 21.2549506,24.2843846 L21.2549506,25.2174203 C21.2549506,25.7575989 21.6299501,26.2142857 22.1649591,26.332162 C22.7649583,26.464713 23.3799476,26.5285906 23.9949858,26.5285906 Z M22.8599776,24.8638393 L22.8599776,23.1941964 C21.51496,22.7276786 21.34997,22.6196333 20.3049519,21.7455357 L18.8349833,22.5803571 C18.3449938,22.0009024 17.9549552,21.3428476 17.6949947,20.640625 L19.1649633,19.8058036 C18.9199929,18.4897417 18.9049539,18.3031442 19.1649633,16.9084821 L17.6949947,16.0736607 C17.9549552,15.3714382 18.3449938,14.7133833 18.8349833,14.1339286 L20.3049519,14.96875 C21.37497,14.0700989 21.5299502,13.9817156 22.8599776,13.5200893 L22.8599776,11.8504464 C23.6149571,11.7276786 24.3949853,11.7276786 25.1399549,11.8504464 L25.1399549,13.5200893 C26.4799433,13.9866071 26.6499626,14.089713 27.6949806,14.96875 L29.1649493,14.1339286 C29.6549388,14.7133833 30.0449773,15.3714382 30.3049379,16.0736607 L28.8349693,16.9084821 C29.0799396,18.224544 29.0949787,18.4111415 28.8349693,19.8058036 L30.3049379,20.640625 C30.039948,21.3428476 29.6549388,22.005794 29.1649493,22.5803571 L27.6949806,21.7455357 C26.6249626,22.6441868 26.4699823,22.7325701 25.1399549,23.1941964 L25.1399549,24.8638393 C24.3849755,24.9914987 23.6099766,24.9914987 22.8599776,24.8638393 Z M23.9999663,21.5245536 C25.7799442,21.5245536 27.2249618,20.1004464 27.2249618,18.3571429 C27.2249618,16.6138393 25.7799442,15.1897321 23.9999663,15.1897321 C22.2199883,15.1897321 20.7749708,16.6138393 20.7749708,18.3571429 C20.7749708,20.1004464 22.2199883,21.5245536 23.9999663,21.5245536 Z M0.799998876,20.7142857 C1.23998849,20.7142857 1.59999775,20.3607047 1.59999775,19.9285714 C1.59999775,18.6272321 2.5899866,17.5714286 3.79999466,17.5714286 L5.79999185,17.5714286 C6.07499146,17.5714286 6.33998133,17.6303667 6.58500051,17.7334726 C6.95999999,17.3160618 7.38997985,16.9477583 7.85496943,16.6335013 C7.25999957,16.2357047 6.55497126,16 5.79999185,16 L3.79999466,16 C1.70497807,16 0,17.7629656 0,19.9285714 C0,20.3607047 0.36000926,20.7142857 0.799998876,20.7142857 Z M23.9999663,19.953125 C23.104948,19.953125 22.3749686,19.2361799 22.3749686,18.3571429 C22.3749686,17.4781058 23.104948,16.7611607 23.9999663,16.7611607 C24.8949846,16.7611607 25.624964,17.4781058 25.624964,18.3571429 C25.624964,19.2361799 24.8949846,19.953125 23.9999663,19.953125 Z M19.2449925,27 C18.4449936,26.5776978 17.7149653,26.0424107 17.0699955,25.4285714 L8.79998764,25.4285714 C8.35999802,25.4285714 7.99998876,25.0749904 7.99998876,24.6428571 L7.99998876,22.4428667 C7.99998876,21.6276594 8.24500795,20.8370536 8.70496824,20.1642761 C9.39501055,19.1575797 10.6249851,18.5535714 11.9899734,18.5535714 C12.7049626,18.5535714 12.9299623,18.6714478 14.0249803,18.9071524 C14.0149705,18.7205549 13.9549609,18.2490976 14.0549607,17.3062308 C13.2399716,17.0950797 12.7349919,16.9821429 11.9899734,16.9821429 C10.1749857,16.9821429 8.40999795,17.7776882 7.37498964,19.285287 C6.75497098,20.1888297 6.39501055,21.2741263 6.39501055,22.4428667 L6.39501055,24.6428571 C6.39501055,25.9441964 7.47000904,27 8.79500717,27 L19.2449925,27 Z" id="path-1"></path>
    </defs>
    <g id="Symbols" stroke="none" stroke-width="1" fill="none" fill-rule="evenodd">
        <g id="Atom/Icon/Expand">
            <rect id="Frame" x="0" y="0" width="24" height="24"></rect>
            <mask id="mask-2" fill="white">
                <use xlink:href="#path-1"></use>
            </mask>
            <use id="Icon" fill="rgba(0%,0%,0%, 50%)" fill-rule="nonzero" xlink:href="#path-1"></use>
            <g id="Group" mask="url(#mask-2)">
                <g transform="translate(-34.000000, -33.840376)">
                    <rect id="Colour/General/Black" fill="rgba(0%,0%,0%, 50%)" x="0" y="0" width="100" height="100"></rect>
                </g>
            </g>
        </g>
    </g>
</svg>