<?xml version="1.0" standalone="no"?>
<!DOCTYPE svg PUBLIC "-//W3C//DTD SVG 1.1//EN" "http://www.w3.org/Graphics/SVG/1.1/DTD/svg11.dtd" >
<svg xmlns="http://www.w3.org/2000/svg" xmlns:xlink="http://www.w3.org/1999/xlink" version="1.1">
<metadata></metadata>
<defs>
<font id="speedeeregular" horiz-adv-x="1208" >
<font-face units-per-em="2048" ascent="1434" descent="-614" />
<missing-glyph horiz-adv-x="409" />
<glyph horiz-adv-x="0" />
<glyph horiz-adv-x="0" />
<glyph unicode="&#xd;" horiz-adv-x="409" />
<glyph unicode=" "  horiz-adv-x="409" />
<glyph unicode="&#x09;" horiz-adv-x="409" />
<glyph unicode="&#xa0;" horiz-adv-x="409" />
<glyph unicode="!" horiz-adv-x="473" d="M115 100q0 51 34.5 86t88.5 35q53 0 86.5 -34.5t33.5 -86.5q0 -51 -34.5 -85.5t-85.5 -34.5q-53 0 -88 34.5t-35 85.5zM139 1370h197l-29 -999h-137z" />
<glyph unicode="&#x22;" horiz-adv-x="870" d="M190 1321v113h175v-113q0 -92 -8 -176.5t-31 -190.5h-97q-20 106 -29.5 190.5t-9.5 176.5zM505 1321v113h175v-113q0 -92 -8 -176.5t-31 -190.5h-97q-20 106 -29.5 190.5t-9.5 176.5z" />
<glyph unicode="#" d="M45 367v141h211l61 356h-208v142h233l57 333h158l-57 -333h317l57 333h158l-57 -333h188v-142h-213l-61 -356h215v-141h-240l-63 -367h-158l64 367h-318l-63 -367h-158l63 367h-186zM414 508h317l62 356h-318z" />
<glyph unicode="$" d="M84 387h188q23 -127 98.5 -186.5t178.5 -73.5v483l-88 19q-156 33 -248 119t-92 235q0 172 116.5 268.5t307.5 106.5v207h112v-207q375 -33 426 -406h-188q-39 240 -242 271v-461l95 -21q184 -41 273 -127t89 -239q0 -170 -118 -271.5t-335 -111.5v-205h-112v207 q-207 16 -325 119.5t-136 273.5zM305 1004q0 -86 52 -138.5t171 -77.5l21 -4v445q-113 -8 -178.5 -63.5t-65.5 -161.5zM653 123q135 6 204 68.5t69 166.5q0 94 -59.5 147.5t-182.5 78.5l-31 6v-467z" />
<glyph unicode="%" horiz-adv-x="1861" d="M73 950q0 193 78 307.5t240 114.5q160 0 237.5 -114.5t77.5 -307.5t-77.5 -307t-237.5 -114q-162 0 -240 114.5t-78 306.5zM227 950q0 -152 39 -231.5t125 -79.5q84 0 124 80t40 231q0 152 -40 232t-124 80q-86 0 -125 -80t-39 -232zM505 0l689 1352h163l-688 -1352h-164 zM1151 401q0 193 78 307.5t240 114.5q160 0 237.5 -114.5t77.5 -307.5t-77.5 -307t-237.5 -114q-162 0 -240 114.5t-78 306.5zM1305 401q0 -152 39 -231.5t125 -79.5q84 0 124 80t40 231q0 152 -40 232t-124 80q-86 0 -125 -80t-39 -232z" />
<glyph unicode="&#x26;" horiz-adv-x="1443" d="M121 369q0 133 72.5 226t201.5 150q-72 90 -107.5 166t-35.5 156q0 133 96 219t248 86q96 0 173 -38t120 -104.5t43 -150.5q0 -117 -76 -202.5t-242 -153.5l267 -330q45 -57 84 -98q47 70 72.5 165t29.5 218h172q-4 -301 -164 -488q39 -29 72 -38t63 -9q33 0 58.5 4.5 t42.5 10.5l22 -138q-51 -27 -139 -26q-57 0 -111.5 21.5t-119.5 74.5q-78 -53 -174.5 -81.5t-210.5 -28.5q-209 0 -333 105t-124 284zM317 379q0 -109 80 -184.5t213 -75.5q147 0 250 69q-41 45 -92 107l-293 352q-74 -45 -116 -110.5t-42 -157.5zM422 1077q0 -70 27.5 -126 t87.5 -132q127 57 176 116.5t49 141.5q0 78 -46 124t-124 46q-76 0 -123 -46t-47 -124z" />
<glyph unicode="'" horiz-adv-x="552" d="M190 1321v113h175v-113q0 -92 -8 -176.5t-31 -190.5h-97q-20 106 -29.5 190.5t-9.5 176.5z" />
<glyph unicode="(" horiz-adv-x="608" d="M133 635q0 227 69.5 439t219.5 401h143q-131 -188 -191.5 -408.5t-60.5 -431.5t60.5 -428t191.5 -412h-143q-150 193 -219.5 404t-69.5 436z" />
<glyph unicode=")" horiz-adv-x="608" d="M43 -205q131 188 190.5 408.5t59.5 431.5t-59.5 428t-190.5 412h143q147 -193 218 -404t71 -436q0 -227 -71 -439.5t-218 -400.5h-143z" />
<glyph unicode="*" horiz-adv-x="739" d="M18 1122l43 138q55 -25 128 -59t145 -68q-12 76 -22.5 156t-14.5 141h143q-4 -61 -13 -141.5t-24 -155.5q72 35 145 68.5t128 58.5l45 -138q-59 -16 -138 -31.5t-155 -27.5q55 -55 108.5 -112.5t94.5 -104.5l-117 -84q-33 51 -72 120.5t-73 139.5q-35 -70 -74 -139.5 t-70 -120.5l-119 84q39 47 93.5 104.5t109.5 112.5q-76 12 -153.5 27.5t-137.5 31.5z" />
<glyph unicode="+" d="M170 606v139h362v373h144v-373h362v-139h-362v-375h-144v375h-362z" />
<glyph unicode="," horiz-adv-x="450" d="M76 -174q68 20 106.5 64t48.5 96h-4q-55 0 -89 33.5t-34 84.5q0 57 34 90t93 33q57 0 94 -43t37 -127q0 -113 -69.5 -199.5t-216.5 -119.5v88z" />
<glyph unicode="-" horiz-adv-x="784" d="M92 420v149h600v-149h-600z" />
<glyph unicode="." horiz-adv-x="450" d="M102 106q0 53 35 87t88 34t87 -33.5t34 -87.5q0 -51 -35 -85.5t-86 -34.5q-53 0 -88 34.5t-35 85.5z" />
<glyph unicode="/" horiz-adv-x="667" d="M10 -215l482 1618h167l-481 -1618h-168z" />
<glyph unicode="0" horiz-adv-x="1134" d="M68 670q0 211 54 369.5t164.5 245.5t280.5 87t280.5 -87t165 -245.5t54.5 -369.5t-54.5 -370t-165 -246t-280.5 -87t-280.5 87t-164.5 246t-54 370zM264 670q0 -268 72.5 -412.5t230.5 -144.5t230.5 144t72.5 413q0 268 -72.5 412.5t-230.5 144.5t-230.5 -144.5 t-72.5 -412.5z" />
<glyph unicode="1" horiz-adv-x="796" d="M47 981v156q104 23 217 75t195 127h145v-1339h-188v1106q-86 -43 -183.5 -77t-185.5 -48z" />
<glyph unicode="2" horiz-adv-x="1097" d="M80 918q12 213 143 333.5t344 120.5q131 0 229.5 -47t154 -131t55.5 -195q0 -129 -61.5 -225t-196.5 -188l-240 -164q-109 -74 -156 -135.5t-51 -134.5h725v-152h-938v39q0 162 72.5 276.5t224.5 214.5l233 158q106 72 149.5 140.5t43.5 164.5q0 109 -67.5 172.5 t-186.5 63.5q-266 0 -291 -311h-186z" />
<glyph unicode="3" horiz-adv-x="1103" d="M53 395h187q14 -150 104 -218t221 -68t209 64.5t78 191.5q0 78 -37 142t-121 101t-227 37h-37v131h37q139 0 214 34t102.5 85t27.5 104q0 115 -69.5 173.5t-182.5 58.5q-121 0 -192.5 -62.5t-85.5 -175.5h-185q14 174 141.5 276.5t327.5 102.5q195 0 317 -96t122 -264 q0 -92 -52.5 -176t-187.5 -127q158 -45 218 -139.5t60 -200.5q0 -123 -59 -213t-167 -139.5t-253 -49.5q-223 0 -358 114t-152 314z" />
<glyph unicode="4" horiz-adv-x="1128" d="M47 289v141l664 909h170v-901h206v-149h-206v-289h-179v289h-655zM221 438h481v666z" />
<glyph unicode="5" horiz-adv-x="1079" d="M66 344h186q20 -119 97 -176t192 -57q131 0 208.5 78.5t77.5 234.5q0 158 -77.5 243t-198.5 85q-94 0 -172 -46.5t-113 -134.5h-147l53 768h789v-151h-633l-31 -416q113 117 289 117q133 0 231 -57.5t152.5 -160t54.5 -235.5q0 -219 -134 -344t-360 -125 q-190 0 -318 98.5t-146 278.5z" />
<glyph unicode="6" horiz-adv-x="1099" d="M68 651q0 213 52 376t165.5 254t296.5 91q168 0 285.5 -91t144.5 -261h-197q-20 109 -86.5 162t-159.5 53q-152 0 -229.5 -133t-85.5 -420q55 92 152.5 138t197.5 46q131 0 229.5 -54t152.5 -154.5t54 -235.5q0 -139 -59 -241.5t-166 -158t-248 -55.5q-244 0 -371.5 173 t-127.5 511zM270 422q0 -152 82 -234t209 -82q133 0 212 79t79 231q0 156 -76 234.5t-209 78.5t-215 -84t-82 -223z" />
<glyph unicode="7" horiz-adv-x="989" d="M31 1188v151h921v-151q-229 -303 -359 -587t-169 -601h-195q35 225 103.5 419.5t177 381t266.5 387.5h-745z" />
<glyph unicode="8" horiz-adv-x="1138" d="M61 367q0 123 75 212t204 132q-109 39 -170 117.5t-61 189.5q0 109 57 187.5t160.5 122.5t242.5 44t242.5 -44t161 -123t57.5 -187q0 -111 -61.5 -189.5t-169.5 -117.5q129 -43 203.5 -132.5t74.5 -211.5q0 -125 -64.5 -214.5t-178 -137.5t-265.5 -48t-265.5 48 t-178 137.5t-64.5 214.5zM262 375q0 -139 87 -207t220 -68t220.5 68t87.5 207q0 131 -87.5 201.5t-220.5 70.5t-220 -70.5t-87 -201.5zM299 1008q0 -117 74.5 -177.5t195.5 -60.5t196 60.5t75 177.5t-75 177t-196 60t-195.5 -60.5t-74.5 -176.5z" />
<glyph unicode="9" horiz-adv-x="1093" d="M55 918q0 139 60.5 241.5t168.5 157.5t251 55q145 0 256.5 -69.5t173 -217t61.5 -380.5q0 -217 -54 -383t-167 -260.5t-291 -94.5q-166 0 -282.5 91.5t-143.5 260.5h197q20 -109 83.5 -162t157.5 -53q143 0 223 133.5t89 415.5q-51 -90 -146.5 -135t-197.5 -45 q-199 0 -319 120t-120 325zM246 924q0 -156 75.5 -235t206.5 -79q133 0 215 83t82 216q0 156 -81.5 240t-204.5 84q-135 0 -214 -78t-79 -231z" />
<glyph unicode=":" horiz-adv-x="450" d="M102 106q0 53 35 87t88 34t87 -33.5t34 -87.5q0 -51 -35 -85.5t-86 -34.5q-53 0 -88 34.5t-35 85.5zM102 899q0 53 35 87t88 34t87 -33.5t34 -87.5q0 -51 -35 -85.5t-86 -34.5q-53 0 -88 34.5t-35 85.5z" />
<glyph unicode=";" horiz-adv-x="450" d="M76 -174q68 20 106.5 64t48.5 96h-4q-55 0 -89 33.5t-34 84.5q0 57 34 90t93 33q57 0 94 -43t37 -127q0 -113 -69.5 -199.5t-216.5 -119.5v88zM102 899q0 53 35 87t88 34t87 -33.5t34 -87.5q0 -51 -35 -85.5t-86 -34.5q-53 0 -88 34.5t-35 85.5z" />
<glyph unicode="&#x3c;" d="M152 606v139l866 371v-149l-705 -291l705 -291v-149z" />
<glyph unicode="=" d="M170 370v139h868v-139h-868zM170 801v139h868v-139h-868z" />
<glyph unicode="&#x3e;" d="M190 236v149l705 291l-705 291v149l867 -371v-139z" />
<glyph unicode="?" horiz-adv-x="929" d="M12 983q10 193 132 307.5t327 114.5q127 0 223.5 -44t150.5 -123t54 -185q0 -109 -44 -187t-136 -149l-123 -96q-63 -51 -83.5 -95.5t-20.5 -111.5v-43h-170v59q0 92 33.5 154.5t117.5 130.5l121 98q59 49 87 104.5t28 131.5q0 94 -65.5 154.5t-176.5 60.5 q-119 0 -190.5 -72t-81.5 -209h-183zM285 100q0 51 34.5 86t88.5 35q51 0 85.5 -34.5t34.5 -86.5q0 -51 -34.5 -85.5t-85.5 -34.5q-53 0 -88 34.5t-35 85.5z" />
<glyph unicode="@" horiz-adv-x="1931" d="M92 528q0 188 61.5 349t177 280t278.5 184.5t364 65.5q213 0 378 -61.5t278.5 -172t172 -256t58.5 -311.5q0 -248 -106.5 -395.5t-307.5 -147.5q-94 0 -155.5 43.5t-78.5 137.5q-51 -80 -136 -122t-181 -42q-119 0 -204 56.5t-131 153.5t-46 220q0 125 48 223t135 153.5 t204 55.5q98 0 175 -42t124 -114l8 142h156v-613q0 -68 26.5 -99.5t86.5 -31.5q61 0 117.5 45t93 138.5t36.5 238.5q0 135 -48 258t-142 218.5t-234.5 149.5t-326.5 54q-170 0 -307.5 -57.5t-235.5 -160.5t-151.5 -241.5t-53.5 -298.5q0 -229 98.5 -397t268.5 -261t381 -93 q131 0 236.5 23.5t226.5 76.5l37 -117q-123 -57 -241 -82.5t-261 -25.5q-270 0 -467 109.5t-304.5 307t-107.5 459.5zM688 510q0 -127 65.5 -214t178.5 -87q76 0 136 39t95 104.5t35 143.5v30q0 76 -32.5 141.5t-92 105.5t-137.5 40q-115 0 -181.5 -87t-66.5 -216z" />
<glyph unicode="A" horiz-adv-x="1306" d="M45 0l508 1372h203l506 -1372h-199l-113 328h-600l-114 -328h-191zM401 475h498l-248 715z" />
<glyph unicode="B" horiz-adv-x="1265" d="M176 0v1372h457q174 0 279.5 -48t151.5 -127t46 -171q0 -100 -59.5 -185t-202.5 -124q168 -35 248 -123t80 -209q0 -106 -52.5 -193.5t-164 -139.5t-291.5 -52h-492zM362 137h277q135 0 208 37t100.5 95.5t27.5 121.5q0 72 -35 128t-119.5 88t-234.5 32h-224v-502z M362 770h222q133 0 203.5 35t98 90t27.5 115q0 100 -69.5 162.5t-233.5 62.5h-248v-465z" />
<glyph unicode="C" horiz-adv-x="1413" d="M100 686q0 209 76 372t218.5 255t340.5 92q242 0 398.5 -133t199.5 -363h-207q-35 164 -137 255t-254 91q-203 0 -316.5 -154.5t-113.5 -414.5t113.5 -414.5t316.5 -154.5q150 0 252.5 86t136.5 248h205q-39 -223 -196.5 -353.5t-397.5 -130.5q-199 0 -341 91.5t-218 254 t-76 373.5z" />
<glyph unicode="D" horiz-adv-x="1437" d="M176 0v1372h424q248 0 412 -90t245.5 -245.5t81.5 -350.5q0 -197 -81.5 -351.5t-245.5 -244.5t-410 -90h-426zM362 145h238q274 0 403.5 147.5t129.5 393.5q0 166 -55.5 288t-173.5 188.5t-304 66.5h-238v-1084z" />
<glyph unicode="E" horiz-adv-x="1144" d="M176 0v1372h860v-149h-665v-461h602v-144h-602v-468h673v-150h-868z" />
<glyph unicode="F" horiz-adv-x="1130" d="M176 0v1372h875v-149h-680v-490h587v-143h-587v-590h-195z" />
<glyph unicode="G" horiz-adv-x="1470" d="M100 686q0 211 79 373t224.5 254t348.5 92q244 0 403.5 -127t196.5 -350h-207q-31 162 -133.5 245.5t-259.5 83.5q-137 0 -238.5 -70.5t-156 -198.5t-54.5 -302q0 -172 54.5 -301t155.5 -199.5t239 -70.5q193 0 303 111.5t127 314.5h-377v145h565v-61q0 -190 -69.5 -339 t-207 -234t-341.5 -85q-205 0 -350.5 92.5t-223.5 255t-78 371.5z" />
<glyph unicode="H" horiz-adv-x="1433" d="M176 0v1372h195v-606h692v606h194v-1372h-194v616h-692v-616h-195z" />
<glyph unicode="I" horiz-adv-x="546" d="M176 0v1372h195v-1372h-195z" />
<glyph unicode="J" horiz-adv-x="1187" d="M57 471h193q25 -354 295 -354q152 0 224.5 97t72.5 302v856h194v-844q0 -272 -126.5 -416.5t-364.5 -144.5q-215 0 -343 132t-145 372z" />
<glyph unicode="K" horiz-adv-x="1263" d="M176 0v1372h195v-629l604 629h233l-659 -672q197 -57 360 -206q111 -100 190 -222t132 -272h-221q-39 115 -98.5 214t-145.5 183q-178 176 -395 205v-602h-195z" />
<glyph unicode="L" horiz-adv-x="1067" d="M176 0v1372h195v-1222h637v-150h-832z" />
<glyph unicode="M" horiz-adv-x="1675" d="M92 0l170 1372h205l371 -1005l368 1005h207l172 -1372h-190l-131 1100l-355 -987h-147l-356 979l-127 -1092h-187z" />
<glyph unicode="N" horiz-adv-x="1441" d="M176 0v1372h186l717 -1073v1073h187v-1372h-185l-719 1077v-1077h-186z" />
<glyph unicode="O" horiz-adv-x="1499" d="M100 686q0 207 76 370t220.5 256t353.5 93t353 -93t220 -256t76 -370t-76 -369.5t-220 -256t-353 -93.5t-353.5 93.5t-220.5 256t-76 369.5zM305 686q0 -172 51.5 -300t151 -198.5t242.5 -70.5t242.5 70.5t150.5 198.5t51 300q0 170 -51 299t-150.5 199.5t-242.5 70.5 t-242.5 -70.5t-151 -199.5t-51.5 -299z" />
<glyph unicode="P" horiz-adv-x="1206" d="M176 0v1372h481q238 0 355.5 -114.5t117.5 -292.5q0 -195 -121.5 -312.5t-387.5 -117.5h-250v-535h-195zM371 674h256q156 0 231.5 74.5t75.5 207.5t-75.5 206t-231.5 73h-256v-561z" />
<glyph unicode="Q" horiz-adv-x="1499" d="M100 686q0 207 76 370t220.5 256t353.5 93q207 0 352 -93t221 -256t76 -370q0 -174 -54.5 -318.5t-158 -241.5t-252.5 -136q74 -47 173 -65.5t222 -18.5v-182q-154 8 -260 37.5t-178 79.5t-123 126h-18q-209 0 -353.5 93.5t-220.5 255t-76 370.5zM305 686 q0 -172 51.5 -300t151 -198.5t242.5 -70.5t242.5 70.5t150.5 198.5t51 300q0 170 -51 299t-150.5 199.5t-242.5 70.5t-242.5 -70.5t-151 -199.5t-51.5 -299z" />
<glyph unicode="R" horiz-adv-x="1269" d="M176 0v1372h471q172 0 282.5 -50t165 -136t54.5 -195q0 -160 -108.5 -253t-292.5 -113q162 -55 277.5 -207t188.5 -418h-208q-82 309 -222.5 446.5t-359.5 137.5h-53v-584h-195zM371 715h219q180 0 270 68.5t90 193.5q0 121 -80 189.5t-262 68.5h-237v-520z" />
<glyph unicode="S" horiz-adv-x="1210" d="M70 381h194q18 -104 71.5 -163.5t128.5 -84t157 -24.5q150 0 230.5 65.5t80.5 167.5q0 100 -58.5 160.5t-187.5 91.5l-235 57q-98 25 -174 69t-118 118.5t-42 191.5q0 113 61.5 198t171 131t250.5 46q219 0 346 -106.5t156 -301.5h-193q-47 266 -315 267 q-129 0 -207 -58.5t-78 -161.5q0 -100 50.5 -149t158.5 -76l230 -55q197 -47 287.5 -140.5t90.5 -263.5q0 -180 -135 -286.5t-379 -106.5t-383 108.5t-159 305.5z" />
<glyph unicode="T" horiz-adv-x="1193" d="M45 1223v149h1104v-149h-455v-1223h-194v1223h-455z" />
<glyph unicode="U" horiz-adv-x="1388" d="M150 524v848h194v-858q0 -188 90 -292.5t260 -104.5q172 0 261 104.5t89 292.5v858h195v-848q0 -256 -142.5 -406.5t-402.5 -150.5q-264 0 -404 149.5t-140 407.5z" />
<glyph unicode="V" horiz-adv-x="1277" d="M45 1372h203l393 -1171l399 1171h193l-496 -1372h-200z" />
<glyph unicode="W" horiz-adv-x="1871" d="M53 1372h201l289 -1130l315 1130h166l315 -1134l291 1134h189l-367 -1372h-211l-303 1094l-307 -1094h-211z" />
<glyph unicode="X" horiz-adv-x="1255" d="M39 0l483 702l-456 670h215l350 -532l358 532h209l-461 -667l482 -705h-220l-370 569l-381 -569h-209z" />
<glyph unicode="Y" horiz-adv-x="1220" d="M35 1372h207l372 -684l375 684h197l-479 -821v-551h-195v551z" />
<glyph unicode="Z" horiz-adv-x="1183" d="M90 0v117l770 1108h-749v147h985v-117l-768 -1108h784v-147h-1022z" />
<glyph unicode="[" horiz-adv-x="593" d="M152 -205v1680h401v-132h-227v-1417h227v-131h-401z" />
<glyph unicode="\" horiz-adv-x="667" d="M10 1403h166l481 -1618h-168z" />
<glyph unicode="]" horiz-adv-x="593" d="M41 -74h227v1417h-227v132h401v-1680h-401v131z" />
<glyph unicode="^" d="M211 686l326 666h133l327 -666h-149l-246 518l-248 -518h-143z" />
<glyph unicode="_" horiz-adv-x="1024" d="M0 -174h1024v-82h-1024v82z" />
<glyph unicode="`" horiz-adv-x="1024" d="M309 1409l107 125l305 -293l-68 -82z" />
<glyph unicode="a" horiz-adv-x="1079" d="M76 256q0 111 58.5 181.5t156.5 111.5t221 57.5t252 18.5v24q0 129 -60.5 200t-168.5 71q-96 0 -160 -49.5t-82 -143.5h-178q27 147 138.5 233.5t289.5 86.5q197 0 300 -109t103 -330v-608h-168l-10 145q-55 -82 -150 -127t-210 -45q-152 0 -242 73t-90 210zM262 270 q0 -82 54.5 -126t138.5 -44q90 0 159.5 40t109.5 107.5t40 151.5v113q-238 -2 -370 -61.5t-132 -180.5z" />
<glyph unicode="b" horiz-adv-x="1187" d="M150 0v1434h184v-574q55 88 145 137.5t191 49.5q137 0 233 -71t148.5 -191.5t52.5 -274.5q0 -158 -55.5 -278.5t-154.5 -189.5t-232 -69q-115 0 -200 51.5t-134 137.5l-11 -162h-167zM330 496q0 -180 83.5 -282.5t204.5 -102.5q94 0 160 52t100.5 143t34.5 204t-34.5 204 t-100 143t-160.5 52q-78 0 -143 -45t-105 -131t-40 -207v-30z" />
<glyph unicode="c" horiz-adv-x="1101" d="M84 510q0 168 66.5 288t179 184.5t250.5 64.5q106 0 199 -40t159 -122t86 -205h-184q-29 127 -100.5 181t-161.5 54q-76 0 -146 -40.5t-114 -130t-44 -234.5q0 -143 44 -232.5t114 -131.5t146 -42q92 0 162.5 58.5t105.5 195.5h180q-23 -131 -90.5 -216t-161.5 -127 t-196 -42q-135 0 -248 61.5t-179.5 181.5t-66.5 294z" />
<glyph unicode="d" horiz-adv-x="1187" d="M84 510q0 158 55.5 278.5t154.5 189.5t232 69q111 0 195 -48.5t133 -130.5v566h184v-1434h-168l-10 170q-53 -94 -145 -145.5t-195 -51.5q-137 0 -234.5 71t-149.5 191.5t-52 274.5zM274 510q0 -113 35 -204t100.5 -143t159.5 -52q78 0 143.5 45t105.5 131t40 209v30 q0 178 -84 280.5t-205 102.5q-94 0 -159.5 -52t-100.5 -143t-35 -204z" />
<glyph unicode="e" horiz-adv-x="1122" d="M84 510q0 170 66.5 290t177 183.5t241.5 63.5q143 0 249 -64.5t165 -184.5t59 -286v-49h-774q10 -162 87 -262.5t220 -100.5q117 0 183.5 58.5t93.5 156.5h178q-43 -172 -166 -257t-291 -85q-131 0 -242.5 59.5t-179 178.5t-67.5 299zM270 586h588q-14 154 -87 244 t-202 90q-119 0 -203.5 -88.5t-95.5 -245.5z" />
<glyph unicode="f" horiz-adv-x="704" d="M31 891v129h159v35q0 405 338 405h2q51 0 98.5 -10t92.5 -29l-33 -129q-33 12 -65.5 18.5t-71.5 6.5q-80 0 -128 -56.5t-48 -179.5v-61h295v-129h-295v-891h-185v891h-159z" />
<glyph unicode="g" horiz-adv-x="1187" d="M84 522q0 154 55.5 271.5t154.5 185.5t230 68q115 0 201 -51.5t133 -135.5l10 160h168v-950q0 -527 -477 -527q-172 0 -294 87t-150 261h180q20 -113 92 -168t172 -55q141 0 217 85t76 259v162q-53 -86 -142 -133t-194 -47q-135 0 -231.5 68.5t-148.5 188.5t-52 271z M274 522q0 -113 35 -201t100.5 -139t157.5 -51q119 0 204 97.5t85 277.5v33q0 174 -83 272t-206 98q-92 0 -157.5 -51t-100.5 -138t-35 -198z" />
<glyph unicode="h" horiz-adv-x="1177" d="M150 0v1434h184v-578q53 96 146 143.5t196 47.5q184 0 276 -111t92 -299v-637h-184v610q0 297 -239 297q-123 0 -205 -94t-82 -287v-526h-184z" />
<glyph unicode="i" horiz-adv-x="487" d="M125 1309q0 49 34 81.5t83 32.5q51 0 84.5 -32.5t33.5 -81.5q0 -51 -33.5 -84t-84.5 -33q-49 0 -83 32.5t-34 84.5zM152 0v1020h184v-1020h-184z" />
<glyph unicode="j" horiz-adv-x="501" d="M-154 -428l31 131q47 -16 109 -16q80 0 127 54t47 171v1108h184v-1086q0 -193 -84 -292t-258 -99q-80 0 -156 29zM133 1309q0 49 34 81.5t83 32.5q51 0 85 -32.5t34 -81.5q0 -51 -34 -84t-85 -33q-49 0 -83 32.5t-34 84.5z" />
<glyph unicode="k" horiz-adv-x="1044" d="M150 0v1434h184v-844l444 432h209l-495 -467q150 -53 266 -160q176 -160 258 -395h-203q-55 180 -184 305q-63 59 -136 102.5t-159 67.5v-475h-184z" />
<glyph unicode="l" horiz-adv-x="487" d="M152 0v1434h184v-1434h-184z" />
<glyph unicode="m" horiz-adv-x="1839" d="M150 0v1020h167l11 -166q53 98 142 145.5t194 47.5q127 0 209.5 -59.5t117.5 -164.5q51 113 148.5 168.5t210.5 55.5q174 0 265 -111t91 -299v-637h-184v610q0 152 -59.5 224.5t-168.5 72.5q-115 0 -194.5 -94t-79.5 -287v-526h-184v610q0 152 -59.5 224.5t-168.5 72.5 q-113 0 -193.5 -94t-80.5 -287v-526h-184z" />
<glyph unicode="n" horiz-adv-x="1177" d="M150 0v1020h167l11 -176q53 102 147 152.5t201 50.5q184 0 276 -111t92 -299v-637h-184v610q0 297 -239 297q-123 0 -205 -94t-82 -287v-526h-184z" />
<glyph unicode="o" horiz-adv-x="1167" d="M84 510q0 154 62.5 275.5t175 191.5t262.5 70t262 -70t174.5 -191.5t62.5 -275.5t-62.5 -275.5t-174.5 -191.5t-262 -70t-262.5 70t-175 191.5t-62.5 275.5zM274 510q0 -180 83.5 -293t226.5 -113t226 113t83 293t-83 292.5t-226 112.5t-226.5 -112.5t-83.5 -292.5z" />
<glyph unicode="p" horiz-adv-x="1187" d="M150 -430v1450h167l11 -170q53 94 145 145.5t197 51.5q137 0 233 -71t148.5 -191.5t52.5 -274.5q0 -158 -55.5 -278.5t-154.5 -189.5t-232 -69q-111 0 -195 48.5t-133 130.5v-582h-184zM330 496q0 -180 83.5 -282.5t204.5 -102.5q94 0 160 52t100.5 143t34.5 204 t-34.5 204t-100 143t-160.5 52q-78 0 -143 -45t-105 -131t-40 -207v-30z" />
<glyph unicode="q" horiz-adv-x="1187" d="M84 510q0 158 54.5 278.5t153.5 189.5t234 69q115 0 200 -51.5t134 -137.5l10 162h168v-1450h-184v590q-55 -88 -145.5 -137.5t-190.5 -49.5q-137 0 -233.5 71t-148.5 191.5t-52 274.5zM274 510q0 -113 35 -204t100.5 -143t157.5 -52q80 0 145.5 45t104.5 131t39 209v30 q0 180 -83 282.5t-206 102.5q-92 0 -157.5 -52t-100.5 -143t-35 -206z" />
<glyph unicode="r" horiz-adv-x="720" d="M150 0v1020h163l11 -201q37 90 112.5 154.5t179.5 64.5q20 0 35 -3t31 -5v-170q-12 4 -32.5 6t-43.5 2q-68 0 -130 -36.5t-102 -116.5t-40 -207v-508h-184z" />
<glyph unicode="s" horiz-adv-x="1005" d="M72 303h184q12 -82 51 -127t93.5 -63.5t111.5 -18.5q113 0 172 42t59 118q0 129 -186 174l-166 41q-133 33 -206.5 99.5t-73.5 189.5q0 131 108.5 210t282.5 79q180 0 284.5 -80t128.5 -226h-182q-37 184 -237 185q-92 0 -147.5 -42t-55.5 -118q0 -59 40 -94t122 -56 l166 -41q145 -35 224 -104.5t79 -202.5q0 -137 -108.5 -216t-305.5 -79q-195 0 -307.5 86t-130.5 244z" />
<glyph unicode="t" horiz-adv-x="735" d="M35 891v129h147v303h185v-303h297v-129h-297v-578q0 -104 46 -150t111 -46q41 0 73 6t65 18l32 -129q-45 -18 -91 -28.5t-99 -10.5q-162 0 -242 88.5t-80 245.5v584h-147z" />
<glyph unicode="u" horiz-adv-x="1155" d="M135 383v637h184v-610q0 -152 59.5 -224.5t168.5 -72.5q113 0 193.5 94t80.5 287v526h185v-1020h-168l-11 166q-53 -98 -142 -145.5t-193 -47.5q-176 0 -266.5 111t-90.5 299z" />
<glyph unicode="v" horiz-adv-x="1032" d="M31 1020h198l295 -827l293 827h184l-389 -1020h-192z" />
<glyph unicode="w" horiz-adv-x="1552" d="M31 1020h194l228 -827l252 827h161l252 -830l228 830h176l-314 -1020h-190l-242 786l-241 -786h-191z" />
<glyph unicode="x" horiz-adv-x="1015" d="M25 0l387 524l-361 496h209l254 -375l272 375h191l-367 -490l383 -530h-209l-276 406l-293 -406h-190z" />
<glyph unicode="y" horiz-adv-x="1017" d="M-10 -414l43 129q31 -14 67.5 -22t71.5 -8q63 0 110.5 41t86.5 135l67 164l-405 995h194l293 -805l289 805h180l-463 -1180q-57 -152 -141 -224.5t-205 -72.5q-98 0 -188 43z" />
<glyph unicode="z" horiz-adv-x="985" d="M86 0v106l594 779h-571v135h790v-107l-600 -778h621v-135h-834z" />
<glyph unicode="{" horiz-adv-x="696" d="M72 569v131h53q76 0 105.5 35t29.5 105q0 102 -15.5 186t-15.5 180q0 127 76 198t258 71h96v-132h-84q-98 0 -138 -37.5t-40 -119.5q0 -72 7.5 -127t14.5 -114.5t7 -139.5q0 -88 -45 -125t-98 -45q53 -8 98 -45t45 -125q0 -80 -7 -139.5t-14.5 -114.5t-7.5 -127 q0 -82 40 -120t138 -38h84v-131h-96q-182 0 -258 71t-76 197q0 96 15.5 180.5t15.5 186.5q0 70 -29.5 104.5t-105.5 34.5h-53z" />
<glyph unicode="|" horiz-adv-x="466" d="M154 -205v1680h159v-1680h-159z" />
<glyph unicode="}" horiz-adv-x="696" d="M37 -74h84q98 0 138 38t40 120q0 72 -7 127t-14.5 114.5t-7.5 139.5q0 88 44 125t100 45q-55 8 -99.5 45t-44.5 125q0 80 7.5 139.5t14.5 114.5t7 127q0 82 -40 119.5t-138 37.5h-84v132h96q182 0 258 -71t76 -198q0 -96 -15.5 -180t-15.5 -186q0 -70 30 -105t105 -35h54 v-131h-54q-76 0 -105.5 -34.5t-29.5 -104.5q0 -102 15.5 -186t15.5 -181q0 -127 -76 -197.5t-258 -70.5h-96v131z" />
<glyph unicode="~" d="M164 459q8 145 76.5 244.5t189.5 99.5q70 0 123 -37t96 -84q39 -43 70 -67.5t69 -24.5q45 0 84 48t46 167h143q-8 -145 -75.5 -244.5t-188.5 -99.5q-72 0 -125.5 38t-96.5 85q-41 47 -70.5 69.5t-68.5 22.5q-43 0 -83 -49t-44 -168h-145z" />
<glyph unicode="&#xa1;" horiz-adv-x="473" d="M115 920q0 51 34.5 85.5t88.5 34.5q53 0 86.5 -34.5t33.5 -85.5t-34.5 -86t-85.5 -35q-53 0 -88 34.5t-35 86.5zM139 -352l29 999h137l31 -999h-197z" />
<glyph unicode="&#xa2;" d="M137 668q0 154 58.5 266.5t157 179t218.5 78.5v160h113v-158q143 -14 253 -103.5t138 -261.5h-174q-25 113 -85 168.5t-136 67.5v-795q76 14 137.5 72.5t89.5 173.5h170q-33 -174 -144.5 -267t-248.5 -108v-141h-113v139q-121 12 -219 77t-156.5 178.5t-58.5 273.5z M319 668q0 -188 77 -283.5t179 -114.5v795q-102 -18 -179 -113.5t-77 -283.5z" />
<glyph unicode="&#xa3;" d="M102 0v133q119 0 171.5 64.5t52.5 195.5q0 53 -8.5 101.5t-20.5 95.5h-191v139h154q-12 53 -21.5 112.5t-9.5 127.5q0 193 119 298t311 105q172 0 285 -98t150 -258h-193q-27 106 -88 162.5t-162 56.5q-102 0 -166.5 -62.5t-64.5 -195.5q0 -70 10 -130.5t25 -117.5h376 v-139h-342q10 -43 17.5 -89t7.5 -95q0 -102 -28.5 -165t-71.5 -96h663v-145h-975z" />
<glyph unicode="&#xa4;" d="M106 270l148 150q-41 53 -63.5 119.5t-22.5 140.5t23.5 140.5t64.5 119.5l-147 147l90 91l149 -150q53 39 120 59.5t138 20.5q72 0 137.5 -21.5t118.5 -58.5l150 148l90 -89l-148 -149q39 -53 61.5 -118.5t22.5 -139.5t-22.5 -140.5t-61.5 -119.5l148 -146l-90 -90 l-148 148q-53 -39 -119.5 -60.5t-138.5 -21.5q-74 0 -140.5 21.5t-119.5 60.5l-151 -152zM317 680q0 -86 37 -153.5t102.5 -107.5t149.5 -40q82 0 146.5 40t101.5 107.5t37 153.5t-37 153.5t-101.5 107.5t-146.5 40q-84 0 -149.5 -40t-102.5 -107.5t-37 -153.5z" />
<glyph unicode="&#xa5;" d="M70 1339h192l344 -663l348 663h183l-396 -702h263v-117h-312v-135h312v-115h-312v-270h-180v270h-317v115h317v135h-317v117h268z" />
<glyph unicode="&#xa7;" horiz-adv-x="1042" d="M80 1073q0 150 109.5 241t314.5 91q201 0 313.5 -86t126.5 -244h-178q-12 80 -53 126t-97.5 64.5t-113.5 18.5q-125 0 -186.5 -54t-61.5 -145q0 -90 51 -149t166 -94l395 -123v-144l-430 130q-186 55 -271 142t-85 226zM94 131h180q12 -82 53.5 -127t97.5 -63.5 t114 -18.5q125 0 186 54.5t61 144.5q0 92 -52 149.5t-165 94.5l-395 122v144l428 -129q188 -57 273.5 -140t85.5 -229q0 -150 -110 -241t-314 -91q-201 0 -313.5 86t-129.5 244z" />
<glyph unicode="&#xa8;" horiz-adv-x="1024" d="M213 1292q0 47 30.5 77t75.5 30t77 -30t32 -77t-32 -76.5t-77 -29.5t-75.5 29.5t-30.5 76.5zM596 1292q0 47 31.5 77t77.5 30q45 0 75.5 -30t30.5 -77t-30.5 -76.5t-75.5 -29.5t-77 29.5t-32 76.5z" />
<glyph unicode="&#xa9;" horiz-adv-x="1705" d="M180 686q0 199 87 354.5t239.5 243.5t347.5 88t347.5 -88t239.5 -243.5t87 -354.5t-87 -354.5t-239.5 -243.5t-347.5 -88t-347.5 88t-239.5 243.5t-87 354.5zM303 686q0 -170 68.5 -300t192.5 -203.5t290 -73.5t290 73.5t192.5 203.5t68.5 300t-68.5 301t-192.5 204 t-290 73t-290 -73t-192.5 -204t-68.5 -301zM504 686q0 123 50 212t133 137t185 48q117 0 208 -67.5t120 -208.5h-151q-20 90 -68.5 129t-110.5 39q-51 0 -99 -30t-78.5 -94.5t-30.5 -164.5t30.5 -163.5t78.5 -93.5t99 -30q63 0 111.5 41t71.5 135h149q-29 -145 -124 -214.5 t-208 -69.5q-100 0 -184 46t-133 135t-49 214z" />
<glyph unicode="&#xaa;" horiz-adv-x="872" d="M72 776q0 80 43 133.5t116.5 85t165.5 45t189 15.5v16q0 88 -43 142.5t-119 54.5q-66 0 -112 -37t-60 -101h-150q23 115 108 178.5t222 63.5q311 0 311 -332v-456h-135l-12 127q-41 -66 -114.5 -104t-159.5 -38q-119 0 -184.5 55.5t-65.5 151.5zM231 793q0 -49 38.5 -81 t97.5 -32t109 28.5t80 74.5t30 102v80q-166 -4 -260.5 -46t-94.5 -126z" />
<glyph unicode="&#xab;" horiz-adv-x="1226" d="M100 508l293 401h180l-284 -399l289 -404h-185zM632 508l293 401h180l-284 -399l289 -404h-185z" />
<glyph unicode="&#xac;" d="M170 719v139h868v-452h-143v313h-725z" />
<glyph unicode="&#xad;" horiz-adv-x="784" d="M92 420v149h600v-149h-600z" />
<glyph unicode="&#xae;" horiz-adv-x="1134" d="M74 889q0 147 62.5 261t174 178.5t256.5 64.5t257 -64.5t173.5 -178.5t61.5 -261t-61.5 -261t-173.5 -178.5t-257 -64.5t-256.5 64.5t-174 178t-62.5 261.5zM182 889q0 -188 101.5 -299t283.5 -111q180 0 282.5 110.5t102.5 299.5q0 190 -102 300.5t-283 110.5 q-182 0 -283.5 -110.5t-101.5 -300.5zM381 643v506h199q96 0 143 -40t47 -108q0 -53 -32.5 -85.5t-92.5 -45.5q113 -47 154 -227h-101q-23 106 -74 153.5t-128 47.5h-19v-201h-96zM477 918h88q59 0 84 22.5t25 56.5q0 35 -25 57.5t-84 22.5h-88v-159z" />
<glyph unicode="&#xaf;" horiz-adv-x="1024" d="M219 1225v131h586v-131h-586z" />
<glyph unicode="&#xb0;" horiz-adv-x="641" d="M47 1169q0 117 79 191t193 74q117 0 196 -74t79 -191t-79 -190.5t-196 -73.5q-115 0 -193.5 74t-78.5 190zM168 1169q0 -72 42.5 -116.5t108.5 -44.5q68 0 111 45t43 116q0 72 -43 117t-111 45q-66 0 -108.5 -45t-42.5 -117z" />
<glyph unicode="&#xb2;" horiz-adv-x="731" d="M70 1317q8 133 91 206.5t218 73.5q129 0 206 -63.5t77 -165.5q0 -78 -36 -137.5t-120 -112.5l-141 -92q-57 -37 -83 -67.5t-32 -65.5h420v-119h-596v25q0 98 45 169.5t141 135.5l135 88q61 41 87 80t26 90q0 59 -37 93t-100 34q-70 0 -111 -44t-47 -128h-143z" />
<glyph unicode="&#xb3;" horiz-adv-x="722" d="M43 1016h143q10 -78 58.5 -117t122.5 -39q72 0 113.5 37t41.5 102q0 72 -50 112t-167 40h-22v98h22q84 0 126 17.5t57.5 45t15.5 58.5q0 59 -39 90t-100 31q-66 0 -105 -34t-47 -93h-143q12 111 92 172t209 61q127 0 204.5 -59t77.5 -160q0 -59 -33.5 -106t-109.5 -72 q84 -27 123 -80t39 -119q0 -115 -84 -181t-221 -66t-224.5 67.5t-99.5 194.5z" />
<glyph unicode="&#xb4;" horiz-adv-x="1024" d="M303 1241l305 293l107 -125l-344 -250z" />
<glyph unicode="&#xb6;" horiz-adv-x="1181" d="M78 934q0 201 114.5 319.5t344.5 118.5h462v-1587h-135v1462h-153v-1462h-136v711h-38q-229 0 -344 121.5t-115 316.5z" />
<glyph unicode="&#xb7;" horiz-adv-x="450" d="M102 493q0 53 35 87t88 34t87 -33.5t34 -87.5q0 -51 -35 -85.5t-86 -34.5q-53 0 -88 34.5t-35 85.5z" />
<glyph unicode="&#xb8;" horiz-adv-x="1024" d="M321 -487l8 94q37 -10 71 -14.5t67 -4.5q63 0 100 30t37 79q0 43 -28.5 71.5t-76.5 28.5q-45 0 -75 -18h-49l30 221h94l-24 -129q27 8 55 8q82 0 136.5 -50t54.5 -128q0 -94 -69 -151.5t-183 -57.5q-68 0 -148 21z" />
<glyph unicode="&#xb9;" horiz-adv-x="540" d="M37 1337v123q68 14 135.5 43t118.5 74h115v-803h-152v629q-53 -23 -108.5 -40.5t-108.5 -25.5z" />
<glyph unicode="&#xba;" horiz-adv-x="880" d="M55 971q0 115 48.5 205t134.5 143t202 53q117 0 203 -53t134 -143.5t48 -204.5q0 -115 -48 -205t-134 -143.5t-203 -53.5t-202.5 53.5t-134 143.5t-48.5 205zM219 971q0 -131 60.5 -210t160.5 -79t161 79t61 210t-60.5 211t-161.5 80q-100 0 -160.5 -80t-60.5 -211z" />
<glyph unicode="&#xbb;" horiz-adv-x="1226" d="M117 909h184l293 -401l-293 -402h-180l285 398zM649 909h184l293 -401l-293 -402h-180l285 398z" />
<glyph unicode="&#xbc;" horiz-adv-x="1552" d="M37 1112v123q68 14 135.5 43t118.5 74h115v-803h-152v629q-53 -23 -108.5 -40.5t-108.5 -25.5zM340 0l689 1352h163l-688 -1352h-164zM866 166v106l403 531h133v-522h119v-115h-119v-166h-141v166h-395zM1001 281h260v337z" />
<glyph unicode="&#xbd;" horiz-adv-x="1673" d="M37 1112v123q68 14 135.5 43t118.5 74h115v-803h-152v629q-53 -23 -108.5 -40.5t-108.5 -25.5zM340 0l689 1352h163l-688 -1352h-164zM1012 543q8 133 91 206.5t218 73.5q129 0 206 -63.5t77 -165.5q0 -78 -36 -137.5t-120 -112.5l-141 -92q-57 -37 -83 -67.5t-32 -65.5 h420v-119h-596v25q0 98 45 169.5t141 135.5l135 88q61 41 87 80t26 90q0 59 -37 93t-100 34q-70 0 -111 -44t-47 -128h-143z" />
<glyph unicode="&#xbe;" horiz-adv-x="1716" d="M43 791h143q10 -78 58.5 -117t122.5 -39q72 0 113.5 37t41.5 102q0 72 -50 112t-167 40h-22v98h22q84 0 126 17.5t57.5 45t15.5 58.5q0 59 -39 90t-100 31q-66 0 -105 -34t-47 -93h-143q12 111 92 172t209 61q127 0 204.5 -59t77.5 -160q0 -59 -33.5 -106t-109.5 -72 q84 -27 123 -80t39 -119q0 -115 -84 -181t-221 -66t-224.5 67.5t-99.5 194.5zM503 0l689 1352h163l-688 -1352h-164zM1030 166v106l403 531h133v-522h119v-115h-119v-166h-141v166h-395zM1165 281h260v337z" />
<glyph unicode="&#xbf;" horiz-adv-x="929" d="M31 -33q0 109 44 186.5t136 149.5l123 96q63 51 83.5 95.5t20.5 111.5v43h170v-59q0 -92 -33.5 -154.5t-117.5 -130.5l-121 -98q-59 -49 -87 -104.5t-28 -131.5q0 -94 65.5 -154.5t176.5 -60.5q119 0 190.5 72t81.5 209h183q-10 -193 -132 -307.5t-327 -114.5 q-127 0 -223.5 44t-150.5 123t-54 185zM401 920q0 51 35 85.5t88 34.5t87 -34.5t34 -85.5t-35 -86t-86 -35q-53 0 -88 34.5t-35 86.5z" />
<glyph unicode="&#xc0;" horiz-adv-x="1306" d="M45 0l508 1372h203l506 -1372h-199l-113 328h-600l-114 -328h-191zM354 1677l82 158l418 -252l-52 -100zM401 475h498l-248 715z" />
<glyph unicode="&#xc1;" horiz-adv-x="1306" d="M45 0l508 1372h203l506 -1372h-199l-113 328h-600l-114 -328h-191zM401 475h498l-248 715zM456 1583l418 252l82 -158l-448 -194z" />
<glyph unicode="&#xc2;" horiz-adv-x="1306" d="M45 0l508 1372h203l506 -1372h-199l-113 328h-600l-114 -328h-191zM299 1569l307 239h100l307 -239l-63 -95l-295 189l-295 -189zM401 475h498l-248 715z" />
<glyph unicode="&#xc3;" horiz-adv-x="1306" d="M45 0l508 1372h203l506 -1372h-199l-113 328h-600l-114 -328h-191zM290 1526q12 121 72 196.5t150 75.5q49 0 92 -22.5t90 -65.5q59 -57 102 -57q27 0 54.5 29.5t42.5 109.5h127q-12 -121 -72 -197.5t-150 -76.5q-49 0 -92 23.5t-90 66.5q-59 57 -102 57 q-27 0 -54.5 -29.5t-42.5 -109.5h-127zM401 475h498l-248 715z" />
<glyph unicode="&#xc4;" horiz-adv-x="1306" d="M45 0l508 1372h203l506 -1372h-199l-113 328h-600l-114 -328h-191zM327 1659q0 49 32 81t81 32q47 0 79 -32t32 -81q0 -51 -32 -82t-79 -31q-49 0 -81 31t-32 82zM401 475h498l-248 715zM759 1659q0 49 32 81t79 32q49 0 81 -32t32 -81q0 -51 -32 -82t-81 -31 q-47 0 -79 31t-32 82z" />
<glyph unicode="&#xc5;" horiz-adv-x="1306" d="M45 0l508 1372h203l506 -1372h-199l-113 328h-600l-114 -328h-191zM401 475h498l-248 715zM411 1739q0 106 69 169.5t175 63.5q109 0 177.5 -63.5t68.5 -169.5q0 -104 -68.5 -170t-177.5 -66q-106 0 -175 65.5t-69 170.5zM524 1739q0 -63 36 -98t95 -35q57 0 94 34.5 t37 98.5q0 59 -36 96t-95 37t-95 -37t-36 -96z" />
<glyph unicode="&#xc6;" horiz-adv-x="1910" d="M45 0l813 1372h944v-149h-665v-461h602v-144h-602v-468h673v-150h-866v328h-520l-188 -328h-191zM512 477h432v750z" />
<glyph unicode="&#xc7;" horiz-adv-x="1413" d="M100 686q0 209 76 372t218.5 255t340.5 92q242 0 398.5 -133t199.5 -363h-207q-35 164 -137 255t-254 91q-203 0 -316.5 -154.5t-113.5 -414.5t113.5 -414.5t316.5 -154.5q150 0 252.5 86t136.5 248h205q-39 -223 -196.5 -353.5t-397.5 -130.5q-199 0 -341 91.5t-218 254 t-76 373.5zM592 -489l8 100q37 -10 73 -14.5t68 -4.5q59 0 95 29t36 76q0 41 -26.5 68.5t-73.5 27.5q-23 0 -39 -5t-33 -13h-55l29 227h100l-20 -125q25 6 51 6q84 0 138 -51t54 -131q0 -98 -68.5 -154.5t-183.5 -56.5q-39 0 -75.5 4t-77.5 17z" />
<glyph unicode="&#xc8;" horiz-adv-x="1144" d="M176 0v1372h860v-149h-665v-461h602v-144h-602v-468h673v-150h-868zM305 1677l82 158l418 -252l-52 -100z" />
<glyph unicode="&#xc9;" horiz-adv-x="1144" d="M176 0v1372h860v-149h-665v-461h602v-144h-602v-468h673v-150h-868zM407 1583l418 252l82 -158l-448 -194z" />
<glyph unicode="&#xca;" horiz-adv-x="1144" d="M176 0v1372h860v-149h-665v-461h602v-144h-602v-468h673v-150h-868zM250 1569l307 239h100l307 -239l-63 -95l-295 189l-295 -189z" />
<glyph unicode="&#xcb;" horiz-adv-x="1144" d="M176 0v1372h860v-149h-665v-461h602v-144h-602v-468h673v-150h-868zM278 1659q0 49 32 81t81 32q47 0 79 -32t32 -81q0 -51 -32 -82t-79 -31q-49 0 -81 31t-32 82zM710 1659q0 49 32 81t79 32q49 0 81 -32t32 -81q0 -51 -32 -82t-81 -31q-47 0 -79 31t-32 82z" />
<glyph unicode="&#xcc;" horiz-adv-x="546" d="M-27 1677l82 158l418 -252l-52 -100zM176 0v1372h195v-1372h-195z" />
<glyph unicode="&#xcd;" horiz-adv-x="546" d="M75 1583l418 252l82 -158l-448 -194zM176 0v1372h195v-1372h-195z" />
<glyph unicode="&#xce;" horiz-adv-x="546" d="M-82 1569l307 239h100l307 -239l-63 -95l-295 189l-295 -189zM176 0v1372h195v-1372h-195z" />
<glyph unicode="&#xcf;" horiz-adv-x="546" d="M-54 1659q0 49 32 81t81 32q47 0 79 -32t32 -81q0 -51 -32 -82t-79 -31q-49 0 -81 31t-32 82zM176 0v1372h195v-1372h-195zM378 1659q0 49 32 81t79 32q49 0 81 -32t32 -81q0 -51 -32 -82t-81 -31q-47 0 -79 31t-32 82z" />
<glyph unicode="&#xd0;" horiz-adv-x="1478" d="M49 623v135h168v614h424q248 0 412 -90t245.5 -245.5t81.5 -350.5q0 -197 -81.5 -351.5t-245.5 -244.5t-410 -90h-426v623h-168zM403 145h238q274 0 403.5 147.5t129.5 393.5q0 166 -55.5 288t-173.5 188.5t-304 66.5h-238v-471h400v-135h-400v-478z" />
<glyph unicode="&#xd1;" horiz-adv-x="1441" d="M176 0v1372h186l717 -1073v1073h187v-1372h-185l-719 1077v-1077h-186zM356 1526q12 121 72 196.5t150 75.5q49 0 92 -22.5t90 -65.5q59 -57 102 -57q27 0 54.5 29.5t42.5 109.5h127q-12 -121 -72 -197.5t-150 -76.5q-49 0 -92 23.5t-90 66.5q-59 57 -102 57 q-27 0 -54.5 -29.5t-42.5 -109.5h-127z" />
<glyph unicode="&#xd2;" horiz-adv-x="1499" d="M100 686q0 207 76 370t220.5 256t353.5 93t353 -93t220 -256t76 -370t-76 -369.5t-220 -256t-353 -93.5t-353.5 93.5t-220.5 256t-76 369.5zM305 686q0 -172 51.5 -300t151 -198.5t242.5 -70.5t242.5 70.5t150.5 198.5t51 300q0 170 -51 299t-150.5 199.5t-242.5 70.5 t-242.5 -70.5t-151 -199.5t-51.5 -299zM449 1677l82 158l418 -252l-52 -100z" />
<glyph unicode="&#xd3;" horiz-adv-x="1499" d="M100 686q0 207 76 370t220.5 256t353.5 93t353 -93t220 -256t76 -370t-76 -369.5t-220 -256t-353 -93.5t-353.5 93.5t-220.5 256t-76 369.5zM305 686q0 -172 51.5 -300t151 -198.5t242.5 -70.5t242.5 70.5t150.5 198.5t51 300q0 170 -51 299t-150.5 199.5t-242.5 70.5 t-242.5 -70.5t-151 -199.5t-51.5 -299zM551 1583l418 252l82 -158l-448 -194z" />
<glyph unicode="&#xd4;" horiz-adv-x="1499" d="M100 686q0 207 76 370t220.5 256t353.5 93t353 -93t220 -256t76 -370t-76 -369.5t-220 -256t-353 -93.5t-353.5 93.5t-220.5 256t-76 369.5zM305 686q0 -172 51.5 -300t151 -198.5t242.5 -70.5t242.5 70.5t150.5 198.5t51 300q0 170 -51 299t-150.5 199.5t-242.5 70.5 t-242.5 -70.5t-151 -199.5t-51.5 -299zM394 1569l307 239h100l307 -239l-63 -95l-295 189l-295 -189z" />
<glyph unicode="&#xd5;" horiz-adv-x="1499" d="M100 686q0 207 76 370t220.5 256t353.5 93t353 -93t220 -256t76 -370t-76 -369.5t-220 -256t-353 -93.5t-353.5 93.5t-220.5 256t-76 369.5zM305 686q0 -172 51.5 -300t151 -198.5t242.5 -70.5t242.5 70.5t150.5 198.5t51 300q0 170 -51 299t-150.5 199.5t-242.5 70.5 t-242.5 -70.5t-151 -199.5t-51.5 -299zM385 1526q12 121 72 196.5t150 75.5q49 0 92 -22.5t90 -65.5q59 -57 102 -57q27 0 54.5 29.5t42.5 109.5h127q-12 -121 -72 -197.5t-150 -76.5q-49 0 -92 23.5t-90 66.5q-59 57 -102 57q-27 0 -54.5 -29.5t-42.5 -109.5h-127z" />
<glyph unicode="&#xd6;" horiz-adv-x="1499" d="M100 686q0 207 76 370t220.5 256t353.5 93t353 -93t220 -256t76 -370t-76 -369.5t-220 -256t-353 -93.5t-353.5 93.5t-220.5 256t-76 369.5zM305 686q0 -172 51.5 -300t151 -198.5t242.5 -70.5t242.5 70.5t150.5 198.5t51 300q0 170 -51 299t-150.5 199.5t-242.5 70.5 t-242.5 -70.5t-151 -199.5t-51.5 -299zM422 1659q0 49 32 81t81 32q47 0 79 -32t32 -81q0 -51 -32 -82t-79 -31q-49 0 -81 31t-32 82zM854 1659q0 49 32 81t79 32q49 0 81 -32t32 -81q0 -51 -32 -82t-81 -31q-47 0 -79 31t-32 82z" />
<glyph unicode="&#xd7;" d="M207 375l301 301l-301 303l94 96l303 -303l303 303l94 -96l-301 -303l301 -301l-94 -96l-303 303l-303 -303z" />
<glyph unicode="&#xd8;" horiz-adv-x="1499" d="M100 686q0 207 76 370t220.5 256t353.5 93q96 0 180 -21.5t153 -62.5l103 152l129 -87l-109 -159q94 -96 143.5 -235.5t49.5 -305.5q0 -209 -76 -370.5t-221.5 -255t-351.5 -93.5q-98 0 -182.5 21.5t-153.5 62.5l-103 -151l-127 86l109 159q-94 96 -143.5 235.5 t-49.5 305.5zM305 686q0 -240 96 -387l594 883q-102 74 -245 73q-143 0 -242.5 -70.5t-151 -199.5t-51.5 -299zM502 193q103 -76 248 -76q143 0 242.5 70.5t150.5 198.5t51 300q0 240 -96 387z" />
<glyph unicode="&#xd9;" horiz-adv-x="1386" d="M148 524v848h194v-858q0 -188 90 -292.5t260 -104.5q172 0 261 104.5t89 292.5v858h195v-848q0 -256 -142.5 -406.5t-402.5 -150.5q-264 0 -404 149.5t-140 407.5zM391 1677l82 158l418 -252l-52 -100z" />
<glyph unicode="&#xda;" horiz-adv-x="1386" d="M148 524v848h194v-858q0 -188 90 -292.5t260 -104.5q172 0 261 104.5t89 292.5v858h195v-848q0 -256 -142.5 -406.5t-402.5 -150.5q-264 0 -404 149.5t-140 407.5zM493 1583l418 252l82 -158l-448 -194z" />
<glyph unicode="&#xdb;" horiz-adv-x="1386" d="M148 524v848h194v-858q0 -188 90 -292.5t260 -104.5q172 0 261 104.5t89 292.5v858h195v-848q0 -256 -142.5 -406.5t-402.5 -150.5q-264 0 -404 149.5t-140 407.5zM336 1569l307 239h100l307 -239l-63 -95l-295 189l-295 -189z" />
<glyph unicode="&#xdc;" horiz-adv-x="1386" d="M148 524v848h194v-858q0 -188 90 -292.5t260 -104.5q172 0 261 104.5t89 292.5v858h195v-848q0 -256 -142.5 -406.5t-402.5 -150.5q-264 0 -404 149.5t-140 407.5zM364 1659q0 49 32 81t81 32q47 0 79 -32t32 -81q0 -51 -32 -82t-79 -31q-49 0 -81 31t-32 82zM796 1659 q0 49 32 81t79 32q49 0 81 -32t32 -81q0 -51 -32 -82t-81 -31q-47 0 -79 31t-32 82z" />
<glyph unicode="&#xdd;" horiz-adv-x="1220" d="M35 1372h207l372 -684l375 684h197l-479 -821v-551h-195v551zM417 1583l418 252l82 -158l-448 -194z" />
<glyph unicode="&#xde;" horiz-adv-x="1206" d="M176 0v1372h195v-252h286q238 0 355.5 -114.5t117.5 -292.5q0 -193 -121.5 -311.5t-387.5 -118.5h-250v-283h-195zM371 422h256q156 0 231.5 75.5t75.5 207.5q0 133 -75.5 205.5t-231.5 72.5h-256v-561z" />
<glyph unicode="&#xdf;" horiz-adv-x="1230" d="M152 0v940q0 250 119.5 385t346.5 135q139 0 238.5 -49t152 -134t52.5 -194q0 -94 -44 -178t-159 -129q115 -29 179.5 -88t92 -138t27.5 -163q0 -195 -117.5 -304.5t-328.5 -109.5q-117 0 -211 37l28 129q41 -16 79 -21t79 -5q125 0 203 75.5t78 210.5q0 139 -86 220 t-273 81h-47v129h45q123 0 194.5 64.5t71.5 181.5q0 121 -64.5 186.5t-193.5 65.5q-127 0 -202.5 -83t-75.5 -245v-999h-184z" />
<glyph unicode="&#xe0;" horiz-adv-x="1079" d="M76 256q0 111 58.5 181.5t156.5 111.5t221 57.5t252 18.5v24q0 129 -60.5 200t-168.5 71q-96 0 -160 -49.5t-82 -143.5h-178q27 147 138.5 233.5t289.5 86.5q197 0 300 -109t103 -330v-608h-168l-10 145q-55 -82 -150 -127t-210 -45q-152 0 -242 73t-90 210zM262 270 q0 -82 54.5 -126t138.5 -44q90 0 159.5 40t109.5 107.5t40 151.5v113q-238 -2 -370 -61.5t-132 -180.5zM293 1409l107 125l305 -293l-68 -82z" />
<glyph unicode="&#xe1;" horiz-adv-x="1079" d="M76 256q0 111 58.5 181.5t156.5 111.5t221 57.5t252 18.5v24q0 129 -60.5 200t-168.5 71q-96 0 -160 -49.5t-82 -143.5h-178q27 147 138.5 233.5t289.5 86.5q197 0 300 -109t103 -330v-608h-168l-10 145q-55 -82 -150 -127t-210 -45q-152 0 -242 73t-90 210zM262 270 q0 -82 54.5 -126t138.5 -44q90 0 159.5 40t109.5 107.5t40 151.5v113q-238 -2 -370 -61.5t-132 -180.5zM377 1241l305 293l107 -125l-344 -250z" />
<glyph unicode="&#xe2;" horiz-adv-x="1079" d="M76 256q0 111 58.5 181.5t156.5 111.5t221 57.5t252 18.5v24q0 129 -60.5 200t-168.5 71q-96 0 -160 -49.5t-82 -143.5h-178q27 147 138.5 233.5t289.5 86.5q197 0 300 -109t103 -330v-608h-168l-10 145q-55 -82 -150 -127t-210 -45q-152 0 -242 73t-90 210zM213 1229 l283 295h90l283 -295l-74 -82l-256 229l-256 -229zM262 270q0 -82 54.5 -126t138.5 -44q90 0 159.5 40t109.5 107.5t40 151.5v113q-238 -2 -370 -61.5t-132 -180.5z" />
<glyph unicode="&#xe3;" horiz-adv-x="1079" d="M76 256q0 111 58.5 181.5t156.5 111.5t221 57.5t252 18.5v24q0 129 -60.5 200t-168.5 71q-96 0 -160 -49.5t-82 -143.5h-178q27 147 138.5 233.5t289.5 86.5q197 0 300 -109t103 -330v-608h-168l-10 145q-55 -82 -150 -127t-210 -45q-152 0 -242 73t-90 210zM213 1200 q8 115 60.5 186.5t134.5 71.5q47 0 86 -24.5t80 -59.5q33 -27 54.5 -41t41.5 -14q27 0 49.5 28.5t32.5 104.5h119q-10 -115 -61.5 -186.5t-133.5 -71.5q-47 0 -86 24.5t-82 59.5q-33 29 -53 42t-41 13q-29 0 -50.5 -29.5t-33.5 -103.5h-117zM262 270q0 -82 54.5 -126 t138.5 -44q90 0 159.5 40t109.5 107.5t40 151.5v113q-238 -2 -370 -61.5t-132 -180.5z" />
<glyph unicode="&#xe4;" horiz-adv-x="1079" d="M76 256q0 111 58.5 181.5t156.5 111.5t221 57.5t252 18.5v24q0 129 -60.5 200t-168.5 71q-96 0 -160 -49.5t-82 -143.5h-178q27 147 138.5 233.5t289.5 86.5q197 0 300 -109t103 -330v-608h-168l-10 145q-55 -82 -150 -127t-210 -45q-152 0 -242 73t-90 210zM242 1292 q0 47 30.5 77t75.5 30t77 -30t32 -77t-32 -76.5t-77 -29.5t-75.5 29.5t-30.5 76.5zM262 270q0 -82 54.5 -126t138.5 -44q90 0 159.5 40t109.5 107.5t40 151.5v113q-238 -2 -370 -61.5t-132 -180.5zM625 1292q0 47 31.5 77t77.5 30q45 0 75.5 -30t30.5 -77t-30.5 -76.5 t-75.5 -29.5t-77 29.5t-32 76.5z" />
<glyph unicode="&#xe5;" horiz-adv-x="1079" d="M76 256q0 111 58.5 181.5t156.5 111.5t221 57.5t252 18.5v24q0 129 -60.5 200t-168.5 71q-96 0 -160 -49.5t-82 -143.5h-178q27 147 138.5 233.5t289.5 86.5q197 0 300 -109t103 -330v-608h-168l-10 145q-55 -82 -150 -127t-210 -45q-152 0 -242 73t-90 210zM262 270 q0 -82 54.5 -126t138.5 -44q90 0 159.5 40t109.5 107.5t40 151.5v113q-238 -2 -370 -61.5t-132 -180.5zM305 1370q0 102 67 164.5t169 62.5q104 0 171 -62t67 -165q0 -100 -68 -164.5t-170 -64.5t-169 64.5t-67 164.5zM408 1370q0 -63 37 -100t96 -37t96 37t37 100 q0 59 -37 97t-96 38t-96 -37.5t-37 -97.5z" />
<glyph unicode="&#xe6;" horiz-adv-x="1789" d="M76 256q0 111 58.5 181.5t157.5 111.5t222 58.5t250 19.5v22q0 129 -60.5 200t-166.5 71q-94 0 -159 -49.5t-85 -143.5h-178q29 150 139.5 235t290.5 85q238 0 325 -191q66 94 161 142.5t206 48.5q143 0 248.5 -64.5t165 -184.5t59.5 -286v-49h-776q10 -160 87 -261.5 t222 -101.5q117 0 182.5 58.5t94.5 156.5h178q-45 -172 -168 -257t-287 -85q-135 0 -241.5 64.5t-161.5 189.5q-45 -113 -159 -183.5t-263 -70.5q-156 0 -249 73t-93 210zM262 274q0 -84 55.5 -129t145.5 -45q133 0 217 84t84 213v115q-244 -4 -373 -62.5t-129 -175.5z M936 586h590q-14 154 -88 244t-201 90q-119 0 -204 -88.5t-97 -245.5z" />
<glyph unicode="&#xe7;" horiz-adv-x="1101" d="M84 510q0 168 66.5 288t179 184.5t250.5 64.5q106 0 199 -40t159 -122t86 -205h-184q-29 127 -100.5 181t-161.5 54q-76 0 -146 -40.5t-114 -130t-44 -234.5q0 -143 44 -232.5t114 -131.5t146 -42q92 0 162.5 58.5t105.5 195.5h180q-23 -131 -90.5 -216t-161.5 -127 t-196 -42q-135 0 -248 61.5t-179.5 181.5t-66.5 294zM418 -487l8 94q37 -10 71 -14.5t67 -4.5q63 0 100 30t37 79q0 43 -28.5 71.5t-76.5 28.5q-45 0 -75 -18h-49l30 221h94l-24 -129q27 8 55 8q82 0 136.5 -50t54.5 -128q0 -94 -69 -151.5t-183 -57.5q-68 0 -148 21z" />
<glyph unicode="&#xe8;" horiz-adv-x="1122" d="M84 510q0 170 66.5 290t177 183.5t241.5 63.5q143 0 249 -64.5t165 -184.5t59 -286v-49h-774q10 -162 87 -262.5t220 -100.5q117 0 183.5 58.5t93.5 156.5h178q-43 -172 -166 -257t-291 -85q-131 0 -242.5 59.5t-179 178.5t-67.5 299zM270 586h588q-14 154 -87 244 t-202 90q-119 0 -203.5 -88.5t-95.5 -245.5zM321 1409l107 125l305 -293l-68 -82z" />
<glyph unicode="&#xe9;" horiz-adv-x="1122" d="M84 510q0 170 66.5 290t177 183.5t241.5 63.5q143 0 249 -64.5t165 -184.5t59 -286v-49h-774q10 -162 87 -262.5t220 -100.5q117 0 183.5 58.5t93.5 156.5h178q-43 -172 -166 -257t-291 -85q-131 0 -242.5 59.5t-179 178.5t-67.5 299zM270 586h588q-14 154 -87 244 t-202 90q-119 0 -203.5 -88.5t-95.5 -245.5zM405 1241l305 293l107 -125l-344 -250z" />
<glyph unicode="&#xea;" horiz-adv-x="1122" d="M84 510q0 170 66.5 290t177 183.5t241.5 63.5q143 0 249 -64.5t165 -184.5t59 -286v-49h-774q10 -162 87 -262.5t220 -100.5q117 0 183.5 58.5t93.5 156.5h178q-43 -172 -166 -257t-291 -85q-131 0 -242.5 59.5t-179 178.5t-67.5 299zM241 1229l283 295h90l283 -295 l-74 -82l-256 229l-256 -229zM270 586h588q-14 154 -87 244t-202 90q-119 0 -203.5 -88.5t-95.5 -245.5z" />
<glyph unicode="&#xeb;" horiz-adv-x="1122" d="M84 510q0 170 66.5 290t177 183.5t241.5 63.5q143 0 249 -64.5t165 -184.5t59 -286v-49h-774q10 -162 87 -262.5t220 -100.5q117 0 183.5 58.5t93.5 156.5h178q-43 -172 -166 -257t-291 -85q-131 0 -242.5 59.5t-179 178.5t-67.5 299zM270 586h588q-14 154 -87 244 t-202 90q-119 0 -203.5 -88.5t-95.5 -245.5zM270 1292q0 47 30.5 77t75.5 30t77 -30t32 -77t-32 -76.5t-77 -29.5t-75.5 29.5t-30.5 76.5zM653 1292q0 47 31.5 77t77.5 30q45 0 75.5 -30t30.5 -77t-30.5 -76.5t-75.5 -29.5t-77 29.5t-32 76.5z" />
<glyph unicode="&#xec;" horiz-adv-x="487" d="M13 1411l123 113l243 -303l-84 -72zM152 0v1020h184v-1020h-184z" />
<glyph unicode="&#xed;" horiz-adv-x="487" d="M105 1221l243 303l123 -113l-282 -262zM152 0v1020h184v-1020h-184z" />
<glyph unicode="&#xee;" horiz-adv-x="487" d="M-47 1208l244 305h90l246 -305l-74 -73l-217 223l-215 -223zM152 0v1020h184v-1020h-184z" />
<glyph unicode="&#xef;" horiz-adv-x="487" d="M-32 1292q0 47 30.5 78t77.5 31q45 0 77 -31t32 -78t-32 -77.5t-77 -30.5q-47 0 -77.5 30.5t-30.5 77.5zM152 0v1020h184v-1020h-184zM299 1292q0 47 31 78t78 31t77.5 -31t30.5 -78t-30.5 -77.5t-77.5 -30.5t-78 30.5t-31 77.5z" />
<glyph unicode="&#xf0;" horiz-adv-x="1144" d="M84 496q0 147 57.5 262.5t156.5 182.5t224 67q115 0 203 -54.5t137 -144.5q-16 125 -79.5 230.5t-168.5 179.5l-192 -154l-66 82l162 127q-96 45 -207 61l31 138q172 -18 311 -93l172 136l62 -80l-144 -115q152 -113 235 -299t83 -440q0 -195 -62.5 -331t-172.5 -207 t-251 -71q-145 0 -255.5 66.5t-173 183.5t-62.5 273zM276 487q0 -170 81 -276.5t218 -106.5q135 0 215 106.5t80 281.5q0 115 -38.5 200.5t-105.5 131.5t-151 46q-143 0 -221 -107.5t-78 -275.5z" />
<glyph unicode="&#xf1;" horiz-adv-x="1177" d="M150 0v1020h167l11 -176q53 102 147 152.5t201 50.5q184 0 276 -111t92 -299v-637h-184v610q0 297 -239 297q-123 0 -205 -94t-82 -287v-526h-184zM268 1200q8 115 60.5 186.5t134.5 71.5q47 0 86 -24.5t80 -59.5q33 -27 54.5 -41t41.5 -14q27 0 49.5 28.5t32.5 104.5 h119q-10 -115 -61.5 -186.5t-133.5 -71.5q-47 0 -86 24.5t-82 59.5q-33 29 -53 42t-41 13q-29 0 -50.5 -29.5t-33.5 -103.5h-117z" />
<glyph unicode="&#xf2;" horiz-adv-x="1167" d="M84 510q0 154 62.5 275.5t175 191.5t262.5 70t262 -70t174.5 -191.5t62.5 -275.5t-62.5 -275.5t-174.5 -191.5t-262 -70t-262.5 70t-175 191.5t-62.5 275.5zM274 510q0 -180 83.5 -293t226.5 -113t226 113t83 293t-83 292.5t-226 112.5t-226.5 -112.5t-83.5 -292.5z M336 1409l107 125l305 -293l-68 -82z" />
<glyph unicode="&#xf3;" horiz-adv-x="1167" d="M84 510q0 154 62.5 275.5t175 191.5t262.5 70t262 -70t174.5 -191.5t62.5 -275.5t-62.5 -275.5t-174.5 -191.5t-262 -70t-262.5 70t-175 191.5t-62.5 275.5zM274 510q0 -180 83.5 -293t226.5 -113t226 113t83 293t-83 292.5t-226 112.5t-226.5 -112.5t-83.5 -292.5z M420 1241l305 293l107 -125l-344 -250z" />
<glyph unicode="&#xf4;" horiz-adv-x="1167" d="M84 510q0 154 62.5 275.5t175 191.5t262.5 70t262 -70t174.5 -191.5t62.5 -275.5t-62.5 -275.5t-174.5 -191.5t-262 -70t-262.5 70t-175 191.5t-62.5 275.5zM256 1229l283 295h90l283 -295l-74 -82l-256 229l-256 -229zM274 510q0 -180 83.5 -293t226.5 -113t226 113 t83 293t-83 292.5t-226 112.5t-226.5 -112.5t-83.5 -292.5z" />
<glyph unicode="&#xf5;" horiz-adv-x="1167" d="M84 510q0 154 62.5 275.5t175 191.5t262.5 70t262 -70t174.5 -191.5t62.5 -275.5t-62.5 -275.5t-174.5 -191.5t-262 -70t-262.5 70t-175 191.5t-62.5 275.5zM256 1200q8 115 60.5 186.5t134.5 71.5q47 0 86 -24.5t80 -59.5q33 -27 54.5 -41t41.5 -14q27 0 49.5 28.5 t32.5 104.5h119q-10 -115 -61.5 -186.5t-133.5 -71.5q-47 0 -86 24.5t-82 59.5q-33 29 -53 42t-41 13q-29 0 -50.5 -29.5t-33.5 -103.5h-117zM274 510q0 -180 83.5 -293t226.5 -113t226 113t83 293t-83 292.5t-226 112.5t-226.5 -112.5t-83.5 -292.5z" />
<glyph unicode="&#xf6;" horiz-adv-x="1167" d="M84 510q0 154 62.5 275.5t175 191.5t262.5 70t262 -70t174.5 -191.5t62.5 -275.5t-62.5 -275.5t-174.5 -191.5t-262 -70t-262.5 70t-175 191.5t-62.5 275.5zM274 510q0 -180 83.5 -293t226.5 -113t226 113t83 293t-83 292.5t-226 112.5t-226.5 -112.5t-83.5 -292.5z M285 1292q0 47 30.5 77t75.5 30t77 -30t32 -77t-32 -76.5t-77 -29.5t-75.5 29.5t-30.5 76.5zM668 1292q0 47 31.5 77t77.5 30q45 0 75.5 -30t30.5 -77t-30.5 -76.5t-75.5 -29.5t-77 29.5t-32 76.5z" />
<glyph unicode="&#xf7;" d="M170 606v139h868v-139h-868zM494 305q0 47 31.5 78t78.5 31t78 -31t31 -78t-31 -78.5t-78 -31.5t-78.5 31.5t-31.5 78.5zM494 1047q0 49 31.5 79.5t78.5 30.5t78 -30.5t31 -79.5q0 -47 -31 -78t-78 -31t-78.5 30.5t-31.5 78.5z" />
<glyph unicode="&#xf8;" horiz-adv-x="1167" d="M84 510q0 154 62.5 275.5t175 191.5t262.5 70q135 0 243 -60l86 127l107 -72l-90 -131q74 -74 113.5 -176t39.5 -225q0 -154 -62.5 -275.5t-175 -191.5t-261.5 -70q-135 0 -246 62l-86 -127l-107 69l91 134q-72 72 -112 174t-40 225zM274 510q0 -154 62 -258l412 612 q-72 51 -164 51q-143 0 -226.5 -112.5t-83.5 -292.5zM418 158q72 -54 166 -54q143 0 226 113t83 293q0 156 -64 262z" />
<glyph unicode="&#xf9;" horiz-adv-x="1157" d="M135 383v637h184v-610q0 -152 59.5 -224.5t168.5 -72.5q113 0 193.5 94t80.5 287v526h185v-1020h-168l-11 166q-53 -98 -142 -145.5t-193 -47.5q-176 0 -266.5 111t-90.5 299zM321 1409l107 125l305 -293l-68 -82z" />
<glyph unicode="&#xfa;" horiz-adv-x="1157" d="M135 383v637h184v-610q0 -152 59.5 -224.5t168.5 -72.5q113 0 193.5 94t80.5 287v526h185v-1020h-168l-11 166q-53 -98 -142 -145.5t-193 -47.5q-176 0 -266.5 111t-90.5 299zM405 1241l305 293l107 -125l-344 -250z" />
<glyph unicode="&#xfb;" horiz-adv-x="1157" d="M135 383v637h184v-610q0 -152 59.5 -224.5t168.5 -72.5q113 0 193.5 94t80.5 287v526h185v-1020h-168l-11 166q-53 -98 -142 -145.5t-193 -47.5q-176 0 -266.5 111t-90.5 299zM241 1229l283 295h90l283 -295l-74 -82l-256 229l-256 -229z" />
<glyph unicode="&#xfc;" horiz-adv-x="1157" d="M135 383v637h184v-610q0 -152 59.5 -224.5t168.5 -72.5q113 0 193.5 94t80.5 287v526h185v-1020h-168l-11 166q-53 -98 -142 -145.5t-193 -47.5q-176 0 -266.5 111t-90.5 299zM270 1292q0 47 30.5 77t75.5 30t77 -30t32 -77t-32 -76.5t-77 -29.5t-75.5 29.5t-30.5 76.5z M653 1292q0 47 31.5 77t77.5 30q45 0 75.5 -30t30.5 -77t-30.5 -76.5t-75.5 -29.5t-77 29.5t-32 76.5z" />
<glyph unicode="&#xfd;" horiz-adv-x="1011" d="M-10 -414l43 129q31 -14 67.5 -22t71.5 -8q63 0 110.5 41t86.5 135l67 164l-405 995h194l293 -805l289 805h180l-463 -1180q-57 -152 -141 -224.5t-205 -72.5q-98 0 -188 43zM352 1241l305 293l107 -125l-344 -250z" />
<glyph unicode="&#xfe;" horiz-adv-x="1187" d="M150 -430v1864h184v-578q53 92 143 141.5t193 49.5q137 0 233 -71t148.5 -191.5t52.5 -274.5q0 -158 -55.5 -278.5t-154.5 -189.5t-232 -69q-111 0 -195 49.5t-133 131.5v-584h-184zM330 496q0 -180 83.5 -282.5t204.5 -102.5q94 0 160 52t100.5 143t34.5 204t-34.5 204 t-100 143t-160.5 52q-78 0 -143 -45t-105 -131t-40 -207v-30z" />
<glyph unicode="&#xff;" horiz-adv-x="1011" d="M-10 -414l43 129q31 -14 67.5 -22t71.5 -8q63 0 110.5 41t86.5 135l67 164l-405 995h194l293 -805l289 805h180l-463 -1180q-57 -152 -141 -224.5t-205 -72.5q-98 0 -188 43zM217 1292q0 47 30.5 77t75.5 30t77 -30t32 -77t-32 -76.5t-77 -29.5t-75.5 29.5t-30.5 76.5z M600 1292q0 47 31.5 77t77.5 30q45 0 75.5 -30t30.5 -77t-30.5 -76.5t-75.5 -29.5t-77 29.5t-32 76.5z" />
<glyph unicode="&#x152;" horiz-adv-x="1968" d="M100 686q0 197 82 351.5t245 244.5t411 90h1022v-149h-664v-461h600v-144h-600v-468h672v-150h-1030q-248 0 -411 90t-245 244.5t-82 351.5zM305 686q0 -162 55.5 -282.5t173.5 -187t304 -66.5h163v1073h-163q-274 0 -403.5 -146.5t-129.5 -390.5z" />
<glyph unicode="&#x153;" horiz-adv-x="1927" d="M84 510q0 154 62.5 275.5t175 191.5t262.5 70q131 0 233.5 -60.5t163.5 -165.5q66 109 169 167.5t224 58.5q141 0 248 -64.5t166 -185.5t59 -291v-43h-774q8 -160 86 -261.5t221 -101.5q117 0 182.5 58.5t92.5 156.5h180q-45 -172 -168 -257t-291 -85q-121 0 -226.5 55.5 t-170.5 166.5q-61 -102 -162.5 -162t-232.5 -60q-150 0 -262.5 70t-175 191.5t-62.5 275.5zM274 510q0 -180 83.5 -293t226.5 -113q141 0 224 113t83 293t-83 292.5t-224 112.5q-143 0 -226.5 -112.5t-83.5 -292.5zM1073 586h586q-14 156 -86 245t-199 89q-117 0 -203 -88.5 t-98 -245.5z" />
<glyph unicode="&#x178;" horiz-adv-x="1220" d="M35 1372h207l372 -684l375 684h197l-479 -821v-551h-195v551zM288 1659q0 49 32 81t81 32q47 0 79 -32t32 -81q0 -51 -32 -82t-79 -31q-49 0 -81 31t-32 82zM720 1659q0 49 32 81t79 32q49 0 81 -32t32 -81q0 -51 -32 -82t-81 -31q-47 0 -79 31t-32 82z" />
<glyph unicode="&#x2c6;" horiz-adv-x="1024" d="M184 1229l283 295h90l283 -295l-74 -82l-256 229l-256 -229z" />
<glyph unicode="&#x2dc;" horiz-adv-x="1024" d="M184 1200q8 115 60.5 186.5t134.5 71.5q47 0 86 -24.5t80 -59.5q33 -27 54.5 -41t41.5 -14q27 0 49.5 28.5t32.5 104.5h119q-10 -115 -61.5 -186.5t-133.5 -71.5q-47 0 -86 24.5t-82 59.5q-33 29 -53 42t-41 13q-29 0 -50.5 -29.5t-33.5 -103.5h-117z" />
<glyph unicode="&#x2000;" horiz-adv-x="986" />
<glyph unicode="&#x2001;" horiz-adv-x="1972" />
<glyph unicode="&#x2002;" horiz-adv-x="986" />
<glyph unicode="&#x2003;" horiz-adv-x="1972" />
<glyph unicode="&#x2004;" horiz-adv-x="657" />
<glyph unicode="&#x2005;" horiz-adv-x="493" />
<glyph unicode="&#x2006;" horiz-adv-x="328" />
<glyph unicode="&#x2007;" horiz-adv-x="328" />
<glyph unicode="&#x2008;" horiz-adv-x="246" />
<glyph unicode="&#x2009;" horiz-adv-x="394" />
<glyph unicode="&#x200a;" horiz-adv-x="109" />
<glyph unicode="&#x2010;" horiz-adv-x="784" d="M92 420v149h600v-149h-600z" />
<glyph unicode="&#x2011;" horiz-adv-x="784" d="M92 420v149h600v-149h-600z" />
<glyph unicode="&#x2012;" horiz-adv-x="784" d="M92 420v149h600v-149h-600z" />
<glyph unicode="&#x2013;" horiz-adv-x="1024" d="M0 420v149h1024v-149h-1024z" />
<glyph unicode="&#x2014;" horiz-adv-x="2048" d="M0 420v149h2048v-149h-2048z" />
<glyph unicode="&#x2018;" horiz-adv-x="323" d="M37 1176q0 104 63.5 178.5t180.5 97.5v-88q-100 -31 -121 -127q51 0 81.5 -29.5t30.5 -77.5q0 -53 -31.5 -82.5t-84.5 -29.5t-86 40t-33 118z" />
<glyph unicode="&#x2019;" horiz-adv-x="323" d="M43 1020v88q100 31 121 127q-51 0 -82 29.5t-31 76.5q0 51 32 82t85 31t86 -41t33 -117q0 -104 -63.5 -178.5t-180.5 -97.5z" />
<glyph unicode="&#x201a;" horiz-adv-x="323" d="M43 -141q100 31 121 127q-51 0 -82 29.5t-31 76.5q0 51 32 82t85 31t86 -41t33 -117q0 -104 -63.5 -178.5t-180.5 -97.5v88z" />
<glyph unicode="&#x201c;" horiz-adv-x="634" d="M37 1176q0 104 63.5 178.5t180.5 97.5v-88q-100 -31 -121 -127q51 0 81.5 -29.5t30.5 -77.5q0 -53 -31.5 -82.5t-84.5 -29.5t-86 40t-33 118zM348 1176q0 104 63.5 178.5t180.5 97.5v-88q-100 -31 -121 -127q51 0 81.5 -29.5t30.5 -77.5q0 -53 -31.5 -82.5t-84.5 -29.5 t-86 40t-33 118z" />
<glyph unicode="&#x201d;" horiz-adv-x="634" d="M43 1020v88q100 31 121 127q-51 0 -82 29.5t-31 76.5q0 51 32 82t85 31t86 -41t33 -117q0 -104 -63.5 -178.5t-180.5 -97.5zM354 1020v88q100 31 121 127q-51 0 -82 29.5t-31 76.5q0 51 32 82t85 31t86 -41t33 -117q0 -104 -63.5 -178.5t-180.5 -97.5z" />
<glyph unicode="&#x201e;" horiz-adv-x="634" d="M43 -141q100 31 121 127q-51 0 -82 29.5t-31 76.5q0 51 32 82t85 31t86 -41t33 -117q0 -104 -63.5 -178.5t-180.5 -97.5v88zM354 -141q100 31 121 127q-51 0 -82 29.5t-31 76.5q0 51 32 82t85 31t86 -41t33 -117q0 -104 -63.5 -178.5t-180.5 -97.5v88z" />
<glyph unicode="&#x2022;" horiz-adv-x="643" d="M113 496q0 90 58 148t151 58q90 0 148 -58t58 -148q0 -86 -59 -147.5t-147 -61.5q-92 0 -150.5 61.5t-58.5 147.5z" />
<glyph unicode="&#x2026;" horiz-adv-x="2048" d="M219 106q0 53 35 87t88 34t87 -33.5t34 -87.5q0 -51 -35 -85.5t-86 -34.5q-53 0 -88 34.5t-35 85.5zM901 106q0 53 35 87t88 34t87 -33.5t34 -87.5q0 -51 -35 -85.5t-86 -34.5q-53 0 -88 34.5t-35 85.5zM1583 106q0 53 35 87t88 34t87 -33.5t34 -87.5q0 -51 -35 -85.5 t-86 -34.5q-53 0 -88 34.5t-35 85.5z" />
<glyph unicode="&#x202f;" horiz-adv-x="394" />
<glyph unicode="&#x2039;" horiz-adv-x="694" d="M100 508l293 401h180l-284 -399l289 -404h-185z" />
<glyph unicode="&#x203a;" horiz-adv-x="694" d="M117 909h184l293 -401l-293 -402h-180l285 398z" />
<glyph unicode="&#x205f;" horiz-adv-x="493" />
<glyph unicode="&#x20ac;" d="M66 481v119h96q-2 35 -2 72q0 33 2 65h-96v117h108q25 154 93.5 270.5t174 182t246.5 65.5q115 0 211 -50t161.5 -141t88.5 -214h-182q-27 123 -100.5 192.5t-178.5 69.5q-133 0 -215 -99.5t-111 -275.5h474l-19 -117h-465q-2 -31 -2 -65q0 -37 2 -72h443l-19 -119h-411 q27 -174 109.5 -272t213.5 -98q104 0 180 67.5t103 198.5h180q-20 -127 -85 -219t-162 -141.5t-216 -49.5q-211 0 -343 141.5t-171 372.5h-108z" />
<glyph unicode="&#x2122;" horiz-adv-x="1837" d="M18 1253v119h715v-119h-282v-741h-148v741h-285zM793 512l100 860h166l219 -602l219 602h166l100 -860h-145l-72 655l-211 -567h-116l-211 567l-72 -655h-143z" />
<glyph unicode="&#x25fc;" horiz-adv-x="1024" d="M0 0v1024h1024v-1024h-1024z" />
<glyph unicode="&#xfb01;" horiz-adv-x="1185" d="M31 889v131h159v39q0 195 86 298t256 103q43 0 84 -9t84 -26l-32 -120q-55 20 -111 20q-86 0 -134 -57.5t-48 -186.5v-61h282v-131h-282v-889h-185v889h-159zM821 1311q0 49 34 81.5t85 32.5q49 0 84 -32.5t35 -81.5q0 -51 -35 -84t-84 -33q-51 0 -85 33t-34 84zM848 0 v1020h184v-1020h-184z" />
<glyph unicode="&#xfb02;" horiz-adv-x="1175" d="M31 889v131h159v39q0 195 86 298t256 103q43 0 84 -9t84 -26l-32 -120q-55 20 -111 20q-86 0 -134 -57.5t-48 -186.5v-61h282v-131h-282v-889h-185v889h-159zM840 0v1434h184v-1434h-184z" />
<glyph unicode="&#xfb03;" horiz-adv-x="1841" d="M31 889v131h159v39q0 195 86 298t256 103q98 0 189 -45l-33 -117q-66 27 -131 27q-86 0 -134 -57.5t-48 -186.5v-61h471v39q0 195 86 298t258 103q43 0 83 -9t83 -26l-33 -120q-55 20 -109 20q-88 0 -136 -57.5t-48 -186.5v-61h283v-131h-283v-889h-184v889h-471v-889 h-185v889h-159zM1477 1311q0 49 33.5 81.5t84.5 32.5q49 0 84 -32.5t35 -81.5q0 -51 -34.5 -84t-84.5 -33q-51 0 -84.5 33t-33.5 84zM1503 0v1020h185v-1020h-185z" />
<glyph unicode="&#xfb04;" horiz-adv-x="1830" d="M31 889v131h159v39q0 195 86 298t256 103q98 0 189 -45l-33 -117q-66 27 -131 27q-86 0 -134 -57.5t-48 -186.5v-61h471v39q0 195 86 298t258 103q43 0 83 -9t83 -26l-33 -120q-55 20 -109 20q-88 0 -136 -57.5t-48 -186.5v-61h283v-131h-283v-889h-184v889h-471v-889 h-185v889h-159zM1495 0v1434h184v-1434h-184z" />
</font>
</defs>
</svg>
